<?xml version="1.0" encoding="utf-8"?>
<!-- Generator: Adobe Illustrator 16.0.0, SVG Export Plug-In . SVG Version: 6.00 Build 0)  -->
<!DOCTYPE svg PUBLIC "-//W3C//DTD SVG 1.1//EN" "http://www.w3.org/Graphics/SVG/1.1/DTD/svg11.dtd">
<svg version="1.1" id="Calque_1" xmlns="http://www.w3.org/2000/svg" xmlns:xlink="http://www.w3.org/1999/xlink" x="0px" y="0px"
	 width="60px" height="60px" viewBox="0 0 60 60" enable-background="new 0 0 60 60" xml:space="preserve">
<g>
	<path opacity="0" fill="#2175FF" d="M4.8,0h50.4C57.852,0,60,2.149,60,4.8v50.4c0,2.651-2.148,4.8-4.8,4.8H4.8
		C2.149,60,0,57.852,0,55.2V4.8C0,2.149,2.149,0,4.8,0z"/>
	<path fill="#FFFFFF" d="M28,28v-4h4v6l-1,1l1,1v4h-4v-6l1-1L28,28z M15,30c0-8.284,6.714-15,15-15c8.284,0,15,6.714,15,15
		c0,8.284-6.714,15-15,15C21.716,45,15,38.286,15,30z M17,30c0,7.182,5.82,13,13,13c7.182,0,13-5.82,13-13c0-7.181-5.82-13-13-13
		C22.819,17,17,22.82,17,30z M19,30c0-6.075,4.923-11,11-11c6.075,0,11,4.923,11,11c0,6.075-4.924,11-11,11
		C23.925,41,19,36.076,19,30z M21,30c0,4.973,4.029,9,9,9c4.973,0,9-4.029,9-9c0-4.972-4.029-9-9-9C25.028,21,21,25.029,21,30z"/>
</g>
</svg>
