<?xml version="1.0" encoding="utf-8"?>
<!-- Generator: Adobe Illustrator 16.0.0, SVG Export Plug-In . SVG Version: 6.00 Build 0)  -->
<!DOCTYPE svg PUBLIC "-//W3C//DTD SVG 1.1//EN" "http://www.w3.org/Graphics/SVG/1.1/DTD/svg11.dtd">
<svg version="1.1" id="Calque_1" xmlns="http://www.w3.org/2000/svg" xmlns:xlink="http://www.w3.org/1999/xlink" x="0px" y="0px"
	 width="50px" height="50px" viewBox="0 0 50 50" enable-background="new 0 0 50 50" xml:space="preserve">
<path opacity="0" fill="#FFFFFF" fill-opacity="0" d="M4.8,0h40.4C47.852,0,50,2.149,50,4.8v40.4c0,2.651-2.148,4.8-4.8,4.8H4.8
	C2.149,50,0,47.852,0,45.2V4.8C0,2.149,2.149,0,4.8,0z"/>
<g transform="translate(12.5, 12.5)">
	<path fill="#FFFFFF" d="M10.487,1.024C8.323,1.385,6.646,2.355,5.771,3.75C5.138,4.759,4.825,6.08,5.156,6.34
		C5.237,6.404,6.035,6.527,6.93,6.613c1.863,0.18,1.857,0.182,2.068-0.645C9.057,5.734,9.26,5.363,9.449,5.143
		c0.499-0.581,0.994-0.819,1.858-0.891c0.661-0.056,0.783-0.036,1.271,0.206c0.429,0.213,0.592,0.363,0.8,0.742
		c0.231,0.421,0.265,0.594,0.288,1.502l0.026,1.025l-1.216,0.148c-2.467,0.301-3.799,0.66-5.093,1.373
		c-1.928,1.062-2.923,3.007-2.703,5.281c0.289,2.965,2.3,4.561,5.357,4.249c1.643-0.168,2.571-0.581,3.81-1.701
		c0.642-0.581,0.742-0.64,0.83-0.491c0.19,0.318,1.018,1.254,1.378,1.557c0.57,0.481,0.814,0.422,1.762-0.42
		c1.307-1.159,1.81-1.679,1.805-1.866c-0.003-0.098-0.229-0.467-0.501-0.821c-0.876-1.137-0.847-0.966-1.049-6.001
		c-0.186-4.607-0.203-4.759-0.659-5.6c-0.613-1.141-1.871-1.946-3.59-2.299C12.877,0.94,11.303,0.888,10.487,1.024 M11.465,10.459
		c-1.267,0.366-2.085,1.189-2.286,2.304c-0.243,1.35,0.338,2.625,1.333,2.925c0.744,0.225,1.83-0.17,2.385-0.867
		c0.387-0.483,0.77-1.371,0.871-2.011c0.05-0.317,0.079-1.03,0.064-1.585l-0.026-1.006l-0.854,0.028
		C12.481,10.263,11.817,10.357,11.465,10.459 M21.821,16.791c-0.884,0.192-1.874,0.748-1.993,1.12
		c-0.07,0.215-0.049,0.301,0.121,0.462c0.194,0.184,0.253,0.188,0.896,0.072c0.75-0.137,1.956-0.193,2.207-0.104
		c0.209,0.072,0.157,0.443-0.267,1.879c-0.361,1.228-0.338,1.423,0.18,1.462c0.627,0.047,1.597-1.479,1.864-2.929
		c0.228-1.23,0.114-1.714-0.446-1.932C23.878,16.625,22.646,16.611,21.821,16.791 M0.496,18.38
		c-0.276,0.321-0.101,0.614,0.787,1.322c3.713,2.952,6.453,4.192,9.652,4.366c3.2,0.175,7.287-1.035,10.124-2.995
		c1.128-0.777,1.328-1.121,0.929-1.587c-0.264-0.309-0.659-0.26-1.735,0.214c-3.082,1.358-6.899,2.141-9.475,1.938
		c-1.313-0.103-2.993-0.471-4.228-0.927c-1.034-0.382-3.497-1.513-4.645-2.133C1.076,18.13,0.75,18.084,0.496,18.38"/>
</g>
</svg>
