<?xml version="1.0" encoding="utf-8"?>
<!-- Generator: Adobe Illustrator 16.0.0, SVG Export Plug-In . SVG Version: 6.00 Build 0)  -->
<!DOCTYPE svg PUBLIC "-//W3C//DTD SVG 1.1//EN" "http://www.w3.org/Graphics/SVG/1.1/DTD/svg11.dtd">
<svg version="1.1" id="Calque_1" xmlns="http://www.w3.org/2000/svg" xmlns:xlink="http://www.w3.org/1999/xlink" x="0px" y="0px"
	 width="50px" height="50px" viewBox="0 0 50 50" enable-background="new 0 0 50 50" xml:space="preserve">
<path opacity="0" fill="#FC9C04" d="M4.8,0h40.4C47.852,0,50,2.149,50,4.8v40.4c0,2.651-2.148,4.8-4.8,4.8H4.8
	C2.149,50,0,47.852,0,45.2V4.8C0,2.149,2.149,0,4.8,0z"/>
<g transform="translate(12.5, 12.5)">
	<path fill="#FFFFFF" d="M10.788,0.975C8.615,1.279,6.913,2.205,6.002,3.576C5.343,4.569,4.996,5.881,5.32,6.15
		C5.399,6.216,6.194,6.36,7.086,6.469C8.944,6.697,8.938,6.699,9.17,5.878C9.235,5.646,9.448,5.28,9.643,5.065
		c0.514-0.568,1.015-0.793,1.881-0.842c0.662-0.038,0.784-0.015,1.265,0.239c0.424,0.224,0.583,0.379,0.782,0.763
		c0.219,0.427,0.248,0.601,0.248,1.509V7.76l-1.221,0.116c-2.474,0.236-3.815,0.56-5.127,1.238c-1.955,1.011-3.001,2.93-2.84,5.208
		c0.211,2.972,2.18,4.619,5.244,4.389c1.647-0.125,2.586-0.514,3.854-1.602c0.656-0.563,0.758-0.619,0.842-0.469
		c0.182,0.324,0.983,1.281,1.336,1.593c0.558,0.495,0.803,0.443,1.773-0.374c1.336-1.125,1.852-1.631,1.852-1.818
		c0-0.098-0.216-0.472-0.479-0.834c-0.846-1.159-0.82-0.988-0.891-6.027c-0.064-4.61-0.078-4.762-0.511-5.615
		c-0.585-1.157-1.821-1.994-3.53-2.392C13.18,0.954,11.608,0.86,10.788,0.975 M11.519,10.432c-1.276,0.333-2.115,1.135-2.345,2.244
		c-0.279,1.343,0.269,2.633,1.256,2.959c0.738,0.244,1.834-0.122,2.407-0.804c0.399-0.474,0.805-1.35,0.923-1.987
		c0.059-0.316,0.106-1.028,0.106-1.583v-1.007l-0.854,0.006C12.54,10.263,11.873,10.34,11.519,10.432 M21.705,17.034
		c-0.889,0.169-1.893,0.698-2.022,1.067c-0.075,0.213-0.056,0.3,0.11,0.465c0.189,0.189,0.247,0.195,0.893,0.096
		c0.753-0.117,1.96-0.143,2.209-0.047c0.207,0.079,0.145,0.448-0.316,1.871c-0.394,1.218-0.375,1.414,0.141,1.467
		c0.625,0.063,1.636-1.438,1.941-2.879c0.26-1.225,0.16-1.711-0.396-1.943C23.766,16.922,22.535,16.876,21.705,17.034 M0.345,18.063
		c-0.284,0.314-0.117,0.612,0.752,1.342c3.635,3.049,6.341,4.36,9.535,4.619c3.194,0.258,7.311-0.844,10.199-2.729
		c1.147-0.748,1.356-1.086,0.97-1.563c-0.256-0.315-0.652-0.277-1.74,0.169c-3.118,1.277-6.953,1.959-9.523,1.689
		c-1.309-0.137-2.979-0.549-4.202-1.037c-1.024-0.408-3.456-1.604-4.587-2.254C0.932,17.828,0.607,17.773,0.345,18.063"/>
</g>
</svg>
