<?xml version="1.0" encoding="utf-8"?>
<!-- Generator: Adobe Illustrator 16.0.0, SVG Export Plug-In . SVG Version: 6.00 Build 0)  -->
<!DOCTYPE svg PUBLIC "-//W3C//DTD SVG 1.1//EN" "http://www.w3.org/Graphics/SVG/1.1/DTD/svg11.dtd">
<svg version="1.1" id="Calque_1" xmlns="http://www.w3.org/2000/svg" xmlns:xlink="http://www.w3.org/1999/xlink" x="0px" y="0px"
	 width="50px" height="50px" viewBox="0 0 50 50" enable-background="new 0 0 50 50" xml:space="preserve">
<defs>
	<filter id="Adobe_OpacityMaskFilter" filterUnits="userSpaceOnUse" x="-2" y="-2" width="54" height="54">
		<feColorMatrix  type="matrix" values="1 0 0 0 0  0 1 0 0 0  0 0 1 0 0  0 0 0 1 0"/>
	</filter>
</defs>
<mask maskUnits="userSpaceOnUse" x="-2" y="-2" width="54" height="54" id="b">
	<g filter="url(#Adobe_OpacityMaskFilter)">
		<path id="a" fill="#FFFFFF" d="M4,0h42c2.209,0,4,1.791,4,4v42c0,2.209-1.791,4-4,4H4c-2.209,0-4-1.791-4-4V4C0,1.791,1.791,0,4,0
			z"/>
	</g>
</mask>
<g mask="url(#b)">
	<path opacity="0" fill="#F95B82" d="M4,0h42c2.209,0,4,1.791,4,4v42c0,2.209-1.791,4-4,4H4c-2.209,0-4-1.791-4-4V4
		C0,1.791,1.791,0,4,0z"/>
	<g>
		<path id="a_1_" fill="none" stroke="#FFFFFF" stroke-width="4" stroke-opacity="0.2" d="M4,0h42c2.209,0,4,1.791,4,4v42
			c0,2.209-1.791,4-4,4H4c-2.209,0-4-1.791-4-4V4C0,1.791,1.791,0,4,0z"/>
	</g>
	<path fill="#FFFFFF" d="M33.477,25.823c-3.604,0-6.524,2.95-6.524,6.589S29.872,39,33.477,39C37.08,39,40,36.051,40,32.412
		S37.079,25.823,33.477,25.823L33.477,25.823z M16.524,25.824c-3.603,0-6.524,2.949-6.524,6.588S12.921,39,16.524,39
		c3.604,0,6.525-2.949,6.525-6.588S20.128,25.824,16.524,25.824L16.524,25.824z M31.523,17.588c0,3.639-2.92,6.589-6.523,6.589
		c-3.603,0-6.524-2.95-6.524-6.589C18.476,13.95,21.396,11,25,11C28.604,11,31.523,13.95,31.523,17.588L31.523,17.588z"/>
</g>
</svg>
