<?xml version="1.0" encoding="utf-8"?>
<!-- Generator: Adobe Illustrator 16.0.0, SVG Export Plug-In . SVG Version: 6.00 Build 0)  -->
<!DOCTYPE svg PUBLIC "-//W3C//DTD SVG 1.1//EN" "http://www.w3.org/Graphics/SVG/1.1/DTD/svg11.dtd">
<svg version="1.1" id="Calque_1" xmlns="http://www.w3.org/2000/svg" xmlns:xlink="http://www.w3.org/1999/xlink" x="0px" y="0px"
	 width="50px" height="50px" viewBox="0 0 50 50" enable-background="new 0 0 50 50" xml:space="preserve">
<g>
	<path opacity="0" fill="#F68D11" d="M4,0h42c2.209,0,4,1.791,4,4v42c0,2.209-1.791,4-4,4H4c-2.209,0-4-1.791-4-4V4
		C0,1.791,1.791,0,4,0z"/>
	<path fill="#FFFFFF" d="M26.749,28.414l0.005,5.057l-3.507,1.012v-4.931L26.749,28.414z M27.662,33.471v-5.057l3.494,1.141
		l0.013,4.928L27.662,33.471z M30.455,35.018L27.188,36l-3.227-0.982l3.23-0.844L30.455,35.018z M35.58,28.414l0.004,5.057
		l-3.506,1.012v-4.931L35.58,28.414z M36.494,33.471v-5.057l3.494,1.141L40,34.482L36.494,33.471z M39.285,35.018L36.018,36
		l-3.226-0.982l3.229-0.844L39.285,35.018z M13.506,26.264L10,27.275v-4.932l3.502-1.138L13.506,26.264z M14.416,26.264v-5.057
		l3.494,1.141l0.012,4.927L14.416,26.264z M17.208,27.811l-3.268,0.982l-3.226-0.982l3.23-0.844L17.208,27.811z M22.333,21.207
		l0.004,5.057l-3.507,1.012v-4.931L22.333,21.207z M23.247,26.264v-5.057l3.495,1.141l0.013,4.927L23.247,26.264z M26.039,27.811
		l-3.268,0.982l-3.226-0.982l3.23-0.844L26.039,27.811z M17.918,14l0.004,5.058l-3.506,1.011v-4.931L17.918,14z M18.831,19.058V14
		l3.495,1.141l0.012,4.928L18.831,19.058z M21.624,20.603l-3.268,0.983l-3.226-0.983l3.23-0.843L21.624,20.603z"/>
</g>
</svg>
