<?xml version="1.0" encoding="utf-8"?>
<!-- Generator: Adobe Illustrator 16.0.0, SVG Export Plug-In . SVG Version: 6.00 Build 0)  -->
<!DOCTYPE svg PUBLIC "-//W3C//DTD SVG 1.1//EN" "http://www.w3.org/Graphics/SVG/1.1/DTD/svg11.dtd">
<svg version="1.1" id="Calque_1" xmlns="http://www.w3.org/2000/svg" xmlns:xlink="http://www.w3.org/1999/xlink" x="0px" y="0px"
	 width="50px" height="50px" viewBox="0 0 50 50" enable-background="new 0 0 50 50" xml:space="preserve">
<g>
	<path opacity="0" fill="#172B4D" d="M4,0h42c2.209,0,4,1.791,4,4v42c0,2.209-1.791,4-4,4H4c-2.209,0-4-1.791-4-4V4
		C0,1.791,1.791,0,4,0z"/>
	<path fill="#FEFEFE" d="M24.94,10.202L24.94,10.202L24.94,10.202c-7.118,0-12.931,1.899-12.931,4.257
		c0,0.621,1.552,9.528,2.168,13.06c0.276,1.584,4.401,3.906,10.759,3.906l0.007-0.02v0.02c6.359,0,10.483-2.322,10.759-3.906
		c0.615-3.532,2.168-12.439,2.168-13.06C37.871,12.102,32.059,10.202,24.94,10.202z M24.94,28.564c-2.27,0-4.11-1.826-4.11-4.08
		c0-2.253,1.84-4.079,4.11-4.079c2.271,0,4.11,1.826,4.11,4.079C29.051,26.738,27.211,28.564,24.94,28.564z M24.938,15.775
		c-4.574-0.007-8.28-0.796-8.278-1.762s3.71-1.743,8.284-1.735c4.573,0.007,8.279,0.796,8.278,1.762
		C33.221,15.006,29.512,15.783,24.938,15.775z M34.234,31.059c0.234,0,0.457,0.157,0.457,0.502c0,0.037-0.004,0.074-0.01,0.109
		c-0.494,2.625-0.855,4.488-0.919,4.771c-0.432,1.932-4.237,3.389-8.822,3.389l0,0h0c-4.583,0-8.39-1.457-8.821-3.389
		c-0.063-0.283-0.425-2.146-0.919-4.771c-0.007-0.035-0.01-0.072-0.01-0.109c0-0.345,0.223-0.502,0.458-0.502
		c0.196,0,0.354,0.139,0.354,0.139s3.184,2.502,8.939,2.503c5.754-0.001,8.94-2.503,8.94-2.503S34.037,31.059,34.234,31.059z
		 M24.937,26.528c-1.138,0-2.06-0.915-2.06-2.044s0.922-2.044,2.06-2.044s2.06,0.915,2.06,2.044S26.074,26.528,24.937,26.528z"/>
</g>
</svg>
