<?xml version="1.0" encoding="utf-8"?>
<!-- Generator: Adobe Illustrator 16.0.0, SVG Export Plug-In . SVG Version: 6.00 Build 0)  -->
<!DOCTYPE svg PUBLIC "-//W3C//DTD SVG 1.1//EN" "http://www.w3.org/Graphics/SVG/1.1/DTD/svg11.dtd">
<svg version="1.1" id="Calque_1" xmlns="http://www.w3.org/2000/svg" xmlns:xlink="http://www.w3.org/1999/xlink" x="0px" y="0px"
	 width="60px" height="60px" viewBox="0 0 60 60" enable-background="new 0 0 60 60" xml:space="preserve">
<g transform="translate(0.000000,280.000000) scale(0.100000,-0.100000)" opacity="0">
	<path fill="#010101" d="M147.349,2323.623c46.851,1.133,93.682,1.396,140.405-1.357c52.627,0.479,105.254,0.674,157.881,0.342
		c-12.402,94.316-5.752,190.859,7.012,284.844v70.278l-92.793-0.498c-51.143-0.249-109.004-0.996-128.462-1.245l-35.674-1.001
		v-39.663h-40.942C156.04,2531.362,151.641,2427.48,147.349,2323.623z M207.944,2566.474c5.488,30.435,24.946,53.882,52.134,63.608
		c18.96,6.738,53.379,5.986,70.84-1.743c13.467-5.991,29.688-19.956,37.168-31.934c29.189-47.393,2.49-143.926-56.367-204.795
		c-9.736-10.225-17.217-15.713-20.713-15.713c-10.972,0-37.915,17.207-37.915,23.945c0,2.246,5.239,8.984,11.475,14.971
		c12.227,11.973,24.199,34.912,22.954,43.906c-0.752,5.225-2.495,5.986-18.213,6.982c-9.482,0.742-20.952,3.242-25.195,5.488
		C218.921,2484.902,201.455,2531.054,207.944,2566.474z"/>
	<path fill="#010101" d="M281.528,2577.7c-7.231-7.979-6.235-35.171,1.748-49.639c7.729-14.219,17.461-18.462,25.2-10.474
		c13.223,12.969-1.25,65.352-17.969,65.352C288.262,2582.939,284.272,2580.693,281.528,2577.7z"/>
</g>
</svg>
