<?xml version="1.0" encoding="utf-8"?>
<!-- Generator: Adobe Illustrator 16.0.0, SVG Export Plug-In . SVG Version: 6.00 Build 0)  -->
<!DOCTYPE svg PUBLIC "-//W3C//DTD SVG 1.1//EN" "http://www.w3.org/Graphics/SVG/1.1/DTD/svg11.dtd">
<svg version="1.1" id="Calque_1" xmlns="http://www.w3.org/2000/svg" xmlns:xlink="http://www.w3.org/1999/xlink" x="0px" y="0px"
	 width="60px" height="60px" viewBox="0 0 60 60" enable-background="new 0 0 60 60" xml:space="preserve">
<g>
	<path fill="#F7F9F9" d="M47.415,28.075c-1.938-1.938-4.704-2.566-7.156-1.867c-0.428-4.333-4.091-7.727-8.524-7.727
		c-4.105,0-7.542,2.894-8.368,6.757c-2.708-0.869-5.788-0.228-7.94,1.925c-3.065,3.065-3.065,8.026,0,11.092
		c2.537,2.536,6.244,3.263,8.168,3.263h0.912h14.07c2.908,0.016,6.059-0.313,8.825-3.064C50.267,35.574,50.267,30.94,47.415,28.075z
		 M35.212,34.248c-0.57,0.97-2.622,4.007-3.62,4.007c-0.527,0-2.466-0.97-2.466-1.655c0-0.241,0.271-0.499,0.413-0.583
		c0.898-0.586,1.882-2.296,1.882-3.236c0-0.314-0.171-0.442-0.399-0.442c-0.299,0-0.612,0.071-0.912,0.071
		c-2.751,0-4.02-2.979-4.02-5.659c0-3.778,2.936-5.503,5.617-5.503c2.852,0,5.731,1.753,5.731,5.73
		C37.438,29.701,36.481,32.11,35.212,34.248L35.212,34.248z M31.563,24.726c-0.627,0-0.97,0.827-0.97,1.54
		c0,1.183,0.527,3.051,1.655,3.051c0.583,0,0.896-0.657,0.896-1.327C33.132,26.978,32.661,24.726,31.563,24.726L31.563,24.726z"/>
</g>
</svg>
