<?xml version="1.0" encoding="utf-8"?>
<!-- Generator: Adobe Illustrator 16.0.0, SVG Export Plug-In . SVG Version: 6.00 Build 0)  -->
<!DOCTYPE svg PUBLIC "-//W3C//DTD SVG 1.1//EN" "http://www.w3.org/Graphics/SVG/1.1/DTD/svg11.dtd">
<svg version="1.1" id="Calque_1" xmlns="http://www.w3.org/2000/svg" xmlns:xlink="http://www.w3.org/1999/xlink" x="0px" y="0px"
	 width="50px" height="50px" viewBox="0 0 50 50" enable-background="new 0 0 50 50" xml:space="preserve">
<g>
	<path opacity="0" d="M4,0h42c2.209,0,4,1.791,4,4v42c0,2.209-1.791,4-4,4H4c-2.209,0-4-1.791-4-4V4C0,1.791,1.791,0,4,0z"/>
	<path fill="#FFFFFF" d="M24.833,10c8.299,0,15,6.733,15,15c0,8.268-6.733,15-15,15c-6.967,0-12.867-4.768-14.5-11.268
		C10.3,28.7,10.3,28.633,10.3,28.566c0-0.4,0.333-0.732,0.733-0.732h6c0.3,0,0.534,0.199,0.667,0.434V28.3
		c1.267,2.7,4,4.567,7.133,4.567c4.367,0,7.867-3.5,7.867-7.867s-3.5-7.867-7.833-7.867C21.7,17.133,19,19,17.767,21.7v0.033
		C17.633,22,17.4,22.167,17.1,22.167h-6.067c-0.4,0-0.733-0.333-0.733-0.733c0-0.034,0-0.1,0.034-0.167
		C11.967,14.767,17.867,10,24.833,10z M24.833,21.434c1.966,0,3.567,1.6,3.567,3.566s-1.602,3.566-3.567,3.566
		c-1.967,0-3.567-1.601-3.567-3.566S22.867,21.434,24.833,21.434z"/>
</g>
</svg>
