<?xml version="1.0" encoding="utf-8"?>
<!-- Generator: Adobe Illustrator 16.0.0, SVG Export Plug-In . SVG Version: 6.00 Build 0)  -->
<!DOCTYPE svg PUBLIC "-//W3C//DTD SVG 1.1//EN" "http://www.w3.org/Graphics/SVG/1.1/DTD/svg11.dtd">
<svg version="1.1" id="Calque_1" xmlns="http://www.w3.org/2000/svg" xmlns:xlink="http://www.w3.org/1999/xlink" x="0px" y="0px"
	 width="60px" height="60px" viewBox="0 0 60 60" enable-background="new 0 0 60 60" xml:space="preserve">
<g opacity="0">
	<path fill="#F38020" d="M4.8,0h50.4C57.852,0,60,2.149,60,4.8v50.4c0,2.651-2.148,4.8-4.8,4.8H4.8C2.149,60,0,57.852,0,55.2V4.8
		C0,2.149,2.149,0,4.8,0z"/>
	<g transform="translate(15 24)">
		<path fill="#FFFFFF" d="M17.851,9.306c-0.528,0.003-1.056,0.006-1.584,0.009c-0.417,0.023-0.833,0.004-1.25,0.011
			c-0.061,0.001-0.124-0.013-0.183,0.013c-0.711,0.003-1.422,0.001-2.133,0.008c-1.4,0.016-2.8,0.034-4.2,0.052
			C8.467,9.398,8.433,9.396,8.399,9.399C8.279,9.408,8.097,9.562,8.115,9.658c0.025,0.139,0.159,0.143,0.268,0.146
			c0.333,0.013,0.666,0.018,0.999,0.021c1.846,0.019,3.692,0.036,5.538,0.054c0.039,0,0.079-0.006,0.118-0.01
			c0.337,0.032,0.675,0.005,1.012,0.015c0.141,0.005,0.281-0.013,0.422,0.011c0.492,0.002,0.986,0.006,1.479,0.008
			c0.315,0.031,0.63,0.005,0.945,0.015c0.096,0.003,0.192-0.012,0.286,0.01c0.389,0.065,0.752,0.188,1.063,0.435
			c0.281,0.223,0.44,0.511,0.505,0.853c0.024,0.056-0.006,0.118,0.024,0.173c0,0.059,0,0.117,0,0.176
			c-0.029,0.056-0.001,0.118-0.023,0.174c-0.095,0.358-0.188,0.717-0.285,1.074c-0.021,0.077-0.081,0.128-0.164,0.146
			c-0.061,0.021-0.123,0.011-0.186,0.011c-6.564,0.001-13.129,0.001-19.694,0.001c-0.062,0-0.125,0.008-0.186-0.009
			c-0.237-0.034-0.17-0.23-0.21-0.37C-0.003,12.523,0.033,12.449,0,12.384c0-0.146,0-0.292,0-0.438
			c0.034-0.077-0.003-0.161,0.024-0.238c0.032-0.551,0.192-1.075,0.459-1.552c0.7-1.251,1.772-2.032,3.231-2.292
			c0.061-0.01,0.121-0.023,0.181-0.037C3.952,7.8,4.018,7.832,4.073,7.801c0.358,0,0.357,0,0.3-0.307
			C4.308,7.15,4.33,6.809,4.398,6.468c0.142-0.701,0.503-1.283,1.045-1.755C5.946,4.275,6.55,4.051,7.219,3.984
			c0.18-0.015,0.359-0.016,0.54,0C8.32,4.05,8.854,4.196,9.33,4.507c0.083,0.054,0.12,0.062,0.169-0.063
			c0.29-0.736,0.684-1.412,1.216-2.018c0.625-0.71,1.36-1.272,2.218-1.687c0.707-0.341,1.453-0.566,2.239-0.657
			c0.072-0.008,0.144-0.025,0.215-0.038c0.057-0.024,0.122,0.006,0.176-0.024c0.077-0.003,0.153-0.005,0.23-0.008
			c0.248-0.018,0.495-0.016,0.742-0.001c0.088,0.003,0.176,0.006,0.263,0.01c0.057,0.029,0.122-0.001,0.179,0.024
			c0.888,0.119,1.74,0.349,2.533,0.762c0.57,0.297,1.094,0.658,1.566,1.091c0.994,0.914,1.651,2.011,1.982,3.299
			c0.042,0.163,0.014,0.29-0.045,0.431c-0.199,0.488-0.375,0.985-0.595,1.464c-0.386,0.836-1.038,1.433-1.872,1.849
			c-0.396,0.198-0.818,0.314-1.266,0.34c-0.416,0.023-0.832,0.004-1.249,0.011C17.973,9.293,17.91,9.279,17.851,9.306"/>
		<path fill="#FFFFFF" fill-opacity="0.7" d="M26.439,9.314c-0.1-0.003-0.199-0.006-0.299-0.008
			c-0.102-0.037-0.209,0.005-0.312-0.025c-0.101-0.002-0.2-0.005-0.3-0.008c-0.113-0.036-0.231,0.005-0.344-0.025
			c-0.111-0.002-0.222-0.005-0.332-0.008c-0.079-0.033-0.165,0.002-0.244-0.023c-0.583-0.061-1.053-0.313-1.388-0.781
			c-0.134-0.188-0.175-0.412-0.181-0.639c-0.016-0.086-0.016-0.173,0-0.26c0.021-0.487,0.244-0.927,0.354-1.394
			c0.037-0.156,0.11-0.301,0.141-0.461c0.027-0.144,0.124-0.217,0.285-0.213c0.201,0.006,0.404,0.001,0.607,0.001
			c0.067,0.031,0.143-0.002,0.211,0.024c0.785,0.092,1.534,0.297,2.231,0.663c1.007,0.529,1.794,1.274,2.366,2.236
			c0.412,0.692,0.634,1.442,0.732,2.229c0.027,0.066-0.008,0.141,0.025,0.205c0,0.17,0,0.339,0,0.508
			c-0.033,0.064,0.002,0.138-0.025,0.203c-0.063,0.385-0.141,0.768-0.236,1.146c-0.029,0.118-0.092,0.152-0.195,0.159
			c-0.033,0.003-0.068,0.001-0.102,0.001c-2.671,0-5.342,0-8.012,0c-0.236,0-0.239-0.014-0.201-0.244
			c0.141-0.857,0.657-1.471,1.34-1.988c0.463-0.351,0.974-0.581,1.545-0.693c0.164-0.032,0.334-0.04,0.501-0.059
			c0.113-0.029,0.231,0.012,0.345-0.025c0.1-0.002,0.199-0.005,0.3-0.008c0.112-0.029,0.231,0.012,0.345-0.025
			c0.1-0.002,0.199-0.005,0.299-0.008c0.113-0.03,0.232,0.014,0.346-0.023c0.1-0.004,0.199-0.006,0.299-0.009
			c0.113-0.03,0.232,0.012,0.345-0.024c0.159-0.002,0.201-0.134,0.265-0.234c0.024-0.039-0.023-0.073-0.065-0.098
			c-0.104-0.059-0.213-0.087-0.333-0.067C26.65,9.303,26.541,9.344,26.439,9.314"/>
	</g>
</g>
</svg>
