<?xml version="1.0" encoding="utf-8"?>
<!-- Generator: Adobe Illustrator 16.0.0, SVG Export Plug-In . SVG Version: 6.00 Build 0)  -->
<!DOCTYPE svg PUBLIC "-//W3C//DTD SVG 1.1//EN" "http://www.w3.org/Graphics/SVG/1.1/DTD/svg11.dtd">
<svg version="1.1" id="Calque_1" xmlns="http://www.w3.org/2000/svg" xmlns:xlink="http://www.w3.org/1999/xlink" x="0px" y="0px"
	 width="60px" height="60px" viewBox="0 0 60 60" enable-background="new 0 0 60 60" xml:space="preserve">
<g opacity="0">
	<path fill="#E03997" d="M4.8,0h50.4C57.852,0,60,2.149,60,4.8v50.4c0,2.651-2.148,4.8-4.8,4.8H4.8C2.149,60,0,57.852,0,55.2V4.8
		C0,2.149,2.149,0,4.8,0z"/>
	<path fill="#FFFFFF" d="M40.611,18.263C37.783,15.514,34.023,14,30.011,14c-8.269,0.005-15,6.553-15.006,14.595L15,31.066
		l1.976-1.31c1.344-0.89,2.9-1.36,4.502-1.36c0.478,0,0.961,0.042,1.435,0.126c1.493,0.265,2.832,0.922,3.916,1.909
		c0.249-0.532,0.541-1.049,0.886-1.542c0.142-0.202,0.292-0.396,0.446-0.586c-1.366-1.121-3.006-1.875-4.796-2.192
		c-0.625-0.11-1.26-0.166-1.889-0.166c-1.304,0-2.574,0.232-3.784,0.691c0.98-5.835,6.193-10.181,12.332-10.185
		c3.327,0,6.454,1.259,8.806,3.545c1.877,1.824,3.077,4.104,3.491,6.62c-1.21-0.459-2.485-0.695-3.798-0.7l-0.184-0.001
		c-0.134,0.002-0.268,0.005-0.398,0.013c-0.229,0.011-0.456,0.032-0.682,0.057c-0.067,0.007-0.133,0.017-0.2,0.026
		c-0.161,0.021-0.322,0.045-0.481,0.072c-0.07,0.013-0.141,0.026-0.211,0.04c-0.162,0.032-0.322,0.068-0.482,0.107
		c-0.057,0.014-0.115,0.028-0.172,0.042c-0.201,0.053-0.4,0.111-0.597,0.175c-0.012,0.004-0.024,0.007-0.036,0.011
		c-0.445,0.147-0.877,0.325-1.295,0.529c-0.012,0.006-0.023,0.012-0.035,0.017c-0.195,0.097-0.387,0.2-0.574,0.308
		c-0.016,0.009-0.031,0.018-0.047,0.027c-0.987,0.575-1.87,1.313-2.613,2.193c-0.031,0.036-0.062,0.072-0.093,0.109
		c-0.161,0.197-0.318,0.397-0.466,0.608c-0.125,0.179-0.242,0.362-0.354,0.546c-0.025,0.042-0.051,0.085-0.076,0.127
		c-0.103,0.174-0.201,0.351-0.292,0.528c-0.005,0.011-0.011,0.02-0.016,0.03c-0.212,0.417-0.393,0.847-0.543,1.284c0,0,0,0,0,0.001
		v0.001c-0.369,1.073-0.547,2.199-0.529,3.339c0,0.045,0,0.091,0.002,0.136c0.002,0.088,0.007,0.178,0.012,0.266
		c0.004,0.071,0.009,0.142,0.014,0.212c0.005,0.075,0.012,0.15,0.02,0.226c0.009,0.092,0.021,0.183,0.032,0.274
		c0.007,0.058,0.014,0.116,0.023,0.175c0.022,0.152,0.047,0.305,0.077,0.457c0.508,2.612,2.023,4.891,4.265,6.415l0.286,0.178
		l0.003-0.005c1.273,0.805,2.734,1.332,4.246,1.531L37.329,46l1.521-2.372l-0.547-0.015c-4.207-0.111-7.629-3.531-7.629-7.623
		c0-4.025,3.237-7.37,7.369-7.612l0.261-0.01c1.675-0.042,3.325,0.439,4.726,1.366l1.967,1.301L45,28.578
		C45.003,24.68,43.445,21.017,40.611,18.263"/>
</g>
</svg>
