<?xml version="1.0" encoding="utf-8"?>
<!-- Generator: Adobe Illustrator 16.0.0, SVG Export Plug-In . SVG Version: 6.00 Build 0)  -->
<!DOCTYPE svg PUBLIC "-//W3C//DTD SVG 1.1//EN" "http://www.w3.org/Graphics/SVG/1.1/DTD/svg11.dtd">
<svg version="1.1" id="Calque_1" xmlns="http://www.w3.org/2000/svg" xmlns:xlink="http://www.w3.org/1999/xlink" x="0px" y="0px"
	 width="60px" height="60px" viewBox="0 0 60 60" enable-background="new 0 0 60 60" xml:space="preserve">
<g transform="translate(0.000000,1500.000000) scale(0.100000,-0.100000)" opacity="0">
	<path fill="#010101" d="M34.365,14704.17v-260.635h260.64h260.64v260.635v260.639h-260.64H34.365V14704.17z M299.033,14877.617
		c2.256-0.729,7.432-2.398,11.436-3.648c4.023-1.289,7.92-2.539,8.691-2.813c0.762-0.244,4.688-1.533,8.682-2.783
		c4.033-1.289,8.623-2.783,10.254-3.301c1.631-0.521,5.518-1.771,8.682-2.783c3.164-1.006,7.061-2.221,8.691-2.777
		c1.641-0.523,5.527-1.773,8.691-2.779c3.164-1.01,7.051-2.26,8.691-2.783c1.621-0.557,6.25-2.012,10.244-3.301
		c4.033-1.283,8.408-2.676,9.736-3.125c1.348-0.453,5.732-1.846,9.727-3.096c4.033-1.283,7.93-2.533,8.691-2.813
		c0.762-0.244,4.688-1.533,8.691-2.783c4.023-1.283,8.613-2.777,10.244-3.301c1.631-0.518,5.527-1.771,8.682-2.777
		c3.164-1.012,7.549-2.398,9.736-3.131l3.994-1.283l0.107-9.869c0.176-14.492-1.25-45.527-2.705-60.088
		c-0.703-6.846-0.938-9.902-0.801-10.146c0.068-0.176,6.465-0.277,14.209-0.277h14.033v-0.836c0-0.449-0.195-1.982-0.479-3.402
		c-0.283-1.393-0.596-4.033-0.732-5.84s-0.381-3.443-0.518-3.648c-0.176-0.176-0.352-0.732-0.42-1.215l-0.098-0.869l-29.375-0.104
		c-37.324-0.107-68.672,0.381-73.32,1.143c-5.391,0.904-8.203,2.018-11.885,4.762c-8.857,6.533-14.492,19.32-13.174,29.854
		c0.625,4.828,3.262,14.248,4.277,15.15c0.723,0.66,3.164,1.148,12.363,2.539c3.691,0.557,6.953,1.182,7.236,1.426
		c0.869,0.693,2.393,4.029,3.545,7.607c1.602,4.971,1.66,5.459,0.693,5.732c-1.25,0.352-14.736,4.658-17.48,5.563
		c-1.318,0.414-5.01,1.596-8.164,2.572c-3.164,1.006-6.357,2.012-7.119,2.295c-0.771,0.244-3.965,1.285-7.129,2.256
		c-3.164,1.006-7.051,2.262-8.691,2.783c-1.631,0.553-5.527,1.807-8.691,2.779c-3.164,1.006-6.807,2.188-8.164,2.607
		c-1.318,0.449-5.244,1.703-8.691,2.777c-3.433,1.08-7.329,2.33-8.682,2.779c-5.283,1.738-8.55,2.68-8.687,2.539
		c-0.42-0.416,4.097-10.078,6.289-13.482c1.284-1.982,1.772-2.436,3.511-3.197c1.108-0.523,2.954-1.357,4.097-1.842
		c1.147-0.527,3.267-1.465,4.692-2.09s3.613-1.596,4.873-2.152c1.25-0.592,3.984-1.807,6.074-2.711
		c2.119-0.902,4.824-2.119,6.084-2.709c1.25-0.557,3.438-1.529,4.863-2.154c2.334-1.01,4.482-1.982,7.891-3.51
		c0.596-0.279,1.25-0.488,1.494-0.488c0.869,0-0.107-0.693-1.328-0.904c-6.387-1.113-33.11-8.027-33.843-8.76
		c-0.693-0.693,5.112-7.5,8.862-10.391c2.227-1.699,2.363-1.732,6.152-0.693c2.637,0.732,9.141,2.471,13.867,3.721
		c2.188,0.557,4.063,0.973,4.131,0.869c0.068-0.068-0.244-0.801-0.693-1.635c-0.488-0.836-1.387-2.432-2.012-3.58
		c-2.363-4.307-7.93-12.373-10.918-15.844c-4.375-5.074-5.625-6.432-8.721-9.453c-16.436-16.299-37.983-27.871-60.469-32.529
		c-8.374-1.705-16.436-2.467-27.246-2.5c-3.96,0-8.931-0.143-11.084-0.279c-3.647-0.277-4.033-0.381-5.215-1.318
		c-2.534-2.094-2.08-3.266,2.402-6.02c5.908-3.613,11.221-9.512,13.76-15.215c3.13-6.992,2.92-9.941-1.006-13.936
		c-1.914-1.982-50.078-38.262-50.776-38.262c-0.591,0-5.869,10.879-8.789,18.037c-3.892,9.521-8.169,22.207-10.391,30.781
		c-0.244,0.977-0.801,2.988-1.216,4.531c-0.386,1.523-0.869,3.398-1.045,4.16c-0.137,0.762-0.869,3.965-1.563,7.129
		s-1.494,6.914-1.738,8.34c-0.278,1.426-0.801,4.34-1.182,6.43c-1.147,6.289-2.188,13.135-3.301,22.066
		c-1.426,11.293-2.71,24.496-3.164,32.666c-0.103,2.016-0.347,5.697-0.557,8.168c-0.381,5.283-1.353,35.586-1.353,42.848
		c0,3.646,0.103,5.004,0.449,5.107c0.21,0.072,3.232,1.01,6.675,2.084c3.438,1.08,7.368,2.33,8.687,2.783
		c1.357,0.449,5.732,1.842,9.731,3.125c4.033,1.25,8.618,2.744,10.254,3.268c1.631,0.557,5.522,1.807,8.687,2.816
		c3.159,0.973,7.056,2.223,8.687,2.779c1.631,0.521,5.527,1.771,8.687,2.777c3.164,1.012,7.056,2.262,8.691,2.783
		c1.631,0.518,5.522,1.773,8.687,2.779c3.164,1.01,7.056,2.26,8.687,2.777c1.636,0.557,5.142,1.705,7.817,2.539
		c8.066,2.574,19.292,6.152,22.417,7.193c1.636,0.521,5.527,1.771,8.687,2.783c3.164,1.006,7.056,2.26,8.691,2.777
		c1.631,0.523,6.255,2.018,10.249,3.301c4.033,1.289,8.413,2.711,9.731,3.164c1.357,0.416,2.744,0.801,3.164,0.801
		C294.551,14878.975,296.738,14878.383,299.033,14877.617z M107.935,14790.287c-0.103-0.244-0.176-0.068-0.176,0.416
		c0,0.488,0.073,0.658,0.176,0.453C108.003,14790.912,108.003,14790.492,107.935,14790.287z M444.258,14715.746
		c-0.859-5.111-3.506-17.475-5-23.393c-7.021-27.617-15.742-48.408-29.473-70.127c-8.896-14.102-18.145-25.508-31.348-38.643
		c-11.953-11.924-21.895-20.127-35.479-29.268c-13.311-8.965-28.916-17.334-41.875-22.52c-6.67-2.637-6.743-2.676-9.277-1.729
		c-12.129,4.307-30.547,13.857-44.761,23.213c-4.312,2.852-13.726,9.521-14.248,10.146c-0.103,0.107-1.182,0.967-2.432,1.904
		c-13.208,10.059-28.706,25.723-39.863,40.215l-4.204,5.449l-5.352-3.848c-2.92-2.129-6.011-4.346-6.88-4.971
		c-0.869-0.596-3.545-2.539-5.977-4.277c-2.437-1.768-4.59-3.193-4.8-3.193c-0.171,0-0.347,0.234-0.347,0.518
		s-0.103,0.518-0.278,0.518c-0.137,0-0.625,0.703-1.108,1.563c-0.488,0.879-0.977,1.563-1.113,1.563
		c-0.103,0-0.313,0.293-0.415,0.625c-0.107,0.322-1.221,2.168-2.471,4.082c-1.25,1.904-2.222,3.643-2.188,3.887
		c0.068,0.205,4.863,3.789,10.703,7.949c5.84,4.141,11.504,8.203,12.578,8.965c1.113,0.801,4.727,3.379,8.101,5.781
		c3.369,2.393,7.09,5.039,8.267,5.869c1.182,0.869,9.282,6.631,17.969,12.861c8.687,6.211,18.003,12.715,20.679,14.453
		c4.932,3.232,15.742,9.736,20.156,12.129c1.353,0.732,3.267,1.807,4.307,2.393c3.687,2.012,19.912,9.98,20.366,9.98
		c0.068,0,1.182,0.488,2.5,1.074c3.477,1.523,3.511,1.563,6.362,2.744c4.448,1.846,11.953,4.795,14.106,5.527
		c1.152,0.381,3.857,1.318,6.055,2.051c3.496,1.221,7.148,2.393,12.5,4.072c3.027,0.938,14.463,3.926,17.9,4.688
		c1.914,0.41,3.965,0.898,4.521,1.035c0.586,0.176,1.973,0.488,3.125,0.732c1.152,0.205,3.203,0.596,4.512,0.869
		c5.117,1.045,16.934,2.92,22.246,3.617c16.953,2.08,27.832,2.676,52.402,2.744l19.746,0.035L444.258,14715.746z"/>
</g>
</svg>
