<?xml version="1.0" encoding="utf-8"?>
<!-- Generator: Adobe Illustrator 16.0.0, SVG Export Plug-In . SVG Version: 6.00 Build 0)  -->
<!DOCTYPE svg PUBLIC "-//W3C//DTD SVG 1.1//EN" "http://www.w3.org/Graphics/SVG/1.1/DTD/svg11.dtd">
<svg version="1.1" id="Calque_1" xmlns="http://www.w3.org/2000/svg" xmlns:xlink="http://www.w3.org/1999/xlink" x="0px" y="0px"
	 width="60px" height="60px" viewBox="0 0 60 60" enable-background="new 0 0 60 60" xml:space="preserve">
<g>
	<path fill="#FFFFFF" d="M31.949,22.145c-0.148-0.609-0.271-0.876-0.488-0.896c-0.34-0.032-0.697,0.088-0.941,0.131
		c-0.909,0.164-1.397,0.056-1.931-0.514c-0.332-0.355-0.129-0.313,0.676-0.448c0.487-0.083,0.823-0.173,1.159-0.318
		c0.513-0.28,0.33-0.636-0.241-0.909c-0.431-0.207-2.218-0.199-3.367-0.176c-1.165,0.025-2.311,0.074-2.995-0.521
		c0.659,0.121,1.461,0.124,1.995,0.095c1.76-0.098,3.097-0.207,4.356-0.119c1.102,0.075,2.35,0.426,3.605,0.744
		c1.229,0.309,2.624,0.524,2.917,0.534c0.314,0.006,0.111,1.57-0.615,1.792c-0.821,0.192-1.616,0.176-2.12,0.451
		c-0.718,0.387,0.249,2.588,0.559,3.118c0.089,0.156,0.381,0.722,0.851,1.088c0.241,0.185,0.826,0.582,1.416,0.626
		c2.841,0.22,9.462,0.175,9.915,0.426c0.241,0.136-1.864,0.727-1.864,0.727s-7.143,0.037-10.185,0.656
		c-3.035,0.62-6.937,2.067-9.315,3.815c-8.818,6.49-12.091,9.486-12.053,9.082c0.043-0.453,0.087-1.232,0.159-1.498
		c0.098-0.367,0.533,0.268,8.86-7.844c1.007-0.984,0.055-1.805-0.986-2.003c-1.233-0.275-3.359-1.206-2.025-1.047
		c0.755,0.05,4.576,1.188,11.791-4.415C32.044,23.974,32.082,22.681,31.949,22.145z"/>
</g>
</svg>
