<?xml version="1.0" encoding="utf-8"?>
<!-- Generator: Adobe Illustrator 16.0.0, SVG Export Plug-In . SVG Version: 6.00 Build 0)  -->
<!DOCTYPE svg PUBLIC "-//W3C//DTD SVG 1.1//EN" "http://www.w3.org/Graphics/SVG/1.1/DTD/svg11.dtd">
<svg version="1.1" id="Calque_1" xmlns="http://www.w3.org/2000/svg" xmlns:xlink="http://www.w3.org/1999/xlink" x="0px" y="0px"
	 width="60px" height="60px" viewBox="0 0 60 60" enable-background="new 0 0 60 60" xml:space="preserve">
<g transform="translate(0,1)" opacity="0.2">
	<path fill="#FDFDFE" d="M17.299,35.85h4v2h-4V35.85z"/>
	<path fill="#FDFDFE" d="M17.299,32.85h4v2h-4V32.85z"/>
	<path fill="#FDFDFE" d="M17.299,29.85h4v2h-4V29.85z"/>
	<path fill="#FDFDFE" d="M17.299,26.851h4v2h-4V26.851z"/>
	<path fill="#FDFDFE" d="M17.299,23.851h4v2h-4V23.851z"/>
	<path fill="#FDFDFE" d="M22.299,35.85h4v2h-4V35.85z"/>
	<path fill="#FDFDFE" d="M22.299,32.85h4v2h-4V32.85z"/>
	<path fill="#FDFDFE" d="M22.299,29.85h4v2h-4V29.85z"/>
	<path fill="#FDFDFE" d="M27.299,35.85h4v2h-4V35.85z"/>
	<path fill="#FDFDFE" d="M27.299,32.85h4v2h-4V32.85z"/>
	<path fill="#FDFDFE" d="M27.299,29.85h4v2h-4V29.85z"/>
	<path fill="#FDFDFE" d="M27.299,26.851h4v2h-4V26.851z"/>
	<path fill="#FDFDFE" d="M27.299,23.851h4v2h-4V23.851z"/>
	<path fill="#FDFDFE" d="M27.299,20.851h4v2h-4V20.851z"/>
	<path fill="#FDFDFE" d="M32.299,35.85h4v2h-4V35.85z"/>
	<path fill="#FDFDFE" d="M32.299,32.85h4v2h-4V32.85z"/>
	<path fill="#FDFDFE" d="M32.299,29.85h4v2h-4V29.85z"/>
	<path fill="#FDFDFE" d="M32.299,26.851h4v2h-4V26.851z"/>
	<path fill="#FDFDFE" d="M32.299,23.851h4v2h-4V23.851z"/>
	<path fill="#FDFDFE" d="M37.299,35.85h4v2h-4V35.85z"/>
	<path fill="#FDFDFE" d="M37.299,32.85h4v2h-4V32.85z"/>
	<path fill="#FDFDFE" d="M37.299,29.85h4v2h-4V29.85z"/>
	<path fill="#FDFDFE" d="M37.299,26.851h4v2h-4V26.851z"/>
	<path fill="#FDFDFE" d="M37.299,23.851h4v2h-4V23.851z"/>
	<path fill="#FDFDFE" d="M37.299,20.984h4v1.867h-4V20.984z"/>
	<path fill="#FDFDFE" d="M37.299,17.851h4v2h-4V17.851z"/>
</g>
<g>
	<path fill="#FDFDFE" d="M17.299,35.85h4v2h-4V35.85z"/>
	<path fill="#FDFDFE" d="M17.299,32.85h4v2h-4V32.85z"/>
	<path fill="#FDFDFE" d="M17.299,29.851h4v1.999h-4V29.851z"/>
	<path fill="#FDFDFE" d="M17.299,26.851h4v2h-4V26.851z"/>
	<path fill="#FDFDFE" d="M17.299,23.851h4v2h-4V23.851z"/>
	<path fill="#FDFDFE" d="M22.299,35.85h4v2h-4V35.85z"/>
	<path fill="#FDFDFE" d="M22.299,32.85h4v2h-4V32.85z"/>
	<path fill="#FDFDFE" d="M22.299,29.851h4v1.999h-4V29.851z"/>
	<path fill="#FDFDFE" d="M27.299,35.85h4v2h-4V35.85z"/>
	<path fill="#FDFDFE" d="M27.299,32.85h4v2h-4V32.85z"/>
	<path fill="#FDFDFE" d="M27.299,29.851h4v1.999h-4V29.851z"/>
	<path fill="#FDFDFE" d="M27.299,26.851h4v2h-4V26.851z"/>
	<path fill="#FDFDFE" d="M27.299,23.851h4v2h-4V23.851z"/>
	<path fill="#FDFDFE" d="M27.299,20.851h4v2h-4V20.851z"/>
	<path fill="#FDFDFE" d="M32.299,35.85h4v2h-4V35.85z"/>
	<path fill="#FDFDFE" d="M32.299,32.85h4v2h-4V32.85z"/>
	<path fill="#FDFDFE" d="M32.299,29.851h4v1.999h-4V29.851z"/>
	<path fill="#FDFDFE" d="M32.299,26.851h4v2h-4V26.851z"/>
	<path fill="#FDFDFE" d="M32.299,23.851h4v2h-4V23.851z"/>
	<path fill="#FDFDFE" d="M37.299,35.85h4v2h-4V35.85z"/>
	<path fill="#FDFDFE" d="M37.299,32.85h4v2h-4V32.85z"/>
	<path fill="#FDFDFE" d="M37.299,29.851h4v1.999h-4V29.851z"/>
	<path fill="#FDFDFE" d="M37.299,26.851h4v2h-4V26.851z"/>
	<path fill="#FDFDFE" d="M37.299,23.851h4v2h-4V23.851z"/>
	<path fill="#FDFDFE" d="M37.299,20.984h4v1.867h-4V20.984z"/>
	<path fill="#FDFDFE" d="M37.299,17.851h4v2h-4V17.851z"/>
</g>
</svg>
