<?xml version="1.0" encoding="utf-8"?>
<!-- Generator: Adobe Illustrator 16.0.0, SVG Export Plug-In . SVG Version: 6.00 Build 0)  -->
<!DOCTYPE svg PUBLIC "-//W3C//DTD SVG 1.1//EN" "http://www.w3.org/Graphics/SVG/1.1/DTD/svg11.dtd">
<svg version="1.1" id="Calque_1" xmlns="http://www.w3.org/2000/svg" xmlns:xlink="http://www.w3.org/1999/xlink" x="0px" y="0px"
	 width="60px" height="60px" viewBox="0 0 60 60" enable-background="new 0 0 60 60" xml:space="preserve">
<g id="XMLID_229_">
	<g id="XMLID_690_">
		<g id="XMLID_691_">
			<g>
				<g id="XMLID_44_">
					<g id="XMLID_48_">
						<path id="XMLID_49_" fill="#FFFFFF" d="M30.001,43.794v-5.349c5.663,0,10.057-5.615,7.883-11.575
							c-0.797-2.19-2.564-3.958-4.771-4.755c-5.959-2.159-11.575,2.221-11.575,7.883l0,0h-5.333c0-9.025,8.728-16.064,18.19-13.108
							c4.13,1.298,7.43,4.583,8.713,8.712C46.065,35.066,39.027,43.794,30.001,43.794z"/>
					</g>
					<polygon id="XMLID_47_" fill="#FFFFFF" points="30.018,38.477 24.684,38.477 24.684,33.143 24.684,33.143 30.018,33.143 
						30.018,33.143 					"/>
					<polygon id="XMLID_46_" fill="#FFFFFF" points="24.684,42.559 20.601,42.559 20.601,42.559 20.601,38.477 24.684,38.477 					
						"/>
					<path id="XMLID_45_" fill="#FFFFFF" d="M20.601,38.477h-3.425l0,0v-3.426l0,0h3.425l0,0V38.477z"/>
				</g>
			</g>
		</g>
	</g>
</g>
</svg>
