<?xml version="1.0" encoding="utf-8"?>
<!-- Generator: Adobe Illustrator 16.0.0, SVG Export Plug-In . SVG Version: 6.00 Build 0)  -->
<!DOCTYPE svg PUBLIC "-//W3C//DTD SVG 1.1//EN" "http://www.w3.org/Graphics/SVG/1.1/DTD/svg11.dtd">
<svg version="1.1" id="Calque_1" xmlns="http://www.w3.org/2000/svg" xmlns:xlink="http://www.w3.org/1999/xlink" x="0px" y="0px"
	 width="50px" height="50px" viewBox="0 0 50 50" enable-background="new 0 0 50 50" xml:space="preserve">
<g>
	<path opacity="0" fill="#7289DA" d="M4,0h42c2.209,0,4,1.791,4,4v42c0,2.209-1.791,4-4,4H4c-2.209,0-4-1.791-4-4V4
		C0,1.791,1.791,0,4,0z"/>
	<g transform="translate(11 10)">
		<path fill="#FFFFFF" d="M10.311,12.585c-0.847,0-1.516,0.75-1.516,1.665s0.684,1.665,1.516,1.665c0.847,0,1.515-0.75,1.515-1.665
			C11.841,13.335,11.158,12.585,10.311,12.585z M15.734,12.585c-0.848,0-1.516,0.75-1.516,1.665s0.684,1.665,1.516,1.665
			c0.846,0,1.515-0.75,1.515-1.665S16.58,12.585,15.734,12.585z"/>
		<path fill="#FFFFFF" d="M22.954,0H3.046C1.367,0,0,1.38,0,3.09v20.28c0,1.71,1.367,3.09,3.046,3.09h16.848l-0.787-2.774
			l1.901,1.784l1.798,1.681L26,30V3.09C26,1.38,24.633,0,22.954,0z M17.219,19.59c0,0-0.534-0.645-0.98-1.215
			c1.947-0.555,2.689-1.785,2.689-1.785c-0.609,0.405-1.188,0.69-1.709,0.885C16.477,17.79,15.764,18,15.064,18.12
			c-1.426,0.271-2.733,0.194-3.847-0.015C10.37,17.939,9.642,17.7,9.033,17.46c-0.342-0.135-0.713-0.3-1.084-0.51
			c-0.045-0.03-0.089-0.045-0.134-0.075c-0.03-0.016-0.044-0.03-0.06-0.045c-0.268-0.15-0.416-0.255-0.416-0.255s0.713,1.2,2.6,1.77
			c-0.446,0.57-0.996,1.245-0.996,1.245c-3.283-0.105-4.531-2.279-4.531-2.279c0-4.831,2.139-8.746,2.139-8.746
			c2.14-1.62,4.175-1.575,4.175-1.575l0.148,0.18C8.201,7.95,6.968,9.135,6.968,9.135S7.295,8.955,7.845,8.7
			c1.589-0.705,2.853-0.9,3.373-0.945c0.089-0.015,0.163-0.03,0.252-0.03c0.906-0.12,1.932-0.15,3.001-0.03
			c1.412,0.165,2.928,0.585,4.473,1.44c0,0-1.174-1.125-3.699-1.905l0.207-0.24c0,0,2.035-0.045,4.176,1.575
			c0,0,2.139,3.915,2.139,8.746C21.766,17.311,20.503,19.484,17.219,19.59L17.219,19.59z"/>
	</g>
</g>
</svg>
