<?xml version="1.0" encoding="utf-8"?>
<!-- Generator: Adobe Illustrator 16.0.0, SVG Export Plug-In . SVG Version: 6.00 Build 0)  -->
<!DOCTYPE svg PUBLIC "-//W3C//DTD SVG 1.1//EN" "http://www.w3.org/Graphics/SVG/1.1/DTD/svg11.dtd">
<svg version="1.1" id="Calque_1" xmlns="http://www.w3.org/2000/svg" xmlns:xlink="http://www.w3.org/1999/xlink" x="0px" y="0px"
	 width="50px" height="50px" viewBox="0 0 50 50" enable-background="new 0 0 50 50" xml:space="preserve">
<g opacity="0">
	<path fill="#007EE5" d="M4,0h42c2.209,0,4,1.791,4,4v42c0,2.209-1.791,4-4,4H4c-2.209,0-4-1.791-4-4V4C0,1.791,1.791,0,4,0z"/>
	<path fill="#FFFFFF" d="M18.825,11L25,16.172l-8.897,5.513L10,16.782L18.825,11z M10,26.589l6.102-4.904L25,27.199l-6.175,5.172
		L10,26.589z M25,27.199l8.898-5.514L40,26.589l-8.825,5.782L25,27.199z M40,16.782l-6.102,4.903L25,16.172L31.176,11L40,16.782z
		 M25.018,28.312l6.193,5.157l2.65-1.736v1.946L25.018,39l-8.843-5.321v-1.946l2.65,1.736L25.018,28.312z"/>
</g>
</svg>
