<?xml version="1.0" encoding="utf-8"?>
<!-- Generator: Adobe Illustrator 16.0.0, SVG Export Plug-In . SVG Version: 6.00 Build 0)  -->
<!DOCTYPE svg PUBLIC "-//W3C//DTD SVG 1.1//EN" "http://www.w3.org/Graphics/SVG/1.1/DTD/svg11.dtd">
<svg version="1.1" id="Calque_1" xmlns="http://www.w3.org/2000/svg" xmlns:xlink="http://www.w3.org/1999/xlink" x="0px" y="0px"
	 width="50px" height="50px" viewBox="0 0 50 50" enable-background="new 0 0 50 50" xml:space="preserve">
<g>
	<path opacity="0" fill="#7AC143" d="M4,0h42c2.209,0,4,1.791,4,4v42c0,2.209-1.791,4-4,4H4c-2.209,0-4-1.791-4-4V4
		C0,1.791,1.791,0,4,0z"/>
	<path fill="#FFFFFF" d="M14.597,15.811h2.918c0.167,0,0.301-0.131,0.302-0.292c0-0.001-0.036-2.414-0.036-3.085v-0.008
		c0-0.551,0.12-1.031,0.329-1.434l0.1-0.181c-0.013,0.002-0.024,0.009-0.033,0.018l-5.667,5.425c-0.01,0.008-0.018,0.02-0.021,0.032
		c0.117-0.056,0.277-0.133,0.3-0.142C13.282,15.928,13.881,15.811,14.597,15.811L14.597,15.811z M37.291,15.22
		c-0.231-1.197-0.969-1.787-1.635-2.019c-0.72-0.251-2.178-0.511-4.011-0.719c-1.474-0.168-3.206-0.154-4.253-0.123
		c-0.126-0.831-0.729-1.589-1.404-1.852c-1.8-0.699-4.58-0.53-5.293-0.337c-0.567,0.153-1.195,0.467-1.544,0.95
		c-0.234,0.322-0.386,0.736-0.387,1.314c0,0.327,0.01,1.097,0.018,1.781c0.009,0.687,0.018,1.3,0.018,1.305
		c0,0.611-0.513,1.108-1.149,1.109h-2.917c-0.622,0-1.098,0.101-1.46,0.26c-0.364,0.159-0.622,0.374-0.817,0.628
		c-0.39,0.505-0.457,1.128-0.456,1.764c0,0,0.006,0.52,0.135,1.525c0.108,0.778,0.982,6.214,1.813,7.868
		c0.322,0.643,0.536,0.91,1.169,1.194c1.409,0.583,4.628,1.23,6.136,1.416c1.506,0.187,2.451,0.577,3.014-0.563
		c0.002-0.002,0.113-0.283,0.266-0.695c0.489-1.43,0.557-2.699,0.557-3.618c0-0.093,0.142-0.098,0.142,0
		c0,0.648-0.128,2.943,1.667,3.559c0.709,0.243,2.18,0.459,3.674,0.628c1.352,0.15,2.332,0.664,2.332,4.01
		c0,2.035-0.443,2.314-2.759,2.314c-1.877,0-2.593,0.047-2.593-1.393c0-1.164,1.192-1.041,2.076-1.041
		c0.395,0,0.107-0.284,0.107-1.002c0-0.714,0.463-1.127,0.025-1.137c-3.055-0.082-4.853-0.004-4.853,3.685
		c0,3.349,1.327,3.97,5.663,3.97c3.399,0,4.598-0.107,6.001-4.312c0.278-0.83,0.95-3.362,1.356-7.616
		C38.187,25.384,37.688,17.268,37.291,15.22L37.291,15.22z M31.365,24.19c-0.42-0.014-0.824,0.011-1.2,0.07
		c0.106-0.827,0.46-1.841,1.712-1.798c1.385,0.046,1.579,1.311,1.584,2.167C32.877,24.377,32.153,24.217,31.365,24.19L31.365,24.19z
		"/>
</g>
</svg>
