<?xml version="1.0" encoding="utf-8"?>
<!-- Generator: Adobe Illustrator 16.0.0, SVG Export Plug-In . SVG Version: 6.00 Build 0)  -->
<!DOCTYPE svg PUBLIC "-//W3C//DTD SVG 1.1//EN" "http://www.w3.org/Graphics/SVG/1.1/DTD/svg11.dtd">
<svg version="1.1" id="Calque_1" xmlns="http://www.w3.org/2000/svg" xmlns:xlink="http://www.w3.org/1999/xlink" x="0px" y="0px"
	 width="50px" height="50px" viewBox="0 0 50 50" enable-background="new 0 0 50 50" xml:space="preserve">
<g>
	<path opacity="0" fill="#3C5A9A" d="M4,0h42c2.209,0,4,1.791,4,4v42c0,2.209-1.791,4-4,4H4c-2.209,0-4-1.791-4-4V4
		C0,1.791,1.791,0,4,0z"/>
	<path fill="#FFFFFF" d="M27.385,40V26.315h4.718l0.706-5.333h-5.424v-3.405c0-1.544,0.441-2.596,2.715-2.596l2.9-0.001v-4.77
		C32.498,10.145,30.777,10,28.773,10c-4.181,0-7.044,2.485-7.044,7.049v3.933H17v5.333h4.729V40H27.385z"/>
</g>
</svg>
