<?xml version="1.0" encoding="utf-8"?>
<!-- Generator: Adobe Illustrator 16.0.0, SVG Export Plug-In . SVG Version: 6.00 Build 0)  -->
<!DOCTYPE svg PUBLIC "-//W3C//DTD SVG 1.1//EN" "http://www.w3.org/Graphics/SVG/1.1/DTD/svg11.dtd">
<svg version="1.1" id="Calque_1" xmlns="http://www.w3.org/2000/svg" xmlns:xlink="http://www.w3.org/1999/xlink" x="0px" y="0px"
	 width="50px" height="50px" viewBox="0 0 50 50" enable-background="new 0 0 50 50" xml:space="preserve">
<g>
	<path opacity="0" fill="#6CC655" d="M4,0h42c2.209,0,4,1.791,4,4v42c0,2.209-1.791,4-4,4H4c-2.209,0-4-1.791-4-4V4
		C0,1.791,1.791,0,4,0z"/>
	<path fill="#FFFFFF" d="M19.246,38.094l-8.473-8.996c-1.031-1.086-1.031-3.44,0-4.467L22.91,11.77c0.974-1.026,3.148-1.026,4.123,0
		l12.193,12.86c1.031,1.086,1.031,3.442,0,4.468l-8.473,8.995C30.238,38.639,29.438,39,28.635,39H21.25
		C20.506,39,19.761,38.639,19.246,38.094z M26.975,34.592c0.172-0.181,0.172-0.543,0-0.724l-1.66-1.751
		c-0.172-0.182-0.515-0.182-0.687,0l-1.66,1.751c-0.172,0.181-0.172,0.543,0,0.724l1.316,1.329h1.374L26.975,34.592z M26.975,27.166
		c0.115-0.121,0.115-0.423,0-0.543L25.2,24.751c-0.114-0.121-0.4-0.121-0.515,0l-5.153,5.435c-0.171,0.182-0.171,0.604,0,0.784
		l1.203,1.27h1.374L26.975,27.166L26.975,27.166z M26.975,19.8c0.115-0.121,0.172-0.483,0-0.604l-1.717-1.812
		c-0.115-0.121-0.458-0.121-0.63,0l-8.645,9.117c-0.115,0.121-0.172,0.481-0.057,0.604l1.374,1.389h1.316L26.975,19.8L26.975,19.8z"
		/>
</g>
</svg>
