<?xml version="1.0" encoding="utf-8"?>
<!-- Generator: Adobe Illustrator 16.0.0, SVG Export Plug-In . SVG Version: 6.00 Build 0)  -->
<!DOCTYPE svg PUBLIC "-//W3C//DTD SVG 1.1//EN" "http://www.w3.org/Graphics/SVG/1.1/DTD/svg11.dtd">
<svg version="1.1" id="Calque_1" xmlns="http://www.w3.org/2000/svg" xmlns:xlink="http://www.w3.org/1999/xlink" x="0px" y="0px"
	 width="50px" height="50px" viewBox="0 0 50 50" enable-background="new 0 0 50 50" xml:space="preserve">
<defs>
	<filter id="Adobe_OpacityMaskFilter" filterUnits="userSpaceOnUse" x="-2" y="-2" width="54" height="54">
		<feColorMatrix  type="matrix" values="1 0 0 0 0  0 1 0 0 0  0 0 1 0 0  0 0 0 1 0"/>
	</filter>
</defs>
<mask maskUnits="userSpaceOnUse" x="-2" y="-2" width="54" height="54" id="b">
	<g filter="url(#Adobe_OpacityMaskFilter)">
		<path id="a" fill="#FFFFFF" d="M4,0h42c2.209,0,4,1.791,4,4v42c0,2.209-1.791,4-4,4H4c-2.209,0-4-1.791-4-4V4C0,1.791,1.791,0,4,0
			z"/>
	</g>
</mask>
<g mask="url(#b)">
	<path opacity="0" fill="#221E1B" d="M4,0h42c2.209,0,4,1.791,4,4v42c0,2.209-1.791,4-4,4H4c-2.209,0-4-1.791-4-4V4
		C0,1.791,1.791,0,4,0z"/>
	<g opacity="0">
		<path id="a_1_" fill="none" stroke="#FFFFFF" stroke-width="4" stroke-opacity="0.2" d="M4,0h42c2.209,0,4,1.791,4,4v42
			c0,2.209-1.791,4-4,4H4c-2.209,0-4-1.791-4-4V4C0,1.791,1.791,0,4,0z"/>
	</g>
	<path fill="#FFFFFF" d="M24.999,10C16.716,10,10,16.886,10,25.38c0,6.795,4.297,12.56,10.258,14.594
		c0.75,0.141,1.024-0.334,1.024-0.742c0-0.364-0.013-1.332-0.021-2.615c-4.172,0.929-5.053-2.062-5.053-2.062
		c-0.682-1.776-1.666-2.25-1.666-2.25c-1.362-0.954,0.103-0.936,0.103-0.936c1.506,0.109,2.297,1.586,2.297,1.586
		c1.338,2.35,3.511,1.671,4.366,1.278c0.136-0.994,0.523-1.673,0.952-2.057c-3.331-0.388-6.833-1.708-6.833-7.601
		c0-1.679,0.585-3.051,1.544-4.127c-0.155-0.389-0.669-1.953,0.146-4.07c0,0,1.259-0.414,4.125,1.577
		c1.196-0.341,2.48-0.512,3.755-0.517c1.273,0.005,2.557,0.176,3.755,0.517c2.863-1.99,4.121-1.577,4.121-1.577
		c0.818,2.118,0.303,3.681,0.148,4.07c0.961,1.076,1.543,2.448,1.543,4.127c0,5.909-3.508,7.208-6.85,7.588
		c0.539,0.476,1.019,1.414,1.019,2.85c0,2.055-0.019,3.714-0.019,4.218c0,0.411,0.27,0.891,1.031,0.74
		C35.706,37.934,40,32.174,40,25.38C40,16.886,33.283,10,24.999,10"/>
</g>
</svg>
