<?xml version="1.0" encoding="utf-8"?>
<!-- Generator: Adobe Illustrator 16.0.0, SVG Export Plug-In . SVG Version: 6.00 Build 0)  -->
<!DOCTYPE svg PUBLIC "-//W3C//DTD SVG 1.1//EN" "http://www.w3.org/Graphics/SVG/1.1/DTD/svg11.dtd">
<svg version="1.1" id="Calque_1" xmlns="http://www.w3.org/2000/svg" xmlns:xlink="http://www.w3.org/1999/xlink" x="0px" y="0px"
	 width="50px" height="50px" viewBox="0 0 50 50" enable-background="new 0 0 50 50" xml:space="preserve">
<path opacity="0" fill="#EA2769" d="M4.8,0h40.4C47.852,0,50,2.149,50,4.8v40.4c0,2.651-2.148,4.8-4.8,4.8H4.8
	C2.149,50,0,47.852,0,45.2V4.8C0,2.149,2.149,0,4.8,0z"/>
<g transform="translate(12.5, 12.5)">
	<path fill="#FFFFFF" d="M4.878,1.001c-0.16,0.027-0.292,0.126-0.364,0.273L4.477,1.352v6.836v6.836l0.042,0.078
		c0.056,0.106,0.161,0.199,0.269,0.24c0.088,0.033,0.104,0.033,1.166,0.033c1.064,0,1.078,0,1.167-0.033
		c0.122-0.046,0.238-0.163,0.284-0.285l0.034-0.09L7.434,8.159L7.43,1.352L7.393,1.277C7.341,1.173,7.231,1.07,7.126,1.027
		L7.039,0.992L6,0.99C5.429,0.988,4.924,0.994,4.878,1.001 M5.453,8.188v6.203l0.496-0.004l0.496-0.004l0.004-6.199l0.004-6.199
		h-0.5h-0.5V8.188 M9.239,4.501C9.134,4.542,9.025,4.648,8.972,4.762L8.93,4.852v9.273c0,8.928,0.001,9.276,0.028,9.355
		c0.038,0.107,0.146,0.226,0.258,0.28l0.089,0.044h1.109h1.109l0.086-0.041c0.109-0.052,0.196-0.139,0.248-0.248l0.041-0.086v-9.297
		V4.836l-0.043-0.088c-0.048-0.097-0.13-0.18-0.233-0.235l-0.067-0.036l-1.117-0.003C9.35,4.47,9.318,4.471,9.239,4.501
		 M13.732,4.49c-0.135,0.048-0.24,0.144-0.301,0.274l-0.033,0.072v9.297v9.297l0.041,0.086c0.052,0.109,0.139,0.196,0.248,0.248
		l0.086,0.041h1.109h1.109l0.089-0.044c0.112-0.055,0.22-0.173,0.258-0.28c0.027-0.079,0.028-0.428,0.028-9.355V4.851l-0.052-0.105
		c-0.06-0.12-0.147-0.201-0.269-0.247c-0.074-0.029-0.129-0.03-1.168-0.03C14.029,4.47,13.777,4.475,13.732,4.49 M18.219,4.483
		c-0.131,0.04-0.248,0.14-0.314,0.267l-0.037,0.07l-0.004,5.073l-0.004,5.073l0.033,0.09c0.046,0.123,0.162,0.239,0.285,0.285
		c0.091,0.034,0.094,0.034,1.195,0.029l1.104-0.004l0.078-0.041c0.103-0.055,0.184-0.142,0.233-0.248l0.04-0.086V9.929
		c0-5.766,0.018-5.148-0.146-5.313c-0.156-0.156-0.078-0.147-1.337-0.146C18.747,4.471,18.24,4.477,18.219,4.483 M9.922,14.133v8.68
		h0.492h0.492v-8.68v-8.68h-0.492H9.922V14.133 M14.391,14.133v8.68h0.492h0.492v-8.68v-8.68h-0.492h-0.492V14.133 M18.848,9.918
		l0.004,4.465l0.496,0.004l0.496,0.004V9.922V5.453h-0.5h-0.5L18.848,9.918"/>
</g>
</svg>
