<?xml version="1.0" encoding="utf-8"?>
<!-- Generator: Adobe Illustrator 16.0.0, SVG Export Plug-In . SVG Version: 6.00 Build 0)  -->
<!DOCTYPE svg PUBLIC "-//W3C//DTD SVG 1.1//EN" "http://www.w3.org/Graphics/SVG/1.1/DTD/svg11.dtd">
<svg version="1.1" id="Calque_1" xmlns="http://www.w3.org/2000/svg" xmlns:xlink="http://www.w3.org/1999/xlink" x="0px" y="0px"
	 width="60px" height="60px" viewBox="0 0 60 60" enable-background="new 0 0 60 60" xml:space="preserve">
<g opacity="0">
	<path fill="#3054BC" d="M4.8,0h50.4C57.852,0,60,2.149,60,4.8v50.4c0,2.651-2.148,4.8-4.8,4.8H4.8C2.149,60,0,57.852,0,55.2V4.8
		C0,2.149,2.149,0,4.8,0z"/>
	<path fill="#FFFFFF" d="M16,38.245c1.345-3.572,4.425-5.044,7.812-6.028c5.849-1.699,11.475-1.174,16.772,1.926
		c1.646,0.964,2.746,2.36,3.416,4.103v6.747H16V38.245z M30.812,15c0.999,0.443,2.093,0.752,2.979,1.354
		c2.684,1.821,3.393,5.408,1.735,8.189c-1.63,2.736-5.241,3.85-8.191,2.527c-3.007-1.349-4.535-4.786-3.411-7.795
		c0.737-1.974,2.168-3.29,4.221-3.942c0.348-0.11,0.695-0.222,1.043-0.333H30.812z"/>
</g>
</svg>
