<?xml version="1.0" encoding="utf-8"?>
<!-- Generator: Adobe Illustrator 16.0.0, SVG Export Plug-In . SVG Version: 6.00 Build 0)  -->
<!DOCTYPE svg PUBLIC "-//W3C//DTD SVG 1.1//EN" "http://www.w3.org/Graphics/SVG/1.1/DTD/svg11.dtd">
<svg version="1.1" id="Calque_1" xmlns="http://www.w3.org/2000/svg" xmlns:xlink="http://www.w3.org/1999/xlink" x="0px" y="0px"
	 width="60px" height="60px" viewBox="0 0 60 60" enable-background="new 0 0 60 60" xml:space="preserve">
<g>
	<path opacity="0" fill="#8DC44D" d="M4.8,0h50.4C57.852,0,60,2.149,60,4.8v50.4c0,2.651-2.148,4.8-4.8,4.8H4.8
		C2.149,60,0,57.852,0,55.2V4.8C0,2.149,2.149,0,4.8,0z"/>
	<g transform="translate(14 13)">
		<g transform="translate(0 8)">
			<path fill="#FFFFFF" fill-opacity="0.3" d="M8.692,0.677H17v5.064l-1,2.274L13.692,9H1.234l0,0C1.058,9,0.916,8.857,0.916,8.681
				c0-0.08,0.03-0.157,0.084-0.216l0,0C3.417,5.851,5.98,3.254,8.692,0.677z"/>
			<polygon fill="#FFFFFF" points="8.699,0.677 17,0.677 17,5.688 16,8.027 			"/>
			<g transform="rotate(180 17 9)">
				<path fill="#FFFFFF" fill-opacity="0.3" d="M8.691,0.677H17v4.972l-0.979,2.359L13.699,9H1.234l0,0
					C1.059,9,0.916,8.857,0.916,8.681c0-0.08,0.029-0.157,0.084-0.216l0,0C3.416,5.852,5.98,3.254,8.691,0.677z"/>
				<polygon fill="#FFFFFF" points="8.699,0.677 17,0.677 17,5.682 16.477,6.939 16.012,8.009 				"/>
			</g>
			<g transform="rotate(-90 17 9)">
				<path fill="#FFFFFF" fill-opacity="0.3" d="M8.691,0.677H17v5.065L16.031,8l-0.789,0.331L13.688,9H1.234l0,0
					C1.059,9,0.916,8.857,0.916,8.682c0-0.08,0.029-0.158,0.084-0.217l0,0C3.416,5.851,5.98,3.254,8.691,0.677z"/>
				<polygon fill="#FFFFFF" points="8.699,0.677 17,0.677 17,5.758 16.452,7.037 16.023,8.02 				"/>
			</g>
		</g>
		<g transform="rotate(90 13 13)">
			<path fill="#FFFFFF" fill-opacity="0.3" d="M8.692,0.678H17v4.998l-1.012,2.338L13.669,9H1.234l0,0
				C1.058,9,0.916,8.857,0.916,8.682c0-0.08,0.03-0.158,0.084-0.217l0,0C3.417,5.852,5.98,3.254,8.692,0.678z"/>
			<polygon fill="#FFFFFF" points="8.699,0.677 17,0.677 17,5.67 15.999,7.996 			"/>
		</g>
	</g>
</g>
</svg>
