<?xml version="1.0" encoding="utf-8"?>
<!-- Generator: Adobe Illustrator 16.0.0, SVG Export Plug-In . SVG Version: 6.00 Build 0)  -->
<!DOCTYPE svg PUBLIC "-//W3C//DTD SVG 1.1//EN" "http://www.w3.org/Graphics/SVG/1.1/DTD/svg11.dtd">
<svg version="1.1" id="Calque_1" xmlns="http://www.w3.org/2000/svg" xmlns:xlink="http://www.w3.org/1999/xlink" x="0px" y="0px"
	 width="60px" height="60px" viewBox="0 0 60 60" enable-background="new 0 0 60 60" xml:space="preserve">
<g opacity="0">
	<path fill="#F6B500" d="M4,0h52c2.209,0,4,1.791,4,4v52c0,2.209-1.791,4-4,4H4c-2.209,0-4-1.791-4-4V4C0,1.791,1.791,0,4,0z"/>
	<path fill="#FFFFFF" d="M25.396,41.58h8.23v-2.004h-8.23V41.58z M25.399,37.369h8.203v-2.021h-8.203V37.369z M33.602,33.135
		c0.139-0.506-0.1-1.033,0.495-1.456c2.808-1.998,4.024-4.771,3.566-8.256c-0.618-4.697-5.331-8.061-9.843-6.978
		c-3.437,0.826-5.675,3.026-6.404,6.553c-0.708,3.424,0.438,6.285,3.135,8.44c0.555,0.444,0.94,0.846,0.827,1.59
		c-0.004,0.029,0.044,0.067,0.073,0.106H33.602z M35.728,43.753H33.66v2.073c-0.152,0.021-0.233,0.043-0.314,0.043
		c-2.633,0.002-5.267,0.002-7.975,0.002v-2.086h-2.099v-0.742c0-3.063-0.01-6.125,0.011-9.187c0.003-0.462-0.125-0.769-0.478-1.061
		c-4.322-3.588-4.943-10.391-1.362-14.777c4.027-4.932,11.152-5.248,15.539-0.688c4.15,4.314,3.801,11.605-0.754,15.436
		c-0.363,0.307-0.518,0.616-0.514,1.109C35.739,37.135,35.728,40.395,35.728,43.753L35.728,43.753z"/>
</g>
</svg>
