<?xml version="1.0" encoding="utf-8"?>
<!-- Generator: Adobe Illustrator 16.0.0, SVG Export Plug-In . SVG Version: 6.00 Build 0)  -->
<!DOCTYPE svg PUBLIC "-//W3C//DTD SVG 1.1//EN" "http://www.w3.org/Graphics/SVG/1.1/DTD/svg11.dtd">
<svg version="1.1" id="Calque_1" xmlns="http://www.w3.org/2000/svg" xmlns:xlink="http://www.w3.org/1999/xlink" x="0px" y="0px"
	 width="50px" height="50px" viewBox="0 0 50 50" enable-background="new 0 0 50 50" xml:space="preserve">
<g>
	<path opacity="0" fill="#82B750" d="M4,0h42c2.209,0,4,1.791,4,4v42c0,2.209-1.791,4-4,4H4c-2.209,0-4-1.791-4-4V4
		C0,1.791,1.791,0,4,0z"/>
	<path fill="#FFFFFF" d="M37.798,20.583c-0.46-2.482-1.558-4.651-3.293-6.501c-0.729-0.779-1.556-1.463-2.458-2.036
		c-1.688-1.074-3.525-1.731-5.518-1.964c-0.244-0.029-0.49-0.025-0.729-0.082h-1.72c-0.019,0.043-0.058,0.027-0.09,0.03
		c-0.443,0.039-0.883,0.088-1.32,0.17c-3.193,0.599-5.816,2.15-7.846,4.657c-1.669,2.062-2.589,4.426-2.788,7.063
		c-0.097,1.271-0.002,2.549,0.28,3.792c0.208,0.929,0.526,1.83,0.946,2.687c0.037,0.072,0.073,0.146,0.111,0.219
		c0.693,1.352,1.585,2.556,2.703,3.596c0.588,0.547,1.217,1.043,1.898,1.471c2.086,1.311,4.363,1.998,6.836,2.027
		c0.152,0.002,0.193,0.039,0.192,0.193C24.997,37.215,25,38.525,25,39.835c0,0.052,0.004,0.103,0.007,0.165
		c0.042-0.018,0.069-0.027,0.095-0.039c2.487-1.156,4.771-2.617,6.806-4.449c0.404-0.363,0.793-0.746,1.166-1.144
		c0.158-0.17,0.316-0.343,0.477-0.513c0.248-0.263,0.461-0.555,0.694-0.83c0.269-0.316,0.511-0.654,0.749-0.994
		c0.525-0.75,0.996-1.533,1.393-2.361c0.199-0.418,0.391-0.84,0.559-1.271c0.006-0.008,0.014-0.016,0.017-0.022
		c0.46-1.183,0.754-2.403,0.91-3.659c0.055-0.437,0.091-0.876,0.112-1.316C38.032,22.457,37.971,21.511,37.798,20.583L37.798,20.583
		z M21.054,28.47c-0.223,0.061-0.451,0.095-0.678,0.128c-0.176,0.025-0.291-0.072-0.356-0.229l0.002-1.452
		c0.008-0.144-0.05-0.296,0.066-0.421c0.057-0.063,0.122-0.105,0.209-0.127c0.256-0.063,0.516-0.115,0.749-0.252
		c0.43-0.254,0.697-0.621,0.815-1.098c0.019-0.075,0.036-0.151,0.054-0.226c-1.031-0.002-2.063-0.004-3.094-0.005
		c-0.089,0-0.177-0.003-0.264-0.027c-0.263-0.072-0.464-0.31-0.465-0.578c-0.002-1.543,0.001-3.087,0.002-4.63
		c-0.021-0.247,0-0.478,0.21-0.654c0.114-0.096,0.239-0.153,0.388-0.153c1.517,0,3.033,0.001,4.549-0.001
		c0.402,0,0.734,0.4,0.605,0.792c0.031,0.074,0.025,0.152,0.025,0.23c0,1.682,0.01,3.364-0.003,5.046
		c-0.008,1.117-0.447,2.055-1.273,2.815c-0.043,0.04-0.085,0.082-0.127,0.122C22.042,28.073,21.579,28.329,21.054,28.47
		L21.054,28.47z M29.443,28.361c-0.019,0.006-0.037,0.012-0.057,0.018l-0.033,0.018c-0.293,0.082-0.59,0.15-0.894,0.194
		c-0.229,0.034-0.405-0.095-0.408-0.325c-0.002-0.16-0.004-0.322-0.004-0.483l0.009-0.865c-0.002-0.063-0.005-0.127-0.005-0.19
		c0-0.222,0.087-0.314,0.365-0.377c0.354-0.08,0.687-0.193,0.961-0.445c0.329-0.305,0.496-0.682,0.572-1.11l-2.859-0.005
		c-0.104,0-0.207,0.001-0.312,0c-0.389-0.006-0.654-0.272-0.654-0.66c0.001-1.524,0.003-3.049,0.003-4.573
		c0-0.015-0.001-0.029-0.002-0.044c-0.03-0.285,0.054-0.519,0.31-0.678c0.1-0.062,0.207-0.087,0.321-0.087
		c1.507-0.001,3.015,0,4.521-0.001c0.4,0,0.732,0.4,0.604,0.792c0.03,0.074,0.025,0.152,0.025,0.229c0,1.685,0,3.37-0.001,5.054
		c-0.002,1.505-0.954,2.914-2.359,3.492C29.514,28.326,29.479,28.346,29.443,28.361L29.443,28.361z"/>
</g>
</svg>
