<?xml version="1.0" encoding="utf-8"?>
<!-- Generator: Adobe Illustrator 16.0.0, SVG Export Plug-In . SVG Version: 6.00 Build 0)  -->
<!DOCTYPE svg PUBLIC "-//W3C//DTD SVG 1.1//EN" "http://www.w3.org/Graphics/SVG/1.1/DTD/svg11.dtd">
<svg version="1.1" id="Calque_1" xmlns="http://www.w3.org/2000/svg" xmlns:xlink="http://www.w3.org/1999/xlink" x="0px" y="0px"
	 width="60px" height="60px" viewBox="0 0 60 60" enable-background="new 0 0 60 60" xml:space="preserve">
<g>
	<path fill="#FFFFFF" d="M17.648,23.732c0.875-1.822,2.11-3.363,3.668-4.644c2.11-1.743,4.531-2.793,7.245-3.114
		c3.188-0.378,6.185,0.225,8.955,1.884c0.688,0.412,1.332,0.88,1.947,1.388c0.151,0.124,0.136,0.197,0.005,0.321
		c-1.258,1.253-2.516,2.506-3.764,3.77c-0.146,0.147-0.226,0.135-0.383,0.017c-3.656-2.816-8.99-2.054-11.715,1.67
		c-0.48,0.654-0.869,1.36-1.14,2.127c-0.022,0.068-0.068,0.13-0.102,0.198c-0.728-0.553-1.461-1.106-2.184-1.665
		C19.335,25.036,18.489,24.387,17.648,23.732z"/>
	<path fill="#FFFFFF" stroke="#FFFFFF" stroke-miterlimit="10" d="M22.366,32.641c0.243,0.537,0.446,1.096,0.751,1.598
		c1.281,2.1,3.109,3.449,5.519,3.928c2.171,0.436,4.259,0.143,6.207-0.947c0.068-0.035,0.136-0.068,0.198-0.102
		c0.033,0.033,0.063,0.072,0.096,0.102c1.456,1.129,2.917,2.258,4.373,3.385c-0.7,0.695-1.495,1.254-2.342,1.738
		c-2.455,1.4-5.112,1.965-7.911,1.75c-3.487-0.271-6.495-1.648-8.978-4.131c-1.089-1.09-1.986-2.318-2.635-3.725
		c0.604-0.463,1.208-0.92,1.812-1.381C20.425,34.115,21.395,33.382,22.366,32.641z"/>
	<path fill="#FFFFFF" d="M39.515,40.604c-1.457-1.127-2.917-2.256-4.373-3.385c-0.034-0.029-0.068-0.068-0.097-0.102
		c0.502-0.389,1.016-0.768,1.429-1.264c0.688-0.824,1.145-1.756,1.382-2.801c0.028-0.128,0.005-0.174-0.124-0.168
		c-0.068,0.006-0.13,0-0.198,0c-2.303,0-4.609-0.006-6.912,0.006c-0.253,0-0.31-0.067-0.305-0.311c0.012-1.637,0.012-3.273,0-4.909
		c0-0.208,0.057-0.266,0.265-0.266c4.222,0.006,8.442,0.006,12.669,0c0.181,0,0.254,0.045,0.299,0.237
		c0.345,1.552,0.322,3.109,0.113,4.678c-0.17,1.252-0.474,2.465-0.942,3.639c-0.693,1.734-1.716,3.246-3.059,4.543
		C39.61,40.541,39.56,40.57,39.515,40.604z"/>
	<path fill="#FFFFFF" d="M22.366,32.641c-0.971,0.741-1.941,1.475-2.912,2.215c-0.604,0.455-1.208,0.918-1.812,1.381
		c-0.468-0.869-0.772-1.789-1.021-2.736c-0.474-1.834-0.547-3.696-0.288-5.564c0.203-1.467,0.626-2.878,1.309-4.198
		c0.847,0.649,1.688,1.303,2.534,1.952c0.728,0.559,1.456,1.112,2.184,1.665c-0.124,0.604-0.299,1.196-0.355,1.817
		c-0.102,1.128,0.005,2.229,0.327,3.312C22.354,32.529,22.36,32.586,22.366,32.641z"/>
</g>
</svg>
