<?xml version="1.0" encoding="utf-8"?>
<!-- Generator: Adobe Illustrator 16.0.0, SVG Export Plug-In . SVG Version: 6.00 Build 0)  -->
<!DOCTYPE svg PUBLIC "-//W3C//DTD SVG 1.1//EN" "http://www.w3.org/Graphics/SVG/1.1/DTD/svg11.dtd">
<svg version="1.1" id="Calque_1" xmlns="http://www.w3.org/2000/svg" xmlns:xlink="http://www.w3.org/1999/xlink" x="0px" y="0px"
	 width="60px" height="60px" viewBox="0 0 60 60" enable-background="new 0 0 60 60" xml:space="preserve">
<g>
	<path opacity="0" fill="#DC4B3E" d="M4.8,0h50.4C57.852,0,60,2.149,60,4.8v50.4c0,2.651-2.148,4.8-4.8,4.8H4.8
		C2.149,60,0,57.852,0,55.2V4.8C0,2.149,2.149,0,4.8,0z"/>
	<g transform="translate(16 11)">
		<path fill="#FFFFFF" d="M10,11.015V11H7v1.475h1.903c-0.316,0.793-1.092,1.353-1.998,1.353c-1.187,0-2.149-0.962-2.149-2.149
			S5.718,9.53,6.905,9.53c0.532,0,1.028,0.191,1.418,0.534l1.321-1.501C8.914,7.92,7.955,7.53,6.905,7.53
			c-2.292,0-4.149,1.858-4.149,4.149c0,2.291,1.858,4.149,4.149,4.149c2.292,0,4.149-1.858,4.149-4.149
			c0-0.226-0.018-0.448-0.053-0.664H10z M3,4.648h11.445c-0.312,2.311-0.465,3.973-0.459,4.986c-0.006,1.02,0.522,2.768,1.583,5.242
			L0,30.79V7.648l0,0C0,5.992,1.343,4.648,3,4.648L3,4.648z M18.42,14.221c-1.428-1.445-2.311-3.432-2.311-5.625
			c0-4.418,3.582-8,8-8s8,3.582,8,8c0,1.959-0.705,3.754-1.873,5.145c-1.242,1.777-2.281,3.287-3.117,4.526
			c-1.467,2.176-2.021,7.661-3.023,7.661s-1.635-4.632-2.893-7.403C20.387,17.178,19.459,15.743,18.42,14.221z M24.109,11
			c1.656,0,3-1.343,3-3s-1.344-3-3-3s-3,1.343-3,3S22.453,11,24.109,11z"/>
		<path opacity="0.4" fill="#FFFFFF" enable-background="new    " d="M28.533,10.41v20.38L17.436,19.039L28.533,10.41z"/>
		<polygon opacity="0.4" fill="#FFFFFF" enable-background="new    " points="14.232,22.088 25.807,33.555 2.756,33.795 		"/>
	</g>
</g>
</svg>
