<?xml version="1.0" encoding="utf-8"?>
<!-- Generator: Adobe Illustrator 16.0.0, SVG Export Plug-In . SVG Version: 6.00 Build 0)  -->
<!DOCTYPE svg PUBLIC "-//W3C//DTD SVG 1.1//EN" "http://www.w3.org/Graphics/SVG/1.1/DTD/svg11.dtd">
<svg version="1.1" id="Calque_1" xmlns="http://www.w3.org/2000/svg" xmlns:xlink="http://www.w3.org/1999/xlink" x="0px" y="0px"
	 width="60px" height="60px" viewBox="0 0 60 60" enable-background="new 0 0 60 60" xml:space="preserve">
<g opacity="0">
	<path fill="#CC4232" d="M4.8,0h50.4C57.852,0,60,2.149,60,4.8v50.4c0,2.651-2.148,4.8-4.8,4.8H4.8C2.149,60,0,57.852,0,55.2V4.8
		C0,2.149,2.149,0,4.8,0z"/>
	<g transform="translate(14 15)">
		<path opacity="0.2" fill="#FFFFFF" enable-background="new    " d="M19.623,24.229l0.672-1.246H10.81l0,0l-4.843-8.688l4.74-8.592
			h10.176h-0.598l4.672,8.639L19.623,24.229L19.623,24.229z M15.515,18.847c2.341,0,4.245-1.999,4.245-4.455
			c0-2.457-1.904-4.455-4.245-4.455c-2.341,0-4.246,1.999-4.246,4.455C11.269,16.848,13.173,18.847,15.515,18.847z"/>
		<path opacity="0.6" fill="#FFFFFF" enable-background="new    " d="M24.057,1.108l2.727,4.956
			c-0.345-0.222-0.741-0.362-1.096-0.362h-14.98l-4.74,8.592L3.313,9.531C3.119,9.179,3.038,8.698,3.069,8.237l3.922-7.129
			c0.334-0.606,1.153-1.103,1.821-1.103h13.423C22.902,0.006,23.723,0.502,24.057,1.108z M9.158,3.668L9.158,3.668
			c0.452,0,0.818-0.385,0.819-0.86c0-0.474-0.367-0.859-0.819-0.859c-0.452,0-0.819,0.385-0.819,0.859
			C8.339,3.283,8.706,3.667,9.158,3.668z M22.582,2.808c-0.006-0.436-0.344-0.786-0.76-0.786c-0.414,0-0.752,0.35-0.758,0.786
			c-0.004,0.287,0.141,0.553,0.377,0.698c0.235,0.145,0.527,0.145,0.764,0S22.585,3.095,22.582,2.808z"/>
		<path opacity="0.8" fill="#FFFFFF" enable-background="new    " d="M30.768,13.307c0.334,0.606,0.334,1.599,0,2.207l-6.711,12.198
			c-0.334,0.606-1.154,1.103-1.821,1.103h-5.435c0.318-0.198,0.598-0.467,0.76-0.763l7.396-13.711l-4.671-8.639h5.402
			c0.354,0,0.751,0.141,1.096,0.362L30.768,13.307z M21.822,26.708c0.453-0.001,0.818-0.386,0.819-0.86
			c-0.001-0.475-0.366-0.859-0.819-0.859c-0.452,0.001-0.818,0.385-0.818,0.859S21.37,26.707,21.822,26.708z M28.197,15.251
			c0.453-0.001,0.819-0.385,0.82-0.86c-0.001-0.475-0.367-0.859-0.82-0.86c-0.451,0-0.818,0.385-0.818,0.86
			S27.746,15.25,28.197,15.251z"/>
		<path fill="#FFFFFF" d="M10.81,22.982L10.81,22.982h9.485l-2.734,5.069c-0.162,0.296-0.44,0.564-0.76,0.763H8.812
			c-0.667,0-1.487-0.496-1.821-1.103L0.28,15.514c-0.334-0.607-0.334-1.6,0-2.207l2.79-5.07c-0.031,0.46,0.05,0.941,0.243,1.293
			L10.81,22.982z M9.158,26.708c0.452-0.001,0.819-0.386,0.819-0.86c0-0.475-0.367-0.858-0.819-0.859
			c-0.452,0.001-0.819,0.385-0.819,0.859C8.339,26.322,8.706,26.707,9.158,26.708z M2.771,15.251c0.452,0,0.819-0.385,0.819-0.86
			c0-0.475-0.367-0.859-0.819-0.859c-0.452,0-0.819,0.385-0.819,0.859C1.953,14.866,2.319,15.25,2.771,15.251z"/>
	</g>
</g>
</svg>
