<?xml version="1.0" encoding="utf-8"?>
<!-- Generator: Adobe Illustrator 16.0.0, SVG Export Plug-In . SVG Version: 6.00 Build 0)  -->
<!DOCTYPE svg PUBLIC "-//W3C//DTD SVG 1.1//EN" "http://www.w3.org/Graphics/SVG/1.1/DTD/svg11.dtd">
<svg version="1.1" id="Calque_1" xmlns="http://www.w3.org/2000/svg" xmlns:xlink="http://www.w3.org/1999/xlink" x="0px" y="0px"
	 width="50px" height="50px" viewBox="0 0 50 50" enable-background="new 0 0 50 50" xml:space="preserve">
<g>
	<path opacity="0" fill="#205081" d="M4,0h42c2.209,0,4,1.791,4,4v42c0,2.209-1.791,4-4,4H4c-2.209,0-4-1.791-4-4V4
		C0,1.791,1.791,0,4,0z"/>
	<g transform="translate(10 11)">
		<path opacity="0.8" fill="#FFFFFF" enable-background="new    " d="M29.881,11.488c-0.013-0.008-0.027-0.017-0.045-0.025
			c-0.184-0.068-0.376-0.05-0.566-0.05c-2.776-0.001-5.555-0.002-8.334,0c-0.481-0.037-0.942,0.156-1.424,0.13
			c-0.045-0.002-0.086,0.006-0.119,0.029c-0.045,0-0.09,0-0.134,0c-0.224,0-0.446-0.002-0.67-0.003
			c-1.593,1.622-2.913,2.962-3.287,3.336c-0.177,0.165-0.312,0.178-0.476,0.014c-0.997-0.999-1.976-2.016-2.964-3.022
			c-0.122-0.112-0.244-0.224-0.366-0.336l-0.006,0.078c-0.146-0.021-0.293-0.061-0.439-0.061c-3.662-0.002-7.324,0-10.986,0.001
			c0.001,0.023,0.003,0.046,0.004,0.068c0.083,0.04,0.167,0.079,0.25,0.119c0.609,0.367,1.214,0.742,1.828,1.101
			c1.284,0.752,2.569,1.5,3.858,2.242c2.08,1.199,4.164,2.395,6.246,3.59c0.718,0.412,1.436,0.826,2.159,1.23
			c0.215,0.118,0.445,0.213,0.67,0.314c6.677-3.865,13.675-7.915,14.449-8.373c0.144-0.084,0.269-0.202,0.4-0.304
			C29.908,11.54,29.891,11.514,29.881,11.488z"/>
		<path fill="#FFFFFF" d="M21.898,4.834c-2.232,2.18-5.396,5.264-6.667,6.549c-0.191,0.193-0.285,0.18-0.468-0.006
			c-1.103-1.123-2.22-2.23-3.328-3.348c-0.124-0.125-0.195-0.175-0.345-0.018c-0.454,0.479-0.925,0.939-1.395,1.401
			C9.578,9.526,9.575,9.591,9.7,9.713c0.536,0.517,1.059,1.046,1.583,1.575c0.081,0.081,0.143,0.18,0.213,0.271
			c0.027,0.024,0.053,0.049,0.08,0.073c-0.013,0.02-0.029,0.041-0.049,0.062c-0.033,0.02-0.067,0.032-0.104,0.04
			C9.48,11.726,7.54,11.731,5.598,11.73c-1.411-0.001-2.823-0.005-4.234,0.002c-0.426,0.002-0.845-0.061-1.268-0.089
			C0.062,11.623,0.029,11.599,0,11.571v-0.192c0.054-0.506,0.136-1,0.529-1.375c0,0,12.602-9.219,12.893-9.463
			c0.203-0.17,0.844-0.47,1.08-0.492c0.479-0.044,0.961-0.038,1.438,0.063c0.139,0.029,0.254,0.104,0.363,0.186
			c1.811,1.326,3.614,2.661,5.42,3.995C22.027,4.518,22.078,4.625,21.898,4.834z M18.59,11.568c1.754-1.785,3.84-3.91,5.365-5.459
			c1.256,0.936,2.512,1.872,3.768,2.807c0.493,0.368,0.994,0.726,1.48,1.104c0.418,0.325,0.674,0.756,0.738,1.29
			c-0.004,0.086-0.008,0.172-0.012,0.258C27.124,11.568,19.717,11.568,18.59,11.568z"/>
		<path opacity="0.9" fill="#FFFFFF" enable-background="new    " d="M3.001,28C3,28,3,28,3.001,28H1.708
			c-0.8-0.072-1.575-0.904-1.652-1.713c0.003-3.104,0.006-6.209,0.008-9.314c0.001-1.774,0.003-3.551,0.004-5.327
			c0.083,0.04,0.167,0.079,0.25,0.119c0.609,0.367,1.214,0.742,1.828,1.101c1.284,0.752,2.569,1.5,3.858,2.243
			c2.08,1.199,4.164,2.394,6.246,3.589c0.718,0.411,1.436,0.825,2.159,1.229c0.215,0.119,0.445,0.213,0.67,0.315
			C8.91,23.814,3.016,27.229,2.557,27.504C2.415,27.59,2.263,27.809,2.436,28C2.436,28,2.635,28,3.001,28z"/>
		<path opacity="0.7" fill="#FFFFFF" enable-background="new    " d="M29.529,11.87c0.143-0.084,0.268-0.202,0.4-0.304
			c-0.074-0.09-0.089-0.176,0.012-0.258c0.02,0.114,0.054,0.228,0.054,0.342C30,16.393,30,21.133,29.998,25.874
			c0,0.134-0.039,0.267-0.061,0.399c-0.295,1.084-1.06,1.729-2.276,1.727c-7.878-0.02-25.226,0-25.226,0
			c-0.172-0.191-0.021-0.41,0.121-0.496C3.512,26.93,28.037,12.751,29.529,11.87z"/>
	</g>
</g>
</svg>
