<?xml version="1.0" encoding="utf-8"?>
<!-- Generator: Adobe Illustrator 16.0.0, SVG Export Plug-In . SVG Version: 6.00 Build 0)  -->
<!DOCTYPE svg PUBLIC "-//W3C//DTD SVG 1.1//EN" "http://www.w3.org/Graphics/SVG/1.1/DTD/svg11.dtd">
<svg version="1.1" id="Calque_1" xmlns="http://www.w3.org/2000/svg" xmlns:xlink="http://www.w3.org/1999/xlink" x="0px" y="0px"
	 width="60px" height="60px" viewBox="0 0 60 60" enable-background="new 0 0 60 60" xml:space="preserve">
<g>
	<path opacity="0" fill="#F6B500" d="M4,0h52c2.209,0,4,1.791,4,4v52c0,2.209-1.791,4-4,4H4c-2.209,0-4-1.791-4-4V4
		C0,1.791,1.791,0,4,0z"/>
	<path fill="#FFFFFF" d="M25.396,41.58h8.23v-2.004h-8.23V41.58z M25.399,37.369h8.203v-2.021h-8.203V37.369z M33.602,33.135
		c0.14-0.506-0.1-1.033,0.496-1.455c2.807-1.999,4.023-4.771,3.565-8.257c-0.618-4.697-5.331-8.061-9.843-6.978
		c-3.437,0.826-5.675,3.026-6.404,6.553c-0.708,3.424,0.438,6.285,3.135,8.439c0.555,0.444,0.94,0.847,0.827,1.59
		c-0.004,0.029,0.044,0.067,0.073,0.106L33.602,33.135L33.602,33.135z M35.729,43.753H33.66v2.073
		c-0.152,0.021-0.233,0.043-0.314,0.043c-2.633,0.002-5.267,0.002-7.975,0.002v-2.086h-2.099v-0.742c0-3.063-0.01-6.125,0.011-9.188
		c0.003-0.461-0.125-0.769-0.478-1.061c-4.322-3.588-4.943-10.391-1.362-14.777c4.027-4.932,11.153-5.248,15.54-0.688
		c4.149,4.314,3.801,11.605-0.754,15.436c-0.363,0.308-0.519,0.616-0.515,1.109C35.738,37.135,35.729,40.395,35.729,43.753
		L35.729,43.753z"/>
</g>
</svg>
