<?xml version="1.0" encoding="utf-8"?>
<!-- Generator: Adobe Illustrator 16.0.0, SVG Export Plug-In . SVG Version: 6.00 Build 0)  -->
<!DOCTYPE svg PUBLIC "-//W3C//DTD SVG 1.1//EN" "http://www.w3.org/Graphics/SVG/1.1/DTD/svg11.dtd">
<svg version="1.1" id="Calque_1" xmlns="http://www.w3.org/2000/svg" xmlns:xlink="http://www.w3.org/1999/xlink" x="0px" y="0px"
	 width="50px" height="50px" viewBox="0 0 50 50" enable-background="new 0 0 50 50" xml:space="preserve">
<g>
	<path opacity="0" fill="#3A82F5" d="M4,0h42c2.209,0,4,1.791,4,4v42c0,2.209-1.791,4-4,4H4c-2.209,0-4-1.791-4-4V4
		C0,1.791,1.791,0,4,0z"/>
	<path fill="#FFFFFF" d="M11.229,10.987v4.468h27.542v-4.468c0-0.545-0.459-0.987-1.023-0.987H12.253
		C11.687,10,11.229,10.442,11.229,10.987z M32.383,11.328c0.627,0,1.135,0.49,1.135,1.094s-0.508,1.094-1.135,1.094
		c-0.626,0-1.134-0.49-1.134-1.094S31.757,11.328,32.383,11.328z M17.617,11.328c0.626,0,1.134,0.49,1.134,1.094
		s-0.508,1.094-1.134,1.094s-1.134-0.49-1.134-1.094S16.99,11.328,17.617,11.328z M10,18.786l1.229,7.843v0.197v6.263v5.925
		c0,0.545,0.458,0.986,1.024,0.986h25.496c0.563,0,1.022-0.441,1.022-0.986v-5.925v-6.263v-0.197L40,18.786
		c0-0.545-0.459-0.987-1.023-0.987H11.024C10.458,17.799,10,18.241,10,18.786z M27.588,23.058l4.482-0.453V35h-1.723V24.308
		l-2.761,0.025L27.588,23.058L27.588,23.058z M16.901,31.828l0.017-0.051h1.636c0,0.594,0.222,1.092,0.666,1.498
		c0.444,0.406,1.017,0.607,1.719,0.607c0.696,0,1.245-0.208,1.645-0.625s0.601-0.961,0.601-1.632c0-0.769-0.184-1.34-0.553-1.721
		c-0.368-0.382-0.947-0.57-1.736-0.57h-1.41V28.05h1.41c0.766,0,1.307-0.183,1.623-0.549c0.316-0.367,0.474-0.881,0.474-1.541
		c0-0.615-0.173-1.111-0.518-1.489c-0.345-0.377-0.857-0.566-1.536-0.566c-0.661,0-1.208,0.197-1.64,0.592
		c-0.432,0.395-0.648,0.888-0.648,1.481h-1.636l-0.026-0.052c-0.029-0.917,0.331-1.701,1.079-2.35
		c0.748-0.649,1.706-0.974,2.872-0.974c1.178,0,2.1,0.287,2.768,0.86c0.667,0.574,1.001,1.417,1.001,2.53
		c0,0.571-0.155,1.091-0.466,1.562s-0.744,0.836-1.301,1.101c0.638,0.245,1.124,0.618,1.458,1.118c0.333,0.502,0.5,1.107,0.5,1.817
		c0,1.119-0.367,1.996-1.101,2.632c-0.734,0.635-1.687,0.952-2.859,0.952c-1.079,0-2.029-0.307-2.85-0.919
		C17.268,33.645,16.872,32.835,16.901,31.828z"/>
</g>
</svg>
