<?xml version="1.0" encoding="utf-8"?>
<!-- Generator: Adobe Illustrator 16.0.0, SVG Export Plug-In . SVG Version: 6.00 Build 0)  -->
<!DOCTYPE svg PUBLIC "-//W3C//DTD SVG 1.1//EN" "http://www.w3.org/Graphics/SVG/1.1/DTD/svg11.dtd">
<svg version="1.1" id="Calque_1" xmlns="http://www.w3.org/2000/svg" xmlns:xlink="http://www.w3.org/1999/xlink" x="0px" y="0px"
	 width="50px" height="50px" viewBox="0 0 50 50" enable-background="new 0 0 50 50" xml:space="preserve">
<g transform="translate(12.5, 12.5)">
	<path fill="#FFFFFF" d="M1.842,0.639C1.533,0.712,1.296,0.861,1.037,1.144C0.569,1.656,0.61,0.773,0.61,10.327v8.398l0.139,0.269
		c0.179,0.345,0.432,0.609,0.74,0.773l0.244,0.13L6.92,19.91c4.863,0.013,5.189,0.019,5.23,0.098
		c0.024,0.047,0.346,1.029,0.715,2.185c0.37,1.155,0.687,2.128,0.705,2.161c0.021,0.041,0.713-0.682,1.945-2.032
		c1.053-1.152,1.968-2.161,2.035-2.24l0.122-0.146l-0.362-1.143l-0.363-1.142l0.633-0.634l0.633-0.635l1.392,1.391l1.392,1.391
		l0.378-0.378l0.378-0.378l-1.398-1.404l-1.4-1.403l0.244-0.293c0.652-0.784,1.273-1.893,1.572-2.81l0.168-0.511l1.008-0.013
		l1.008-0.013l-0.014-0.475l-0.015-0.475l-2.233-0.013l-2.234-0.013v-0.732V9.521H17.7h-0.757v0.733v0.733l-1.08-0.013l-1.08-0.013
		l-0.41-1.27c-0.773-2.388-1.425-4.395-2.195-6.75l-0.77-2.356L6.717,0.591C4.137,0.594,1.944,0.615,1.842,0.639 M6.519,6.621
		c-1.8,0.401-3.047,2.026-2.939,3.827c0.036,0.598,0.128,0.945,0.399,1.498c0.474,0.966,1.414,1.699,2.504,1.952
		c0.473,0.109,1.304,0.097,1.79-0.028c0.653-0.167,1.069-0.404,1.542-0.878c0.459-0.459,0.69-0.843,0.885-1.467
		c0.098-0.313,0.114-0.469,0.114-1.074c0-0.39-0.016-0.747-0.035-0.794c-0.033-0.081-0.152-0.085-1.758-0.073L7.3,9.595v0.625v0.625
		l1.074,0.01l1.074,0.009l-0.015,0.14c-0.06,0.556-0.546,1.174-1.142,1.448c-0.315,0.145-0.413,0.166-0.869,0.184
		c-0.434,0.018-0.562,0.004-0.826-0.085c-0.86-0.292-1.473-1.007-1.625-1.898C4.82,9.767,5.243,8.769,5.976,8.282
		C6.418,7.989,6.735,7.896,7.3,7.895c0.563-0.001,0.899,0.102,1.277,0.39L8.8,8.455L9.276,8c0.262-0.25,0.479-0.471,0.482-0.49
		c0.01-0.049-0.56-0.445-0.848-0.589C8.239,6.584,7.242,6.459,6.519,6.621 M15.432,12.976c0.184,0.557,0.512,1.571,0.731,2.252
		l0.398,1.24l0.431-0.428l0.43-0.43l-0.296-0.371c-0.411-0.517-0.804-1.124-1.104-1.707l-0.254-0.496h0.625h0.624l0.238,0.421
		c0.131,0.231,0.395,0.628,0.585,0.884l0.348,0.463l0.164-0.188c0.478-0.549,1.137-1.692,1.376-2.388l0.091-0.266h-2.359H15.1
		L15.432,12.976"/>
</g>
</svg>
