<?xml version="1.0" encoding="utf-8"?>
<!-- Generator: Adobe Illustrator 16.0.0, SVG Export Plug-In . SVG Version: 6.00 Build 0)  -->
<!DOCTYPE svg PUBLIC "-//W3C//DTD SVG 1.1//EN" "http://www.w3.org/Graphics/SVG/1.1/DTD/svg11.dtd">
<svg version="1.1" id="Calque_1" xmlns="http://www.w3.org/2000/svg" xmlns:xlink="http://www.w3.org/1999/xlink" x="0px" y="0px"
	 width="60px" height="60px" viewBox="0 0 60 60" enable-background="new 0 0 60 60" xml:space="preserve">
<g>
	<path opacity="0" fill="#49207B" d="M4.8,0h50.4C57.852,0,60,2.149,60,4.8v50.4c0,2.651-2.148,4.8-4.8,4.8H4.8
		C2.149,60,0,57.852,0,55.2V4.8C0,2.149,2.149,0,4.8,0z"/>
	<path fill="#FEFEFE" d="M30.485,18.616c1.703-0.078,2.917-1.281,4.388-1.893c0.542-0.402,1.092-0.332,1.646-0.028
		c0.916,0.606,1.828,0.425,2.735-0.02c0.437-0.254,0.867-0.333,1.279,0.047c0.877,0.358,0.856,1.306,1.293,1.955
		c0.371,0.416,0.295,0.847,0.045,1.285c-0.259,0.86-0.979,0.708-1.621,0.753c-0.606,0.043-1.007,0.493-1.231,0.944
		c-0.261,0.524,0.357,0.767,0.682,0.979c1.861,1.225,2.977,2.938,3.488,5.077c0.351,0.43,0.27,0.873,0.043,1.321
		c-1.623-0.021-1.232,0.932-0.854,1.821c1.005,2.355,0.371,4.396-1.157,6.276c-0.435,0.951,0.084,2-0.302,2.957
		c-0.03,1.132-0.276,2.281,0.302,3.357c0.502,0.399,1.172-0.063,1.678,0.325c1.854-0.061,2.33,0.414,2.009,1.996
		c-2.452,0.34-4.907,0.254-7.362,0.045c-1.125-1.694,0.626-1.563,1.332-2.097c0.311-0.552,0.209-1.108,0.021-1.666
		c-1.859-2.552-2.375-2.778-4.575-1.974c-1.14,0.417-1.858,1.383-2.448,2.308c-0.625,0.979,0.021,1.48,1.645,1.358
		c0.78-0.117,1.566-0.361,2.314,0.122c0.367,0.571,0.387,1.21,0.348,1.858c-0.363,0.387-0.838,0.231-1.26,0.225
		c-3.934-0.084-7.869,0.208-11.797-0.152c-1.447-0.361-2.971-0.355-4.358-1.021c-1.838-0.881-2.46-2.434-1.41-4.197
		c0.867-1.457,1.903-2.826,2.983-4.137c0.535-0.65,1.045-1.254,0.646-2.059c-0.43-0.865-1.246-1.144-2.213-0.968
		c-1.322,0.242-2.03-0.179-1.7-1.649c-1.986-0.162-2.048-0.164-1.971-2.253c0.043-1.172-0.411-2.408,0.318-3.522
		c0.789-0.058,1.685-0.459,1.693,0.997c0.008,1.246,1.485,0.396,1.934,1.13c0.351,0.409,0.293,0.832,0.043,1.261
		c1.963-0.017,1.636,1.616,1.992,2.758c0.178,0.025,0.292,0.128,0.352,0.296c1.537,3.051,0.717,3.652-1.493,6.521
		c-0.786,1.021-2.177,1.92-1.597,3.399c0.637,1.625,2.258,1.808,3.815,1.791c1.958-0.018,2.761-0.643,2.708-2.058
		c-0.41-0.646-0.275-1.313-0.086-1.983c0.107-1.652-0.014-3.332,0.708-4.903c0.712-1.554,1.724-2.66,3.55-2.816
		c0.434-0.036,1.161-0.008,1.06-0.711c-0.082-0.569-0.719-0.299-1.122-0.379c-3.378-0.67-6.491-1.726-8.133-5.169
		c-0.554-1.16-0.426-1.654,0.945-1.466c0.268-0.265,0.596-0.329,0.94-0.294c0.01-0.077-0.011-0.129-0.088-0.166
		c-0.078-0.057-0.115-0.126-0.12-0.213c-5.36-1.301-6.582-4.6-7.366-9.763c-0.061-0.399-0.239-0.998,0.279-1.188
		c0.432-0.158,0.826,0.247,1.106,0.579c2.87,3.4,6.44,5.688,10.653,7.146c1.282,0.444,2.285,1.652,3.109,2.858
		c0.339,0.495,0.642,1.376,1.585,0.789h-0.002c0.402-0.764,0.086-1.606,0.27-2.406c0.199-0.864-0.603-0.827-1.111-1.11
		c-0.928-0.516-2.498-0.474-2.199-2.221C29.379,18.372,29.931,18.455,30.485,18.616"/>
</g>
</svg>
