<?xml version="1.0" encoding="utf-8"?>
<!-- Generator: Adobe Illustrator 16.0.0, SVG Export Plug-In . SVG Version: 6.00 Build 0)  -->
<!DOCTYPE svg PUBLIC "-//W3C//DTD SVG 1.1//EN" "http://www.w3.org/Graphics/SVG/1.1/DTD/svg11.dtd">
<svg version="1.1" id="Calque_1" xmlns="http://www.w3.org/2000/svg" xmlns:xlink="http://www.w3.org/1999/xlink" x="0px" y="0px"
	 width="60px" height="60px" viewBox="0 0 60 60" enable-background="new 0 0 60 60" xml:space="preserve">
<g opacity="0">
	<path fill="#430098" d="M4.8,0h50.4C57.852,0,60,2.149,60,4.8v50.4c0,2.651-2.148,4.8-4.8,4.8H4.8C2.149,60,0,57.852,0,55.2V4.8
		C0,2.149,2.149,0,4.8,0z"/>
	<path fill="#FFFFFF" d="M41.992,14H18.008C16.337,14,15,15.28,15,16.88v26.24c0,1.6,1.337,2.88,3.008,2.88h23.984
		C43.663,46,45,44.72,45,43.12V16.88C45,15.28,43.663,14,41.992,14z M41.992,44.4H18.008c-0.752,0-1.337-0.561-1.337-1.28V16.88
		c0-0.72,0.585-1.28,1.337-1.28h23.984c0.752,0,1.336,0.56,1.336,1.28v26.24C43.328,43.84,42.744,44.4,41.992,44.4z M22.521,41.2
		l3.76-3.2l-3.76-3.2V41.2z M36.059,28.24c-0.668-0.64-1.922-1.44-4.012-1.44c-2.256,0-4.596,0.56-6.267,1.12V18.8h-3.342v13.841
		l2.34-1.041c0,0,3.844-1.68,7.187-1.68c1.671,0,2.089,0.88,2.089,1.68V41.2h3.343V31.6C37.479,31.359,37.479,29.6,36.059,28.24z
		 M31.629,24h3.344c1.504-1.68,2.256-3.36,2.506-5.2h-3.342C33.803,20.64,32.967,22.32,31.629,24z"/>
</g>
</svg>
