<?xml version="1.0" encoding="utf-8"?>
<!-- Generator: Adobe Illustrator 16.0.0, SVG Export Plug-In . SVG Version: 6.00 Build 0)  -->
<!DOCTYPE svg PUBLIC "-//W3C//DTD SVG 1.1//EN" "http://www.w3.org/Graphics/SVG/1.1/DTD/svg11.dtd">
<svg version="1.1" id="Calque_1" xmlns="http://www.w3.org/2000/svg" xmlns:xlink="http://www.w3.org/1999/xlink" x="0px" y="0px"
	 width="50px" height="50px" viewBox="0 0 50 50" enable-background="new 0 0 50 50" xml:space="preserve">
<path opacity="0" fill="#3A9DF4" d="M4.8,0h40.4C47.852,0,50,2.149,50,4.8v40.4c0,2.651-2.148,4.8-4.8,4.8H4.8
	C2.149,50,0,47.852,0,45.2V4.8C0,2.149,2.149,0,4.8,0z"/>
<g transform="translate(12.5, 12.5)">
	<path fill="#FFFFFF" d="M13.541,5.109c-1.808,0.229-3.426,1.178-4.46,2.615C8.947,7.91,8.813,8.097,8.783,8.138
		c-0.052,0.073-0.071,0.07-0.429-0.049c-0.728-0.243-1.362-0.261-2.063-0.06C5.696,8.2,5.33,8.421,4.852,8.896
		C4.493,9.253,4.406,9.369,4.236,9.708c-0.108,0.217-0.237,0.561-0.287,0.762L3.86,10.837l-0.377,0.195
		c-1.96,1.012-2.957,3.24-2.398,5.365c0.492,1.869,2.11,3.258,4.061,3.481c0.248,0.028,2.883,0.038,7.792,0.03l7.416-0.012
		l0.414-0.115c1.578-0.435,2.817-1.681,3.219-3.234c0.129-0.501,0.172-1.26,0.1-1.758c-0.251-1.713-1.5-3.163-3.158-3.664
		c-0.276-0.083-0.303-0.101-0.303-0.202c-0.002-0.186-0.16-0.879-0.297-1.298c-0.732-2.239-2.604-3.939-4.861-4.418
		C15.07,5.123,13.901,5.063,13.541,5.109"/>
</g>
</svg>
