<?xml version="1.0" encoding="utf-8"?>
<!-- Generator: Adobe Illustrator 16.0.0, SVG Export Plug-In . SVG Version: 6.00 Build 0)  -->
<!DOCTYPE svg PUBLIC "-//W3C//DTD SVG 1.1//EN" "http://www.w3.org/Graphics/SVG/1.1/DTD/svg11.dtd">
<svg version="1.1" id="Calque_1" xmlns="http://www.w3.org/2000/svg" xmlns:xlink="http://www.w3.org/1999/xlink" x="0px" y="0px"
	 width="50px" height="50px" viewBox="0 0 50 50" enable-background="new 0 0 50 50" xml:space="preserve">
<linearGradient id="Rectangle-path_1_" gradientUnits="userSpaceOnUse" x1="-274.5571" y1="413.5908" x2="-274.5571" y2="412.8485" gradientTransform="matrix(50 0 0 -50 13752.8438 20679.5313)">
	<stop  offset="0" style="stop-color:#E465D2"/>
	<stop  offset="1" style="stop-color:#FAC373"/>
</linearGradient>
<path id="Rectangle-path" opacity="0" fill="url(#Rectangle-path_1_)" d="M4.8,0h40.4C47.852,0,50,2.149,50,4.8v40.4
	c0,2.651-2.148,4.8-4.8,4.8H4.8C2.149,50,0,47.852,0,45.2V4.8C0,2.149,2.149,0,4.8,0z"/>
<g id="Group" transform="translate(13.000000, 13.000000)">
	
		<g id="Shape" transform="translate(12.000000, 12.000000) scale(-1, 1) rotate(-180.000000) translate(-12.000000, -12.000000) translate(0.500000, 0.500000)">
		<path fill="#FFFFFF" d="M7.547,22.942c-0.816-0.032-1.671-0.097-2.025-0.154c-2.963-0.521-4.802-2.359-5.303-5.304
			c-0.29-1.684-0.29-10.285,0-11.969c0.495-2.932,2.34-4.783,5.271-5.297c1.639-0.289,10.381-0.289,12.02,0
			c2.932,0.514,4.777,2.359,5.271,5.297c0.289,1.69,0.289,10.278,0,11.969c-0.494,2.932-2.34,4.783-5.271,5.297
			C16.404,22.974,11.23,23.058,7.547,22.942z M16.738,20.757c0.785-0.09,1.711-0.386,2.205-0.708
			c0.412-0.263,0.965-0.835,1.203-1.241c0.282-0.495,0.539-1.388,0.623-2.198c0.109-1.073,0.109-9.147,0-10.214
			c-0.219-2.096-1.125-3.344-2.854-3.922c-0.508-0.167-1.049-0.231-2.688-0.302C13.377,2.09,7.29,2.135,6.332,2.243
			C4.911,2.404,4.03,2.797,3.304,3.606C2.906,4.05,2.738,4.352,2.507,5.039c-0.321,0.965-0.36,1.666-0.36,6.461
			c0,4.795,0.039,5.496,0.36,6.46c0.231,0.701,0.405,1.002,0.83,1.465c0.431,0.469,0.893,0.778,1.517,1.003
			c0.714,0.264,1.164,0.334,2.469,0.392C8.89,20.892,15.941,20.847,16.738,20.757z"/>
		<path fill="#FFFFFF" d="M17.061,18.899c-1.08-0.501-1.119-2.006-0.064-2.526c0.99-0.489,2.128,0.315,2.006,1.414
			C18.898,18.68,17.87,19.271,17.061,18.899z"/>
		<path fill="#FFFFFF" d="M10.343,17.285c-1.048-0.218-1.787-0.572-2.578-1.221c-2.7-2.205-2.905-6.254-0.443-8.73
			c2.295-2.307,6.049-2.32,8.331-0.025c2.494,2.508,2.295,6.538-0.424,8.762C13.859,17.195,12.027,17.652,10.343,17.285z
			 M12.76,15.067c1.105-0.417,1.877-1.189,2.314-2.314c0.16-0.405,0.18-0.534,0.18-1.253s-0.02-0.849-0.18-1.254
			c-0.438-1.125-1.195-1.883-2.32-2.32c-0.405-0.16-0.534-0.18-1.254-0.18s-0.849,0.02-1.253,0.18
			c-1.125,0.438-1.883,1.195-2.321,2.32c-0.161,0.405-0.18,0.534-0.18,1.254s0.019,0.849,0.18,1.253
			c0.418,1.08,1.157,1.845,2.186,2.263c0.546,0.225,0.875,0.276,1.588,0.245C12.162,15.241,12.426,15.19,12.76,15.067z"/>
	</g>
</g>
</svg>
