<?xml version="1.0" encoding="utf-8"?>
<!-- Generator: Adobe Illustrator 16.0.0, SVG Export Plug-In . SVG Version: 6.00 Build 0)  -->
<!DOCTYPE svg PUBLIC "-//W3C//DTD SVG 1.1//EN" "http://www.w3.org/Graphics/SVG/1.1/DTD/svg11.dtd">
<svg version="1.1" id="Calque_1" xmlns="http://www.w3.org/2000/svg" xmlns:xlink="http://www.w3.org/1999/xlink" x="0px" y="0px"
	 width="60px" height="60px" viewBox="0 0 60 60" enable-background="new 0 0 60 60" xml:space="preserve">
<g transform="translate(0.000000,1600.000000) scale(0.100000,-0.100000)">
	<path fill="#FFFFFF" d="M288.574,15824.422c-6.694-0.582-21.436-3.238-22.417-4.029c-0.171-0.127-1.104-0.459-2.041-0.707
		c-6.631-1.768-16.074-5.42-22.949-8.857c-36.523-18.326-62.563-52.305-70.566-92.057c-6.88-34.242,0.02-69.828,19.155-98.832
		c4.692-7.09,9.907-13.574,15.469-19.219c2.275-2.285,2.544-2.656,2.124-2.695c-0.415-0.039-0.02-0.469,2.549-2.852
		c16.777-15.586,35.815-25.996,57.725-31.641c3.564-0.938,3.687-0.957,5.83-0.801l2.192,0.156l-3.13,0.684
		c-16.216,3.496-32.041,10.137-45.444,19.023l-3.335,2.246l4.297,0.098c4.854,0.195,8.442,0.469,13.003,1.055
		c4.966,0.625,11.992,1.914,11.992,2.227c0,0.039-1.65,2.461-3.647,5.391c-2.485,3.594-3.774,5.664-4.048,6.484
		c-0.327,0.996-1.938,5.547-2.773,7.832c-0.166,0.449-1.855,1.543-8.901,5.762l-8.687,5.234l-3.11,3.457
		c-2.354,2.617-4.546,4.727-9.028,8.672c-4.873,4.336-5.879,5.313-5.791,5.664c0.059,0.254,1.143,5.078,2.437,10.742l2.314,10.313
		l-1.025,4.492c-0.562,2.48-1.021,4.531-0.977,4.57c0.02,0.02,2.983,0.371,6.587,0.762l6.523,0.684l21.372-9.277
		c11.753-5.098,21.475-9.414,21.616-9.531c0.122-0.117,0.815-2.891,1.523-6.172c0.708-3.262,1.353-6.016,1.44-6.074
		c0.059-0.098,1.812,0.781,3.853,1.895c2.061,1.133,3.789,2.031,3.857,2.031c0.063-0.059,4.814-2.09,10.547-4.59l10.425-4.492
		l12.974-0.996l12.988-0.996l0.742,0.723c1.055,1.035,5.43,6.055,7.773,8.945c12.832,15.801,24.395,35.625,32.227,55.156
		c2.109,5.229,4.902,13.154,4.902,13.838c0,0.707-2.93,10.928-5.078,17.846c-14.863,47.451-33.398,77.861-55.645,91.494
		c-4.067,2.5-9.546,5.006-13.408,6.152C293.408,15824.709,292.139,15824.734,288.574,15824.422z M309.512,15796.443
		c4.355-3.229,5.117-3.877,5.098-4.316c-0.02-0.27-0.156-2.027-0.313-3.877l-0.254-3.355l2.012-2.295
		c1.094-1.27,2.012-2.377,1.992-2.484c0-0.078-1.641-1.563-3.594-3.291c-1.953-1.705-5.996-5.27-8.945-7.9l-5.415-4.771
		l-3.496,3.502l-3.501,3.5l1.021,3.047c0.566,1.666,0.977,3.125,0.938,3.252c-0.044,0.104-2.065,3.105-4.482,6.646
		c-2.441,3.588-4.336,6.523-4.253,6.67c0.122,0.209,5.229,7.217,5.376,7.377c0.088,0.113,11.797,2.09,12.295,2.09
		C304.224,15800.236,306.699,15798.527,309.512,15796.443z M232.056,15779.432c4.082-1.875,7.422-3.443,7.422-3.521
		c0-0.068-1.025-1.313-2.271-2.729c-1.255-1.441-2.256-2.633-2.236-2.652c0.024-0.043,3.877,0.709,8.569,1.646l8.525,1.713
		l7.944-0.693c4.36-0.371,7.939-0.707,7.964-0.732c0.02-0.014-4.424-2.348-9.902-5.18l-9.946-5.152l-3.188-3.193l-3.193-3.188
		l0.981-5.732c0.542-3.15,1.064-5.797,1.152-5.898c0.078-0.104,1.641-0.484,3.477-0.855l3.34-0.668l3.481,5.898l3.477,5.898
		l4.858,3.145l4.878,3.154l4.878-2.461l4.897-2.438l1.714-4.457c0.938-2.447,1.626-4.531,1.538-4.609
		c-0.098-0.107-4.121-2.07-8.94-4.4c-4.819-2.314-9.253-4.463-9.863-4.775l-1.079-0.547l3.418-2.393
		c1.958-1.357,3.335-2.441,3.188-2.523c-0.146-0.064-4.98-1.646-10.776-3.525l-10.527-3.369l-5.42-5.82l-5.42-5.797l-8.467-4.961
		l-8.462-4.936l-0.269-5.113c-0.151-2.832-0.313-5.443-0.4-5.834c-0.146-0.703-0.21-0.625-5.625,6.816
		c-5.464,7.549-5.488,7.549-6.235,7.549c-1.23,0-13.066-0.65-13.135-0.732c-0.039-0.045-1.001-3.15-2.124-6.904l-2.065-6.865
		l3.853-5.723c2.134-3.145,5.698-8.438,7.944-11.777l4.067-6.055l-6.313,6.289l-6.338,6.27l-5.464,3.398l-5.483,3.418v0.938
		c0,0.527-0.142,5.668-0.337,11.426l-0.327,10.443l1.392,8.73l1.401,8.717l1.167,1.664c10.503,14.951,10.254,14.635,19.053,24.518
		l8.276,9.301l0.62,4.439c0.361,2.441,0.649,4.629,0.649,4.877c0,0.377-0.767,0.895-4.087,2.832
		c-2.251,1.318-3.955,2.422-3.809,2.486c0.747,0.248,19.717,4.145,19.902,4.082
		C224.507,15782.824,227.969,15781.281,232.056,15779.432z"/>
	<path fill="#FFFFFF" d="M337.461,15818.953c2.129-0.723,4.082-1.373,4.375-1.455c0.742-0.166,5.527-3.379,7.91-5.293
		c2.676-2.174,7.344-6.734,9.766-9.527c6.387-7.426,11.895-15.805,17.48-26.689l2.148-4.164v1.039c0,1.523-0.527,7.402-1.035,11.236
		c-0.742,5.648-1.875,11.195-3.105,15.137c-0.254,0.752-0.449,1.605-0.449,1.895c0,0.482-0.352,0.795-2.539,2.217
		c-6.641,4.311-16.719,9.629-22.793,12.045c-2.715,1.084-14.883,4.922-15.449,4.873
		C333.691,15820.266,335.313,15819.66,337.461,15818.953z"/>
	<path fill="#FFFFFF" d="M396.484,15782.893c4.102-4.443,9.59-11.234,12.852-15.883c0.391-0.563,0.449-1.045,0.586-3.652
		c0.254-5.4-0.371-18.512-1.27-28.018c-0.801-7.945-3.008-22.018-4.668-29.707c-0.488-2.125-0.859-4.063-0.859-4.313
		c0-0.254,0.254-1.459,0.547-2.709c4.492-19.043,9.023-43.77,11.758-64.18c0.332-2.598,0.664-4.863,0.703-4.98
		c0.078-0.273,2.539,4.395,4.219,8.027c2.539,5.547,6.406,15.762,6.172,16.367c-0.039,0.117,0.176,1.055,0.469,2.07
		c2.168,7.461,3.711,15.586,4.629,24.395c0.469,4.473,0.508,18.799,0.117,23.344c-1.094,11.529-3.457,22.535-6.914,32.393
		c-0.586,1.65-1.055,3.379-1.055,3.814c0,1.42-3.594,9.717-6.543,15.078c-2.129,3.936-3.789,6.566-7.148,11.361
		c-4.766,6.836-8.594,11.568-12.754,15.801C396.094,15783.352,395.723,15783.703,396.484,15782.893z"/>
	<path fill="#FFFFFF" d="M380.391,15647.947c-3.574-6.504-8.984-14.961-9.434-14.805c-0.117,0.039-1.27-1.387-2.539-3.145
		c-7.031-9.844-13.418-17.324-21.914-25.684c-8.555-8.398-16.191-14.629-25.723-20.957c-12.676-8.379-25.2-14.512-39.927-19.512
		c-3.101-1.055-3.979-1.406-3.438-1.426c0.688-0.02,0.688-0.059,0.229-0.234c-0.273-0.117-0.459-0.215-0.396-0.293
		c0.332-0.332,6.606-1.172,9.966-1.367c2.124-0.059,5.962-0.313,8.54-0.527c4.033-0.313,5.273-0.332,8.691-0.117
		c2.856,0.156,4.341,0.352,5.22,0.625c0.664,0.234,2.324,0.508,3.711,0.664c20.898,2.031,41.973,9.551,59.551,21.191
		c1.484,0.977,2.676,1.836,2.656,1.914c0,0.059-5.547,5.039-12.305,11.055s-12.227,10.977-12.168,11.035
		c0.059,0.039,8.418,1.504,18.574,3.184c10.156,1.699,18.516,3.105,18.535,3.145c0.273,0.273-5.742,37.52-6.133,37.949
		C382.012,15650.701,381.25,15649.49,380.391,15647.947z"/>
</g>
</svg>
