<?xml version="1.0" encoding="utf-8"?>
<!-- Generator: Adobe Illustrator 16.0.0, SVG Export Plug-In . SVG Version: 6.00 Build 0)  -->
<!DOCTYPE svg PUBLIC "-//W3C//DTD SVG 1.1//EN" "http://www.w3.org/Graphics/SVG/1.1/DTD/svg11.dtd">
<svg version="1.1" id="Calque_1" xmlns="http://www.w3.org/2000/svg" xmlns:xlink="http://www.w3.org/1999/xlink" x="0px" y="0px"
	 width="60px" height="60px" viewBox="0 0 60 60" enable-background="new 0 0 60 60" xml:space="preserve">
<g transform="translate(0.000000,240.000000) scale(0.100000,-0.100000)">
	<path fill="#FFFFFF" d="M444.824,2138.637c-0.049,73.335-0.449,83.34-2.539,85.415c-2.051,2.217-10.605,2.534-68.535,2.534
		c-59.688,0-66.494-0.317-68.398-2.69c-1.733-2.061-2.212-11.714-2.212-47.017v-44.482l31.665-0.479l31.66-0.317l-19.004,18.999
		l12.676,12.666l40.361-40.371l-20.264-20.264l-20.254-20.103l-12.354,12.666l18.682,18.994H291.27v65.698
		c0,26.592-0.034,42.432-0.283,51.787c-0.908-0.381-1.958-0.601-3.149-0.601c-1.821,0-3.311,0.508-4.482,1.333
		c-8.081-0.947-16.465,0.088-24.478,0.737c-12.227,0.991-24.541,0.566-36.797,0.566c-18.027,0-36.235-1.221-54.355-1.138
		c-4.341-2.144-9.189-4.644-11.406-8.506c0.112-12.422-0.103-24.834-0.493-37.246c0.054-0.366,0.088-0.737,0.093-1.133
		c0.107-8.638,0.845-17.231,0-25.854v-14.199c0.967-1.216,1.577-2.808,1.582-4.795c0.073-30.361,0.61-60.137-1.904-90.41
		c-1.055-12.754,0.327-25.527-0.356-38.262c0.835-6.123,0.493-12.344,0.654-18.516c0.088-0.195,0.19-0.371,0.269-0.566
		c2.09-5.039,2.036-10.645,2.212-16.133c0.371-1.611,0.737-3.222,1.089-4.824c2.759-1.074,5.391-2.539,8.066-3.848
		c6.655-3.262,13.979-1.738,21.147-1.621c16.348,0.273,32.798,0.137,49.155,0c26.846-0.215,53.677-0.361,80.518-0.43
		c0.117,6.611-0.146,13.222-1.455,19.658l-12.329-0.088l-5.381,3.652c-3.008,2.051-5.859,5.371-6.489,7.598
		c-0.635,2.207-1.108,24.063-1.27,48.75l-0.156,44.648h-17.412c-15.674,0-17.417-0.322-18.999-3.164
		c-0.952-1.748-3.799-4.277-6.333-5.547c-14.404-7.441-31.66,4.277-29.604,20.264c2.217,16.465,23.115,23.271,34.512,11.24
		c3.643-3.96,4.272-3.96,22.324-3.643c17.729,0.317,18.838,0.156,22.637-3.325l3.955-3.643v-38.472
		c0-34.189,0.317-38.623,2.847-41.465c2.695-3.164,4.59-3.33,68.867-3.809c64.111-0.469,66.328-0.313,68.545,2.539
		c1.885,2.656,2.217,18.516,2.217,99.077C444.297,2126.533,444.141,2132.578,444.824,2138.637z"/>
</g>
</svg>
