<?xml version="1.0" encoding="utf-8"?>
<!-- Generator: Adobe Illustrator 16.0.0, SVG Export Plug-In . SVG Version: 6.00 Build 0)  -->
<!DOCTYPE svg PUBLIC "-//W3C//DTD SVG 1.1//EN" "http://www.w3.org/Graphics/SVG/1.1/DTD/svg11.dtd">
<svg version="1.1" id="Calque_1" xmlns="http://www.w3.org/2000/svg" xmlns:xlink="http://www.w3.org/1999/xlink" x="0px" y="0px"
	 width="60px" height="60px" viewBox="0 0 60 60" enable-background="new 0 0 60 60" xml:space="preserve">
<g>
	<path opacity="0" fill="#20BEFF" d="M4.8,0h50.4C57.852,0,60,2.149,60,4.8v50.4c0,2.651-2.148,4.8-4.8,4.8H4.8
		C2.149,60,0,57.852,0,55.2V4.8C0,2.149,2.149,0,4.8,0z"/>
	<path fill="#FFFFFF" d="M38.971,45.813C38.938,45.938,38.814,46,38.6,46h-4.123c-0.248,0-0.463-0.109-0.647-0.33l-6.808-8.787
		l-1.898,1.833v6.813c0,0.313-0.155,0.471-0.463,0.471h-3.195C21.154,46,21,45.844,21,45.529V14.47c0-0.313,0.154-0.47,0.463-0.47
		h3.195c0.309,0,0.463,0.157,0.463,0.47v19.124l8.15-8.363c0.217-0.219,0.433-0.329,0.648-0.329h4.262
		c0.185,0,0.307,0.079,0.369,0.235c0.063,0.188,0.047,0.329-0.046,0.423l-8.615,8.458l8.985,11.325
		C39,45.467,39.031,45.623,38.971,45.813"/>
</g>
</svg>
