<?xml version="1.0" encoding="utf-8"?>
<!-- Generator: Adobe Illustrator 16.0.0, SVG Export Plug-In . SVG Version: 6.00 Build 0)  -->
<!DOCTYPE svg PUBLIC "-//W3C//DTD SVG 1.1//EN" "http://www.w3.org/Graphics/SVG/1.1/DTD/svg11.dtd">
<svg version="1.1" id="Calque_1" xmlns="http://www.w3.org/2000/svg" xmlns:xlink="http://www.w3.org/1999/xlink" x="0px" y="0px"
	 width="60px" height="60px" viewBox="0 0 60 60" enable-background="new 0 0 60 60" xml:space="preserve">
<g>
	<path opacity="0" fill="#009585" d="M4.8,0h50.4C57.852,0,60,2.149,60,4.8v50.4c0,2.651-2.148,4.8-4.8,4.8H4.8
		C2.149,60,0,57.852,0,55.2V4.8C0,2.149,2.149,0,4.8,0z"/>
	<path fill="#FFFFFF" d="M41.995,28.351l0.021-0.019c-0.263,5.967-4.252,11.096-11.97,15.389V40c-0.015,0-0.031,0-0.046,0
		c-6.627,0-12-5.373-12-12s5.373-12,12-12s12,5.373,12,12C42,28.118,41.998,28.234,41.995,28.351z M25,23.742c-0.552,0-1,0.448-1,1
		l0,0V31c0,0.553,0.448,1,1,1h8.093c0.552,0,1-0.447,1-1v-6.258c0-0.552-0.448-1-1-1H25z M34.093,26.623v2.222L37,31.662v-7.92
		L34.093,26.623z"/>
</g>
</svg>
