<?xml version="1.0" encoding="utf-8"?>
<!-- Generator: Adobe Illustrator 16.0.0, SVG Export Plug-In . SVG Version: 6.00 Build 0)  -->
<!DOCTYPE svg PUBLIC "-//W3C//DTD SVG 1.1//EN" "http://www.w3.org/Graphics/SVG/1.1/DTD/svg11.dtd">
<svg version="1.1" id="Calque_1" xmlns="http://www.w3.org/2000/svg" xmlns:xlink="http://www.w3.org/1999/xlink" x="0px" y="0px"
	 width="60px" height="60px" viewBox="0 0 60 60" enable-background="new 0 0 60 60" xml:space="preserve">
<g>
	<path opacity="0" fill="#0099FF" d="M4.8,0.116h50.4c2.651,0,4.8,2.149,4.8,4.8v50.401c0,2.65-2.148,4.799-4.8,4.799H4.8
		c-2.651,0-4.8-2.148-4.8-4.799V4.916C0,2.265,2.149,0.116,4.8,0.116z"/>
	<path fill="#FFFFFF" d="M20.525,39.963C17.153,37.396,15,33.488,15,29.111c0-7.729,6.716-13.996,15-13.996
		c8.285,0,15,6.266,15,13.996c0,7.729-6.715,13.996-15,13.996c-1.545,0-3.037-0.219-4.44-0.623l-5.034,2.861V39.963z M28.398,25.278
		l-8.09,8.564l7.362-4.038l3.847,4.038l8.043-8.564l-7.279,3.969L28.398,25.278L28.398,25.278z"/>
</g>
</svg>
