<?xml version="1.0" encoding="utf-8"?>
<!-- Generator: Adobe Illustrator 16.0.0, SVG Export Plug-In . SVG Version: 6.00 Build 0)  -->
<!DOCTYPE svg PUBLIC "-//W3C//DTD SVG 1.1//EN" "http://www.w3.org/Graphics/SVG/1.1/DTD/svg11.dtd">
<svg version="1.1" id="Calque_1" xmlns="http://www.w3.org/2000/svg" xmlns:xlink="http://www.w3.org/1999/xlink" x="0px" y="0px"
	 width="60px" height="60px" viewBox="0 0 60 60" enable-background="new 0 0 60 60" xml:space="preserve">
<g opacity="0">
	<path fill="#24B5BB" d="M4,0h52c2.209,0,4,1.791,4,4v52c0,2.209-1.791,4-4,4H4c-2.209,0-4-1.791-4-4V4C0,1.791,1.791,0,4,0z"/>
	<path fill="#FFFFFF" d="M32.941,34.34l-7.358-1.531c-0.031,0.059-0.065,0.117-0.103,0.172l6.698,9.732l0.403-0.401l1.141-7.059
		C33.332,35.088,33.042,34.75,32.941,34.34L32.941,34.34z M30.257,24.759c-0.276,0.421-0.751,0.7-1.293,0.7
		c-0.083,0-0.165-0.009-0.244-0.021l-3.355,5.229l8.964-3.843c-0.002-0.036-0.011-0.07-0.011-0.106c0-0.075,0.011-0.148,0.022-0.22
		L30.257,24.759L30.257,24.759z M30.5,23.806l4.344,1.85c0.139-0.108,0.297-0.188,0.467-0.234L36.023,21l-2.719-2.709l-3.062,4.771
		C30.393,23.284,30.481,23.54,30.5,23.806L30.5,23.806z M39.602,24.564l-2.726-2.715l-0.593,3.666
		c0.15,0.075,0.285,0.178,0.398,0.302L39.602,24.564z M33.07,33.374c0.217-0.392,0.618-0.648,1.066-0.683l0.782-4.849
		c-0.062-0.041-0.116-0.089-0.17-0.139l-9.017,3.865c0.023,0.094,0.039,0.189,0.046,0.289L33.07,33.374L33.07,33.374z
		 M40.344,25.304l-3.153,1.352l7.781,3.313L45,29.942L40.344,25.304z M34.709,35.268l-0.948,5.869l5.503-5.482L35.3,34.83
		C35.148,35.028,34.943,35.18,34.709,35.268L34.709,35.268z M24.011,33.758c-0.199,0-0.39-0.033-0.568-0.094l-1.828,2.85
		l-0.707-0.703l1.731-2.699c-0.042-0.053-0.083-0.107-0.119-0.165l-3.137,1.345l-0.744-0.74l3.434-1.473l-6.208-1.29l-0.849-0.846
		l0.269-0.268l7.158,1.489c0.083-0.155,0.188-0.298,0.313-0.423l-3.474-5.047l0.702-0.699l3.63,5.274
		c0.13-0.03,0.264-0.045,0.397-0.046c0.153,0,0.302,0.021,0.444,0.058l3.397-5.294c-0.277-0.286-0.431-0.667-0.431-1.064
		c0-0.122,0.016-0.239,0.042-0.353l-4.238-1.804l0.744-0.741l4.015,1.71c0.414-0.34,0.976-0.44,1.483-0.265l3.131-4.882L30,15
		L15,29.942l15,14.942l1.477-1.47l-6.749-9.807C24.502,33.707,24.258,33.758,24.011,33.758L24.011,33.758z M35.874,28.051
		l-0.797,4.93c0.281,0.226,0.459,0.554,0.492,0.912l4.521,0.94l4.139-4.123l-7.471-3.182C36.543,27.813,36.227,28,35.874,28.051
		L35.874,28.051z"/>
</g>
</svg>
