<?xml version="1.0" encoding="utf-8"?>
<!-- Generator: Adobe Illustrator 16.0.0, SVG Export Plug-In . SVG Version: 6.00 Build 0)  -->
<!DOCTYPE svg PUBLIC "-//W3C//DTD SVG 1.1//EN" "http://www.w3.org/Graphics/SVG/1.1/DTD/svg11.dtd">
<svg version="1.1" id="Calque_1" xmlns="http://www.w3.org/2000/svg" xmlns:xlink="http://www.w3.org/1999/xlink" x="0px" y="0px"
	 width="60px" height="60px" viewBox="0 0 60 60" enable-background="new 0 0 60 60" xml:space="preserve">
<g>
	<path opacity="0" fill="#094AB1" d="M4.8,0h50.4C57.852,0,60,2.149,60,4.8v50.4c0,2.651-2.148,4.8-4.8,4.8H4.8
		C2.149,60,0,57.852,0,55.2V4.8C0,2.149,2.149,0,4.8,0z"/>
	<g transform="translate(15 21)">
		<path fill="#FFFFFF" d="M9.706,17.855c-1.812-0.459-2.821-1.92-2.824-4.088c-0.001-0.691,0.048-1.023,0.219-1.471
			c0.418-1.093,1.525-1.917,2.981-2.22c0.725-0.151,0.948-0.313,0.948-0.689c0-0.118,0.086-0.468,0.192-0.779
			c0.479-1.412,1.365-2.589,2.313-3.07c0.992-0.504,1.492-0.618,2.691-0.611c1.703,0.009,2.555,0.384,3.741,1.65l0.654,0.696
			l0.586-0.206c2.834-0.995,5.66,0.699,5.888,3.53l0.063,0.773l0.559,0.202c1.594,0.579,2.344,1.797,2.207,3.584
			c-0.088,1.17-0.627,2.104-1.48,2.567l-0.401,0.217L19.12,17.96C12.262,17.977,10.083,17.951,9.706,17.855L9.706,17.855z"/>
		<path fill="#FFFFFF" d="M3.018,16.605C1.96,16.35,0.84,15.402,0.314,14.318C0.016,13.705,0,13.614,0,12.527
			c0-1.035,0.025-1.201,0.263-1.715c0.5-1.082,1.459-1.864,2.662-2.171c0.254-0.065,0.492-0.168,0.53-0.23s0.08-0.397,0.093-0.747
			C3.631,5.499,5.032,3.59,6.989,2.977c1.057-0.331,2.385-0.25,3.534,0.217c0.365,0.148,0.324,0.18,1.095-0.846
			c0.456-0.606,1.377-1.361,2.131-1.745c0.814-0.415,1.66-0.605,2.673-0.603c2.828,0.007,5.268,1.802,6.169,4.542
			c0.288,0.875,0.272,1.121-0.065,1.128c-0.147,0.003-0.573,0.086-0.944,0.184l-0.674,0.178L20.29,5.407
			c-1.735-1.76-4.567-2.141-6.975-0.938c-0.962,0.481-1.735,1.171-2.319,2.071c-0.417,0.641-0.947,1.838-0.947,2.135
			c0,0.21-0.168,0.316-0.887,0.555c-2.225,0.74-3.523,2.451-3.522,4.636c0,0.796,0.203,1.77,0.483,2.326
			c0.105,0.212,0.165,0.41,0.131,0.445C6.168,16.729,3.4,16.698,3.018,16.605L3.018,16.605z"/>
	</g>
</g>
</svg>
