<?xml version="1.0" encoding="utf-8"?>
<!-- Generator: Adobe Illustrator 16.0.0, SVG Export Plug-In . SVG Version: 6.00 Build 0)  -->
<!DOCTYPE svg PUBLIC "-//W3C//DTD SVG 1.1//EN" "http://www.w3.org/Graphics/SVG/1.1/DTD/svg11.dtd">
<svg version="1.1" id="Calque_1" xmlns="http://www.w3.org/2000/svg" xmlns:xlink="http://www.w3.org/1999/xlink" x="0px" y="0px"
	 width="50px" height="50px" viewBox="0 0 50 50" enable-background="new 0 0 50 50" xml:space="preserve">
<path opacity="0" fill="#843A7C" fill-opacity="0" d="M4.8,0h40.4C47.852,0,50,2.149,50,4.8v40.4c0,2.651-2.148,4.8-4.8,4.8H4.8
	C2.149,50,0,47.852,0,45.2V4.8C0,2.149,2.149,0,4.8,0z"/>
<g transform="translate(12.5, 12.5)">
	<path fill="#FFFFFF" d="M7.251,2.377L0.586,3.563v8.888v8.889l6.616,1.164c3.639,0.641,6.692,1.184,6.786,1.207
		c0.156,0.039,0.172-0.061,0.172-1.092v-1.135h3.805c2.672,0,3.877-0.033,4.051-0.113c0.137-0.063,0.301-0.254,0.362-0.428
		c0.106-0.293,0.149-0.316,0.672-0.364c0.659-0.06,0.997-0.256,1.21-0.702c0.215-0.454,0.227-3.967,0.014-4.374
		c-0.123-0.233-0.123-0.304,0-0.537c0.215-0.411,0.201-3.92-0.018-4.38c-0.145-0.306-0.145-0.358,0-0.664
		c0.229-0.482,0.23-3.927,0.004-4.408c-0.213-0.449-0.551-0.643-1.225-0.704l-0.574-0.052V4.435c0-0.44-0.169-0.778-0.455-0.908
		c-0.16-0.074-1.462-0.108-4.041-0.108H14.16V2.295c0-0.839-0.031-1.121-0.122-1.113C13.971,1.188,10.917,1.726,7.251,2.377
		 M14.16,5.029v0.83h2.93h2.93v0.488v0.488h-2.93h-2.93v0.732v0.732h2.93h2.93v0.488v0.488h-2.93h-2.93v0.732v0.732h2.93h2.93v0.488
		v0.488h-2.93h-2.93v0.732v0.732h2.93h2.93v0.487v0.488h-2.93h-2.93v0.731v0.732h2.93h2.93v0.488v0.488h-2.93h-2.93v0.731v0.731
		h2.93h2.93v0.488v0.488h-2.93h-2.93v0.83v0.83h3.76h3.76v-5.42v-5.42h0.814c1.172,0,1.139,0.063,1.139-2.166
		c0-2.196,0.035-2.131-1.154-2.131H21.68V4.883V4.199h-3.76h-3.76V5.029 M8.815,8.47L8.401,8.507l-0.026,2.628L8.35,13.764
		l-1.322-2.512L5.706,8.74L5.228,8.71c-0.263-0.017-0.58-0.005-0.705,0.026L4.297,8.793v3.709v3.709h0.584h0.584l0.026-2.585
		l0.026-2.584l1.318,2.548c0.725,1.4,1.362,2.604,1.416,2.674c0.054,0.068,0.417,0.156,0.806,0.193l0.708,0.066V12.46V8.398
		L9.497,8.416C9.349,8.425,9.042,8.449,8.815,8.47 M22.461,12.793v2.148h0.424c0.723,0,0.748-0.076,0.748-2.167
		c0-2.065-0.023-2.131-0.765-2.131h-0.407V12.793 M22.461,17.676v2.148h0.424c0.723,0,0.748-0.076,0.748-2.166
		c0-2.064-0.023-2.131-0.765-2.131h-0.407V17.676"/>
</g>
</svg>
