<?xml version="1.0" encoding="utf-8"?>
<!-- Generator: Adobe Illustrator 16.0.0, SVG Export Plug-In . SVG Version: 6.00 Build 0)  -->
<!DOCTYPE svg PUBLIC "-//W3C//DTD SVG 1.1//EN" "http://www.w3.org/Graphics/SVG/1.1/DTD/svg11.dtd">
<svg version="1.1" id="Calque_1" xmlns="http://www.w3.org/2000/svg" xmlns:xlink="http://www.w3.org/1999/xlink" x="0px" y="0px"
	 width="60px" height="60px" viewBox="0 0 60 60" enable-background="new 0 0 60 60" xml:space="preserve">
<g>
	<path opacity="0" fill="#0072CD" d="M4.8,0h50.4C57.852,0,60,2.149,60,4.8v50.4c0,2.651-2.148,4.8-4.8,4.8H4.8
		C2.149,60,0,57.852,0,55.2V4.8C0,2.149,2.149,0,4.8,0z"/>
	<g transform="translate(15 16)">
		<path fill="#FFFFFF" d="M15.509,0h2.017c0,1.5,0,3.748,0,6.744v15.849c0,2.849,0,4.984,0,6.407h-2.09
			c-5.137-0.934-10.288-1.794-15.432-2.697C0,18.436,0,10.568,0,2.705C5.171,1.797,10.342,0.92,15.509,0z M7.227,8.99
			c-3.236,1.156-3.823,5.5-2.616,8.322c0.917,2.447,4.291,3.43,6.303,1.706c2.184-1.912,2.339-5.372,1.241-7.901
			C11.35,9.28,9.128,8.271,7.227,8.99z M7.554,11.017c0.897-0.428,2.02,0.007,2.44,0.894c0.674,1.335,0.671,2.965,0.229,4.373
			c-0.313,1.002-1.409,1.828-2.471,1.434c-1.325-0.418-1.726-1.989-1.739-3.22C5.997,13.222,6.29,11.634,7.554,11.017L7.554,11.017z
			 M18.525,7.756c3.734,0.003,7.466-0.01,11.201,0.007c-0.064,0.441-0.199,0.876-0.57,1.153c-2.231,2.081-4.449,4.171-6.674,6.258
			c-1.338-1.21-2.64-2.461-3.957-3.692C18.525,10.238,18.525,8.997,18.525,7.756z"/>
		<path fill="#FFFFFF" d="M23.541,15.475c2.025-1.926,4.068-3.837,6.104-5.753c0.011,3.952,0,7.907,0.004,11.86
			c-3.708,0-7.416,0-11.123,0c0-2.941-0.004-5.882,0.003-8.819c1.257,1.113,2.383,2.381,3.718,3.396
			C22.795,16.26,23.166,15.785,23.541,15.475z"/>
	</g>
</g>
</svg>
