<?xml version="1.0" encoding="utf-8"?>
<!-- Generator: Adobe Illustrator 16.0.0, SVG Export Plug-In . SVG Version: 6.00 Build 0)  -->
<!DOCTYPE svg PUBLIC "-//W3C//DTD SVG 1.1//EN" "http://www.w3.org/Graphics/SVG/1.1/DTD/svg11.dtd">
<svg version="1.1" id="Calque_1" xmlns="http://www.w3.org/2000/svg" xmlns:xlink="http://www.w3.org/1999/xlink" x="0px" y="0px"
	 width="50px" height="50px" viewBox="0 0 50 50" enable-background="new 0 0 50 50" xml:space="preserve">
<path opacity="0" fill="#149CD4" d="M4.8,0h40.4C47.852,0,50,2.149,50,4.8v40.4c0,2.651-2.148,4.8-4.8,4.8H4.8
	C2.149,50,0,47.852,0,45.2V4.8C0,2.149,2.149,0,4.8,0z"/>
<g transform="translate(12.5, 12.5)">
	<path fill="#FFFFFF" d="M4.844-1.912C4.729-1.895,4.567-1.841,4.45-1.78C4.116-1.607,3.879-1.308,3.793-0.949
		C3.75-0.773,0,23.018,0,23.109c0.001,0.2,0.08,0.383,0.231,0.535c0.115,0.115,0.207,0.169,0.352,0.206
		c0.095,0.024,0.149,0.024,2.926,0.024c2.792,0,2.829,0,2.829,0.024c0,0.013-0.087,0.578-0.194,1.255
		c-0.106,0.677-0.193,1.249-0.193,1.272c0,0.138,0.074,0.323,0.17,0.434l0.056,0.064h2.871h2.871l0.083-0.063
		c0.102-0.076,0.183-0.164,0.261-0.283c0.085-0.13,0.13-0.248,0.174-0.459c0.021-0.104,0.238-1.456,0.482-3.007
		c0.458-2.905,0.503-3.179,0.546-3.305c0.055-0.163,0.135-0.294,0.26-0.425c0.14-0.146,0.307-0.248,0.508-0.31
		c0.082-0.024,0.124-0.027,0.768-0.036c0.375-0.006,0.766-0.014,0.869-0.018c1.467-0.063,2.719-0.318,3.824-0.782
		c0.241-0.101,0.741-0.354,0.95-0.481c1.81-1.094,2.987-2.816,3.593-5.25c0.321-1.294,0.424-2.492,0.301-3.494
		c-0.162-1.302-0.706-2.336-1.615-3.066c-0.146-0.118-0.462-0.33-0.645-0.433c-0.113-0.064-0.115-0.066-0.109-0.105
		c0.039-0.227,0.088-0.672,0.107-0.981c0.02-0.302,0.01-0.987-0.018-1.215c-0.137-1.125-0.504-1.976-1.234-2.851
		c-0.855-1.026-2.169-1.697-3.998-2.042c-0.543-0.103-1.082-0.165-1.919-0.223C14.848-1.92,4.963-1.929,4.844-1.912"/>
</g>
</svg>
