<?xml version="1.0" encoding="utf-8"?>
<!-- Generator: Adobe Illustrator 16.0.0, SVG Export Plug-In . SVG Version: 6.00 Build 0)  -->
<!DOCTYPE svg PUBLIC "-//W3C//DTD SVG 1.1//EN" "http://www.w3.org/Graphics/SVG/1.1/DTD/svg11.dtd">
<svg version="1.1" id="Calque_1" xmlns="http://www.w3.org/2000/svg" xmlns:xlink="http://www.w3.org/1999/xlink" x="0px" y="0px"
	 width="60px" height="60px" viewBox="0 0 60 60" enable-background="new 0 0 60 60" xml:space="preserve">
<g>
	<path fill="#010101" d="M46.801,25.923c-0.464-0.464-1.027-0.696-1.689-0.696h-10.34V14.888c0-0.663-0.232-1.226-0.695-1.69
		c-0.465-0.464-1.027-0.696-1.691-0.696h-4.771c-0.663,0-1.226,0.232-1.69,0.696s-0.696,1.027-0.696,1.69v10.34H14.889
		c-0.663,0-1.226,0.231-1.69,0.696c-0.464,0.464-0.696,1.027-0.696,1.69v4.772c0,0.663,0.232,1.226,0.696,1.69
		c0.464,0.463,1.027,0.695,1.69,0.695h10.339v10.34c0,0.662,0.232,1.227,0.696,1.689c0.464,0.464,1.027,0.695,1.69,0.695h4.772
		c0.663,0,1.226-0.231,1.69-0.695c0.464-0.463,0.695-1.027,0.695-1.689v-10.34h10.34c0.662,0,1.227-0.232,1.689-0.695
		c0.465-0.465,0.696-1.027,0.696-1.69v-4.772C47.496,26.951,47.266,26.387,46.801,25.923z"/>
</g>
</svg>
