<?xml version="1.0" encoding="utf-8"?>
<!-- Generator: Adobe Illustrator 16.0.0, SVG Export Plug-In . SVG Version: 6.00 Build 0)  -->
<!DOCTYPE svg PUBLIC "-//W3C//DTD SVG 1.1//EN" "http://www.w3.org/Graphics/SVG/1.1/DTD/svg11.dtd">
<svg version="1.1" id="Calque_1" xmlns="http://www.w3.org/2000/svg" xmlns:xlink="http://www.w3.org/1999/xlink" x="0px" y="0px"
	 width="50px" height="50px" viewBox="0 0 50 50" enable-background="new 0 0 50 50" xml:space="preserve">
<g>
	<path opacity="0" fill="#EF4056" d="M4,0h42c2.209,0,4,1.791,4,4v42c0,2.209-1.791,4-4,4H4c-2.209,0-4-1.791-4-4V4
		C0,1.791,1.791,0,4,0z"/>
	<path fill="#FFFFFF" d="M12.624,12C10.99,12.103,10,13.001,10,14.599v9.569c0,7.771,8.029,13.88,14.975,13.832
		C32.785,37.945,40,31.596,40,24.168v-9.569c0-1.604-1.053-2.508-2.699-2.599H12.624L12.624,12z M18.95,19.784l6.025,5.511
		l6.031-5.511c2.699-1.091,3.877,1.875,2.769,2.744l-7.854,7.217c-0.257,0.235-1.628,0.235-1.885,0l-7.854-7.217
		C15.123,21.569,16.501,18.554,18.95,19.784z"/>
</g>
</svg>
