<?xml version="1.0" encoding="utf-8"?>
<!-- Generator: Adobe Illustrator 16.0.0, SVG Export Plug-In . SVG Version: 6.00 Build 0)  -->
<!DOCTYPE svg PUBLIC "-//W3C//DTD SVG 1.1//EN" "http://www.w3.org/Graphics/SVG/1.1/DTD/svg11.dtd">
<svg version="1.1" id="Calque_1" xmlns="http://www.w3.org/2000/svg" xmlns:xlink="http://www.w3.org/1999/xlink" x="0px" y="0px"
	 width="60px" height="60px" viewBox="0 0 60 60" enable-background="new 0 0 60 60" xml:space="preserve">
<g>
	<path opacity="0" fill="#F2C811" d="M4.8,0h50.4C57.852,0,60,2.149,60,4.8v50.4c0,2.651-2.148,4.8-4.8,4.8H4.8
		C2.149,60,0,57.852,0,55.2V4.8C0,2.149,2.149,0,4.8,0z"/>
	<g transform="translate(15 15)">
		<polygon fill="#FFFFFF" points="14.235,14.235 0,14.235 0,0 14.235,0 		"/>
		<polygon opacity="0.7" fill="#FFFFFF" enable-background="new    " points="29.953,14.235 15.718,14.235 15.718,0 29.953,0 		"/>
		<polygon opacity="0.8" fill="#FEFEFE" enable-background="new    " points="14.235,29.959 0,29.959 0,15.723 14.235,15.723 		"/>
		<polygon opacity="0.9" fill="#FFFFFF" enable-background="new    " points="29.953,29.959 15.718,29.959 15.718,15.723 
			29.953,15.723 		"/>
	</g>
</g>
</svg>
