<?xml version="1.0" encoding="utf-8"?>
<!-- Generator: Adobe Illustrator 16.0.0, SVG Export Plug-In . SVG Version: 6.00 Build 0)  -->
<!DOCTYPE svg PUBLIC "-//W3C//DTD SVG 1.1//EN" "http://www.w3.org/Graphics/SVG/1.1/DTD/svg11.dtd">
<svg version="1.1" id="Calque_1" xmlns="http://www.w3.org/2000/svg" xmlns:xlink="http://www.w3.org/1999/xlink" x="0px" y="0px"
	 width="60px" height="60px" viewBox="0 0 60 60" enable-background="new 0 0 60 60" xml:space="preserve">
<g opacity="0">
	<path fill="#DA552F" d="M4.8,0h50.4C57.852,0,60,2.149,60,4.8v50.4c0,2.651-2.148,4.8-4.8,4.8H4.8C2.149,60,0,57.852,0,55.2V4.8
		C0,2.149,2.149,0,4.8,0z"/>
	<path fill="#FFFFFF" d="M45,30c0,8.287-6.713,15-15,15c-8.288,0-15-6.713-15-15c0-8.288,6.712-15,15-15C38.287,15,45,21.712,45,30z
		 M32,22.5h-7.25v15h3V33H32c2.9,0,5.25-2.35,5.25-5.25C37.25,24.85,34.9,22.5,32,22.5z M32,30h-4.25v-4.5H32
		c1.237,0,2.25,1.013,2.25,2.25S33.237,30,32,30z"/>
</g>
</svg>
