<?xml version="1.0" encoding="utf-8"?>
<!-- Generator: Adobe Illustrator 16.0.0, SVG Export Plug-In . SVG Version: 6.00 Build 0)  -->
<!DOCTYPE svg PUBLIC "-//W3C//DTD SVG 1.1//EN" "http://www.w3.org/Graphics/SVG/1.1/DTD/svg11.dtd">
<svg version="1.1" id="Calque_1" xmlns="http://www.w3.org/2000/svg" xmlns:xlink="http://www.w3.org/1999/xlink" x="0px" y="0px"
	 width="60px" height="60px" viewBox="0 0 60 60" enable-background="new 0 0 60 60" xml:space="preserve">
<g id="g96">
	<path id="path25" inkscape:connector-curvature="0" fill="#FFFFFF" d="M30.129,18.969l1.88-2.875l-7.317-2.14
		c-2.058,0.682-3.938,1.786-5.546,3.189l2.153,6.16c1.935-2.63,5.001-4.333,8.463-4.333C29.884,18.955,30.007,18.955,30.129,18.969
		L30.129,18.969z"/>
	<path id="path27" inkscape:connector-curvature="0" fill="#FFFFFF" d="M43.594,40.132l-2.467-2.044l-5.465,0.817
		c-0.218,0.149-0.449,0.3-0.695,0.437l5.179,4.919l2.916,2.575l3.489-4.088L43.594,40.132z"/>
	<polygon id="polygon34" fill="#FFFFFF" points="43.021,23.343 37.57,22.458 37.788,18.137 	"/>
	<polygon id="polygon36" fill="#FFFFFF" points="43.021,23.343 37.57,22.458 37.788,18.137 	"/>
	<path id="path38" inkscape:connector-curvature="0" fill="#FFFFFF" d="M37.584,22.484c0.6,0.668,1.117,1.431,1.539,2.235
		l4.824,7.004l-0.872-8.394l-5.519-0.872L37.584,22.484z"/>
	<polygon id="polygon40" fill="#FFFFFF" points="43.021,23.343 37.57,22.458 37.788,18.137 	"/>
	<polygon id="polygon42" fill="#FFFFFF" points="41.127,38.088 41.89,43.402 46.551,42.734 43.838,40.322 	"/>
	<path id="path44" inkscape:connector-curvature="0" fill="#FFFFFF" d="M22.853,41.645l1.472-2.453
		c-2.712-1.676-4.633-4.564-5.056-7.944l-1.213,3.979L22.853,41.645z"/>
	<path id="path46" inkscape:connector-curvature="0" fill="#FFFFFF" d="M15.099,37.188c1.063,2.222,2.576,4.156,4.442,5.683
		l3.325-1.24l-4.797-6.418L15.099,37.188z"/>
	<path id="path48" inkscape:connector-curvature="0" fill="#FFFFFF" d="M15.14,37.27l2.998-2.002L16.434,26.6l-2.208-1.867
		c-0.504,1.608-0.777,3.339-0.777,5.124C13.45,32.514,14.063,35.035,15.14,37.27L15.14,37.27z"/>
	<path id="path50" inkscape:connector-curvature="0" fill="#FFFFFF" d="M19.173,29.843c0-0.286,0.014-0.572,0.041-0.858l-2.78-2.385
		l1.676,8.694l1.186-3.802C19.214,30.961,19.173,30.402,19.173,29.843z"/>
	<path id="path52" inkscape:connector-curvature="0" fill="#FFFFFF" d="M14.213,24.788l2.221,1.813l2.78,2.385
		c0.164-2.14,0.927-4.116,2.126-5.737l-1.581-4.401l-3.039,0.94C15.63,21.286,14.771,22.961,14.213,24.788z"/>
	<path id="path54" inkscape:connector-curvature="0" fill="#FFFFFF" d="M30.021,46.578v-5.629l0.027-0.204c-0.096,0-0.177,0-0.272,0
		c-0.164,0-0.327,0-0.491-0.014l-6.432,0.913l-3.325,1.24c2.807,2.316,6.364,3.707,10.248,3.707
		C29.857,46.578,29.938,46.578,30.021,46.578L30.021,46.578z"/>
	<path id="path56" inkscape:connector-curvature="0" fill="#FFFFFF" d="M37.788,18.137l-5.724-2.139l-1.935,2.971
		c2.943,0.095,5.587,1.431,7.455,3.516l0,0L37.788,18.137z"/>
	<path id="path58" inkscape:connector-curvature="0" fill="#FFFFFF" d="M40.091,16.884c-2.126-1.785-4.823-2.998-7.658-3.502
		l-0.505,2.726l5.901,2.085L40.091,16.884z"/>
	<path id="path60" inkscape:connector-curvature="0" fill="#FFFFFF" d="M40.077,16.87l-2.289,1.267l5.301,5.288l1.567-0.463
		C43.607,20.577,42.025,18.492,40.077,16.87z"/>
	<g id="g66">
		<path id="path62" inkscape:connector-curvature="0" fill="#FFFFFF" d="M37.57,22.458L37.57,22.458
			c0,0.013,0.014,0.013,0.014,0.027L37.57,22.458z"/>
		<path id="path64" inkscape:connector-curvature="0" fill="#FFFFFF" d="M40.377,29.843c0,2.249-0.668,4.347-1.813,6.078
			l5.396-4.319l-4.879-6.991C39.9,26.164,40.377,27.949,40.377,29.843z"/>
	</g>
	<path id="path68" inkscape:connector-curvature="0" fill="#FFFFFF" d="M43.021,23.343l0.871,8.313l2.181-0.805
		c0.014-0.341,0.027-0.667,0.027-1.008c0-2.467-0.531-4.811-1.458-6.923L43.021,23.343z"/>
	<path id="path70" inkscape:connector-curvature="0" fill="#FFFFFF" d="M43.906,31.656l-2.779,6.432l2.357,1.949l0,0l-0.449-0.396
		l0,0c1.798-2.548,2.916-5.641,3.065-8.994L43.906,31.656z"/>
	<path id="path72" inkscape:connector-curvature="0" fill="#FFFFFF" d="M41.89,43.402l-6.841-4.102
		c-0.027,0.014-0.055,0.041-0.082,0.055l5.179,4.919l2.916,2.575l0.19-0.218L41.89,43.402z"/>
	<polygon id="polygon74" fill="#FFFFFF" points="43.252,46.605 46.551,42.734 41.89,43.402 	"/>
	<path id="path81" inkscape:connector-curvature="0" fill="#FFFFFF" d="M13.545,28.017l2.889-1.431l3.325-7.754l-0.6-1.69
		C16.093,19.827,14.008,23.67,13.545,28.017z"/>
	<path id="path88" inkscape:connector-curvature="0" fill="#FFFFFF" d="M32.037,16.08l-12.278,2.753l1.581,4.401l0,0
		c1.935-2.616,4.988-4.292,8.436-4.292c0.123,0,0.245,0,0.368,0.014l0,0L32.037,16.08z"/>
	<path id="path90" inkscape:connector-curvature="0" fill="#FFFFFF" d="M24.052,39.014l-1.268,2.658l7.25,4.701v-5.424l0.027-0.204
		c-0.096,0-0.177,0-0.273,0C27.663,40.745,25.701,40.104,24.052,39.014L24.052,39.014z"/>
	<path id="path92" inkscape:connector-curvature="0" fill="#FFFFFF" d="M41.127,38.088l2.779-6.432l-5.342,4.278
		c-0.776,1.172-2.357,2.575-3.516,3.353L41.127,38.088z"/>
	<path id="path94" inkscape:connector-curvature="0" fill="#FFFFFF" d="M32.623,13.409c-0.926-0.163-1.881-0.259-2.848-0.259
		c-1.772,0-3.475,0.286-5.07,0.831l7.304,2.153L32.623,13.409z"/>
</g>
</svg>
