<?xml version="1.0" encoding="utf-8"?>
<!-- Generator: Adobe Illustrator 16.0.0, SVG Export Plug-In . SVG Version: 6.00 Build 0)  -->
<!DOCTYPE svg PUBLIC "-//W3C//DTD SVG 1.1//EN" "http://www.w3.org/Graphics/SVG/1.1/DTD/svg11.dtd">
<svg version="1.1" id="Calque_1" xmlns="http://www.w3.org/2000/svg" xmlns:xlink="http://www.w3.org/1999/xlink" x="0px" y="0px"
	 width="50px" height="50px" viewBox="0 0 50 50" enable-background="new 0 0 50 50" xml:space="preserve">
<path opacity="0" fill="#FC3C1C" fill-opacity="0" d="M4.8,0h40.4C47.852,0,50,2.149,50,4.8v40.4c0,2.651-2.148,4.8-4.8,4.8H4.8
	C2.149,50,0,47.852,0,45.2V4.8C0,2.149,2.149,0,4.8,0z"/>
<g transform="translate(12.5, 12.5)">
	<path fill="#FFFFFF" d="M11.51,0.506c-1.704,0.17-3.068,0.56-4.479,1.281C4.848,2.902,3.081,4.63,1.89,6.815
		c-0.92,1.689-1.438,3.746-1.438,5.717c0,0.608,0.017,0.823,0.139,1.722c0.522,3.854,3.08,7.352,6.631,9.07
		c1.31,0.635,2.389,0.945,4.01,1.158c0.134,0.019,0.603,0.041,1.042,0.054c0.837,0.021,1.306-0.013,2.235-0.162
		c2.554-0.411,5.031-1.753,6.815-3.69c0.208-0.228,0.462-0.518,0.563-0.645c0.201-0.253,0.785-1.071,0.785-1.102
		c0-0.011,0.044-0.084,0.098-0.164c0.217-0.318,0.625-1.115,0.857-1.674c0.68-1.625,1.035-3.805,0.885-5.418
		c-0.229-2.428-0.877-4.229-2.229-6.184c-0.617-0.893-1.855-2.13-2.787-2.786c-0.478-0.336-1.05-0.681-1.563-0.941
		c-0.455-0.232-0.738-0.354-1.457-0.628c-0.236-0.09-1.063-0.326-1.32-0.376C15.041,0.743,14.9,0.71,14.844,0.693
		c-0.057-0.018-0.291-0.057-0.521-0.087C13.113,0.447,12.371,0.42,11.51,0.506 M14.01,3.149c-0.109,0.029-0.257,0.146-0.309,0.248
		c-0.025,0.051-0.245,0.726-0.487,1.499c-0.242,0.773-0.511,1.621-0.597,1.883L12.46,7.257h-0.335
		c-1.57,0.001-3.608,0.614-4.924,1.48C7.044,8.84,6.908,8.924,6.898,8.924c-0.01,0-0.185-0.093-0.387-0.205
		C5.837,8.344,5.236,8.259,4.63,8.452c-1.062,0.338-1.645,1.502-1.3,2.592c0.132,0.417,0.557,0.953,0.935,1.178
		c0.113,0.067,0.142,0.103,0.127,0.156c-0.067,0.257-0.095,0.854-0.059,1.263c0.077,0.862,0.322,1.536,0.836,2.301
		c1.083,1.613,3.221,2.819,5.641,3.188c2.279,0.348,4.504,0.038,6.372-0.882c2.096-1.032,3.392-2.631,3.615-4.462
		c0.059-0.465,0.037-1.058-0.048-1.389c-0.019-0.075-0.001-0.1,0.138-0.187c0.233-0.146,0.571-0.493,0.721-0.74
		c0.402-0.661,0.4-1.438-0.002-2.107c-0.268-0.444-0.619-0.729-1.108-0.898c-0.661-0.229-1.455-0.102-1.981,0.317L18.33,8.928
		l-0.303-0.19c-1.164-0.731-2.658-1.226-4.073-1.348c-0.255-0.022-0.47-0.043-0.476-0.048c-0.016-0.011,0.957-3.036,0.983-3.066
		c0.007-0.007,0.213,0.03,0.457,0.081c0.772,0.162,2.213,0.473,2.272,0.49c0.035,0.011,0.066,0.07,0.08,0.151
		c0.066,0.39,0.439,0.871,0.821,1.057c0.403,0.196,0.739,0.239,1.116,0.141c0.77-0.199,1.246-0.838,1.197-1.601
		c-0.023-0.375-0.127-0.625-0.364-0.882c-0.284-0.307-0.614-0.476-1.04-0.531c-0.445-0.058-0.98,0.143-1.294,0.486
		c-0.095,0.103-0.188,0.186-0.21,0.186s-0.434-0.085-0.914-0.19c-0.701-0.152-2.072-0.444-2.438-0.519
		C14.111,3.138,14.049,3.14,14.01,3.149 M9.232,11.017c-0.25,0.106-0.382,0.201-0.533,0.385c-0.218,0.266-0.279,0.447-0.279,0.82
		c0,0.406,0.065,0.57,0.347,0.865c0.417,0.437,1.033,0.543,1.528,0.263c0.193-0.108,0.49-0.432,0.58-0.631
		c0.115-0.254,0.109-0.756-0.013-1.017c-0.124-0.267-0.333-0.488-0.591-0.626c-0.194-0.104-0.255-0.119-0.532-0.129
		C9.473,10.937,9.398,10.947,9.232,11.017 M15.119,10.968c-0.336,0.086-0.68,0.384-0.846,0.733c-0.076,0.162-0.09,0.239-0.09,0.504
		c0,0.278,0.012,0.337,0.107,0.538c0.13,0.271,0.376,0.522,0.639,0.651c0.168,0.082,0.232,0.096,0.521,0.096
		s0.354-0.014,0.521-0.096c0.245-0.119,0.53-0.405,0.65-0.65c0.083-0.168,0.095-0.233,0.095-0.522c0-0.284-0.013-0.356-0.091-0.521
		c-0.127-0.268-0.336-0.489-0.593-0.625c-0.193-0.103-0.255-0.118-0.515-0.126C15.357,10.945,15.178,10.953,15.119,10.968
		 M9.731,15.21c-0.163,0.035-0.347,0.171-0.409,0.302c-0.044,0.092-0.047,0.139-0.015,0.258c0.056,0.207,0.118,0.287,0.358,0.459
		c0.472,0.336,1.3,0.674,1.932,0.789c0.35,0.063,1.553,0.064,1.944,0c0.377-0.061,1.146-0.311,1.45-0.471
		c0.319-0.168,0.684-0.447,0.772-0.592c0.168-0.271,0.112-0.504-0.156-0.662c-0.224-0.13-0.356-0.12-0.617,0.046
		c-0.36,0.229-0.446,0.274-0.789,0.416c-0.881,0.365-1.855,0.425-2.795,0.17c-0.372-0.101-0.909-0.351-1.256-0.584
		C9.954,15.209,9.864,15.182,9.731,15.21"/>
</g>
</svg>
