<?xml version="1.0" encoding="utf-8"?>
<!-- Generator: Adobe Illustrator 16.0.0, SVG Export Plug-In . SVG Version: 6.00 Build 0)  -->
<!DOCTYPE svg PUBLIC "-//W3C//DTD SVG 1.1//EN" "http://www.w3.org/Graphics/SVG/1.1/DTD/svg11.dtd">
<svg version="1.1" id="Calque_1" xmlns="http://www.w3.org/2000/svg" xmlns:xlink="http://www.w3.org/1999/xlink" x="0px" y="0px"
	 width="50px" height="50px" viewBox="0 0 50 50" enable-background="new 0 0 50 50" xml:space="preserve">
<g>
	<path opacity="0" fill="#00AFF0" d="M4,0h42c2.209,0,4,1.791,4,4v42c0,2.209-1.791,4-4,4H4c-2.209,0-4-1.791-4-4V4
		C0,1.791,1.791,0,4,0z"/>
	<path fill="#FFFFFF" d="M38.748,27.172c0.111-0.709,0.17-1.434,0.17-2.173c0-7.687-6.23-13.918-13.918-13.918
		c-0.738,0-1.464,0.061-2.172,0.171C21.545,10.459,20.033,10,18.411,10C13.766,10,10,13.765,10,18.411
		c0,1.621,0.459,3.132,1.252,4.417c-0.109,0.709-0.17,1.432-0.17,2.171c0,7.688,6.231,13.917,13.917,13.917
		c0.738,0,1.466-0.057,2.173-0.168C28.455,39.539,29.967,40,31.588,40C36.234,40,40,36.234,40,31.588
		C40,29.967,39.541,28.455,38.748,27.172z M31.607,31.33c-0.588,0.848-1.453,1.51-2.584,1.986c-1.132,0.477-2.471,0.715-4.016,0.715
		c-1.853,0-3.387-0.324-4.598-0.979c-0.858-0.469-1.556-1.098-2.093-1.883c-0.538-0.784-0.811-1.553-0.811-2.303
		c0-0.441,0.168-0.826,0.497-1.14c0.332-0.315,0.759-0.474,1.263-0.474c0.413,0,0.768,0.124,1.056,0.371
		c0.287,0.246,0.527,0.604,0.724,1.076c0.236,0.548,0.492,1.006,0.764,1.371c0.271,0.36,0.651,0.662,1.145,0.897
		c0.488,0.236,1.137,0.354,1.95,0.354c1.112,0,2.011-0.24,2.698-0.715c0.691-0.479,1.023-1.063,1.023-1.766
		c0-0.563-0.179-1.008-0.546-1.355c-0.37-0.353-0.849-0.621-1.442-0.808c-0.597-0.189-1.397-0.39-2.4-0.601
		c-1.347-0.295-2.473-0.637-3.385-1.029c-0.914-0.395-1.641-0.934-2.18-1.614c-0.541-0.688-0.81-1.542-0.81-2.555
		c0-0.965,0.284-1.829,0.854-2.58c0.569-0.753,1.392-1.33,2.466-1.732c1.069-0.401,2.329-0.602,3.771-0.602
		c1.154,0,2.152,0.133,2.997,0.399c0.843,0.268,1.544,0.621,2.106,1.063c0.558,0.442,0.969,0.909,1.229,1.398
		c0.26,0.491,0.391,0.97,0.391,1.438c0,0.435-0.169,0.829-0.498,1.175c-0.328,0.346-0.748,0.523-1.238,0.521
		c-0.443,0-0.79-0.103-1.03-0.318c-0.234-0.209-0.48-0.542-0.747-1.005c-0.336-0.647-0.739-1.151-1.208-1.511
		c-0.456-0.354-1.21-0.538-2.257-0.536c-0.969,0-1.745,0.198-2.33,0.585c-0.589,0.394-0.871,0.85-0.872,1.385
		c0.001,0.335,0.097,0.618,0.292,0.86c0.197,0.244,0.471,0.456,0.823,0.633c0.352,0.181,0.71,0.321,1.071,0.422
		c0.364,0.104,0.969,0.253,1.81,0.45c1.054,0.228,2.01,0.481,2.87,0.758c0.857,0.278,1.589,0.613,2.193,1.013
		c0.609,0.398,1.086,0.906,1.426,1.52c0.342,0.614,0.513,1.364,0.513,2.247C32.494,29.527,32.198,30.483,31.607,31.33z"/>
</g>
</svg>
