<?xml version="1.0" encoding="utf-8"?>
<!-- Generator: Adobe Illustrator 16.0.0, SVG Export Plug-In . SVG Version: 6.00 Build 0)  -->
<!DOCTYPE svg PUBLIC "-//W3C//DTD SVG 1.1//EN" "http://www.w3.org/Graphics/SVG/1.1/DTD/svg11.dtd">
<svg version="1.1" id="Calque_1" xmlns="http://www.w3.org/2000/svg" xmlns:xlink="http://www.w3.org/1999/xlink" x="0px" y="0px"
	 width="50px" height="50px" viewBox="0 0 50 50" enable-background="new 0 0 50 50" xml:space="preserve">
<defs>
	<filter id="Adobe_OpacityMaskFilter" filterUnits="userSpaceOnUse" x="-2" y="-2" width="54" height="54">
		<feColorMatrix  type="matrix" values="1 0 0 0 0  0 1 0 0 0  0 0 1 0 0  0 0 0 1 0"/>
	</filter>
</defs>
<mask maskUnits="userSpaceOnUse" x="-2" y="-2" width="54" height="54" id="b">
	<g filter="url(#Adobe_OpacityMaskFilter)">
		<path id="a" fill="#FFFFFF" d="M4,0h42c2.209,0,4,1.791,4,4v42c0,2.209-1.791,4-4,4H4c-2.209,0-4-1.791-4-4V4C0,1.791,1.791,0,4,0
			z"/>
	</g>
</mask>
<g mask="url(#b)">
	<path opacity="0" fill="#42C299" d="M4,0h42c2.209,0,4,1.791,4,4v42c0,2.209-1.791,4-4,4H4c-2.209,0-4-1.791-4-4V4
		C0,1.791,1.791,0,4,0z"/>
	<g>
		<path id="a_1_" fill="none" stroke="#FFFFFF" stroke-width="4" stroke-opacity="0.2" d="M4,0h42c2.209,0,4,1.791,4,4v42
			c0,2.209-1.791,4-4,4H4c-2.209,0-4-1.791-4-4V4C0,1.791,1.791,0,4,0z"/>
	</g>
	<path fill="#FFFFFF" d="M38.742,20.875c3.094,10.313,0.695,14.773-9.617,17.867c-10.312,3.094-14.773,0.695-17.868-9.617
		c-3.094-10.313-0.695-14.773,9.618-17.868C31.188,8.164,35.648,10.562,38.742,20.875z M33.538,27.566
		c0.815-0.265,1.247-1.151,0.983-1.967c-0.265-0.816-1.151-1.248-1.967-0.983l-1.943,0.647l-1.295-3.861l1.942-0.647
		c0.815-0.264,1.247-1.151,0.983-1.967c-0.266-0.815-1.151-1.247-1.967-0.983l-1.942,0.647l-0.672-2.015
		c-0.265-0.815-1.151-1.247-1.968-0.983c-0.815,0.264-1.247,1.151-0.982,1.967l0.671,2.015l-4.005,1.343l-0.671-2.015
		c-0.264-0.815-1.151-1.247-1.967-0.983c-0.815,0.264-1.247,1.151-0.983,1.966l0.672,2.015l-1.943,0.647
		c-0.815,0.264-1.247,1.151-0.983,1.967c0.216,0.624,0.815,1.031,1.439,1.055c0.168,0.024,0.36-0.024,0.528-0.072l1.942-0.647
		l1.295,3.862l-1.943,0.646c-0.815,0.265-1.247,1.151-0.983,1.968c0.216,0.623,0.815,1.03,1.439,1.056
		c0.167,0.024,0.359-0.024,0.527-0.072l1.943-0.647l0.671,2.016c0.216,0.624,0.815,1.031,1.439,1.056
		c0.168,0.023,0.36-0.024,0.528-0.071c0.815-0.265,1.248-1.151,0.983-1.967l-0.67-2.017l4.004-1.343l0.672,2.015
		c0.217,0.624,0.815,1.031,1.438,1.056c0.168,0.023,0.358-0.023,0.527-0.072c0.815-0.264,1.247-1.15,0.983-1.967l-0.672-2.015
		L33.538,27.566z M22.441,23.698l3.974-1.331l1.286,3.838l-3.974,1.33L22.441,23.698z"/>
</g>
</svg>
