<?xml version="1.0" encoding="utf-8"?>
<!-- Generator: Adobe Illustrator 16.0.0, SVG Export Plug-In . SVG Version: 6.00 Build 0)  -->
<!DOCTYPE svg PUBLIC "-//W3C//DTD SVG 1.1//EN" "http://www.w3.org/Graphics/SVG/1.1/DTD/svg11.dtd">
<svg version="1.1" id="Calque_1" xmlns="http://www.w3.org/2000/svg" xmlns:xlink="http://www.w3.org/1999/xlink" x="0px" y="0px"
	 width="60px" height="60px" viewBox="0 0 60 60" enable-background="new 0 0 60 60" xml:space="preserve">
<path id="Spotify" fill="#F9F9FA" d="M30,14.957c-8.274,0-15.043,6.769-15.043,15.043c0,8.273,6.769,15.043,15.043,15.043
	S45.043,38.273,45.043,30C45.043,21.726,38.35,14.957,30,14.957 M36.921,36.694c-0.302,0.451-0.828,0.602-1.28,0.301
	c-3.534-2.181-7.972-2.633-13.237-1.429c-0.526,0.149-0.978-0.226-1.128-0.678c-0.151-0.526,0.225-0.978,0.677-1.128
	c5.716-1.278,10.68-0.752,14.591,1.655C37.07,35.641,37.146,36.242,36.921,36.694 M38.726,32.558
	c-0.376,0.526-1.053,0.752-1.579,0.376c-4.063-2.482-10.23-3.234-14.968-1.73c-0.602,0.15-1.279-0.15-1.429-0.752
	s0.15-1.278,0.752-1.429c5.491-1.655,12.26-0.827,16.924,2.031C38.876,31.279,39.102,32.031,38.726,32.558 M38.876,28.345
	c-4.813-2.858-12.862-3.159-17.45-1.73c-0.752,0.226-1.504-0.226-1.729-0.902c-0.226-0.752,0.225-1.504,0.902-1.73
	c5.34-1.58,14.141-1.279,19.706,2.031c0.677,0.376,0.903,1.279,0.526,1.956C40.456,28.496,39.553,28.721,38.876,28.345"/>
</svg>
