<?xml version="1.0" encoding="utf-8"?>
<!-- Generator: Adobe Illustrator 16.0.0, SVG Export Plug-In . SVG Version: 6.00 Build 0)  -->
<!DOCTYPE svg PUBLIC "-//W3C//DTD SVG 1.1//EN" "http://www.w3.org/Graphics/SVG/1.1/DTD/svg11.dtd">
<svg version="1.1" id="Calque_1" xmlns="http://www.w3.org/2000/svg" xmlns:xlink="http://www.w3.org/1999/xlink" x="0px" y="0px"
	 width="50px" height="50px" viewBox="0 0 50 50" enable-background="new 0 0 50 50" xml:space="preserve">
<g>
	<path opacity="0" fill="#EF5555" d="M4,0h42c2.209,0,4,1.791,4,4v42c0,2.209-1.791,4-4,4H4c-2.209,0-4-1.791-4-4V4
		C0,1.791,1.791,0,4,0z"/>
	<g transform="translate(10 13)">
		<path fill="#FFFFFF" d="M6.665,22.186c-0.644,0.459-1.283,0.912-1.901,1.352c-5.832-4.725-6.79-16.473-0.167-22.991
			C5.266,0.94,5.999,1.371,6.758,1.818C1.577,8.341,1.346,15.424,6.665,22.186 M25.061,23.584c-0.694-0.49-1.279-0.902-2.017-1.422
			c2.425-3,4.011-6.232,3.979-10.136c-0.029-3.817-1.459-7.025-3.996-9.998c0.688-0.54,1.301-1.016,1.879-1.468
			C30.969,5.114,31.715,17.713,25.061,23.584"/>
		<path fill="#FFFFFF" d="M9.196,3.524c0.256,0.156,0.561,0.325,0.85,0.519c0.37,0.249,0.726,0.518,1.264,0.905
			c-2.016,1.983-3.58,4.086-3.535,7.045c0.042,2.833,1.151,5.062,3.507,7.012c-0.805,0.58-1.479,1.063-2.068,1.487
			C3.98,17.564,3.281,7.357,9.196,3.524 M18.434,4.9c0.383-0.243,0.606-0.386,0.832-0.527c0.455-0.285,0.912-0.57,1.348-0.842
			c5.482,3.474,5.638,13.229,0.103,16.959c-0.592-0.35-1.258-0.741-2.133-1.256C23.08,14.53,23.387,9.863,18.434,4.9"/>
		<path fill="#FFFFFF" d="M14.997,8.548c2.009,0.066,3.501,1.726,3.378,3.76c-0.113,1.904-1.639,3.249-3.615,3.185
			c-1.913-0.062-3.463-1.593-3.468-3.424C11.288,10.153,13.044,8.484,14.997,8.548"/>
	</g>
</g>
</svg>
