<?xml version="1.0" encoding="utf-8"?>
<!-- Generator: Adobe Illustrator 16.0.0, SVG Export Plug-In . SVG Version: 6.00 Build 0)  -->
<!DOCTYPE svg PUBLIC "-//W3C//DTD SVG 1.1//EN" "http://www.w3.org/Graphics/SVG/1.1/DTD/svg11.dtd">
<svg version="1.1" id="Calque_1" xmlns="http://www.w3.org/2000/svg" xmlns:xlink="http://www.w3.org/1999/xlink" x="0px" y="0px"
	 width="60px" height="60px" viewBox="0 0 60 60" enable-background="new 0 0 60 60" xml:space="preserve">
<g opacity="0">
	<path fill="#262626" d="M4.8,0h50.4C57.852,0,60,2.149,60,4.8v50.4c0,2.651-2.148,4.8-4.8,4.8H4.8C2.149,60,0,57.852,0,55.2V4.8
		C0,2.149,2.149,0,4.8,0z"/>
	<path fill="#FEFEFE" d="M12,30.435l2.388-0.224c0.148,0.798,0.439,1.386,0.879,1.763c0.442,0.372,1.038,0.559,1.788,0.559
		c0.792,0,1.391-0.17,1.796-0.5c0.402-0.339,0.601-0.725,0.601-1.168c0-0.287-0.085-0.537-0.252-0.738
		c-0.169-0.197-0.464-0.377-0.884-0.519c-0.29-0.109-0.945-0.286-1.968-0.543c-1.319-0.324-2.244-0.727-2.771-1.203
		c-0.748-0.674-1.123-1.497-1.123-2.46c0-0.62,0.172-1.206,0.529-1.74c0.351-0.542,0.86-0.956,1.525-1.242
		c0.664-0.275,1.458-0.42,2.404-0.42c1.528,0,2.68,0.338,3.457,1.006c0.774,0.683,1.178,1.578,1.216,2.701l-2.473,0.082
		c-0.11-0.613-0.329-1.064-0.678-1.341c-0.344-0.275-0.864-0.412-1.551-0.412c-0.714,0-1.274,0.146-1.676,0.444
		c-0.263,0.191-0.394,0.437-0.394,0.75c0,0.292,0.121,0.534,0.367,0.74c0.308,0.265,1.064,0.536,2.261,0.814
		c1.198,0.283,2.082,0.577,2.652,0.881c0.575,0.303,1.024,0.717,1.348,1.245c0.322,0.516,0.488,1.174,0.488,1.947
		c0,0.697-0.196,1.357-0.584,1.964s-0.939,1.065-1.649,1.363c-0.711,0.29-1.597,0.446-2.658,0.446c-1.544,0-2.734-0.359-3.559-1.077
		C12.654,32.838,12.161,31.798,12,30.435z M21.617,25.566h2.479l2.118,6.273l2.064-6.273h2.417l-3.106,8.496l-0.569,1.551
		c-0.205,0.518-0.4,0.91-0.586,1.181c-0.184,0.276-0.399,0.5-0.639,0.665c-0.246,0.166-0.542,0.298-0.889,0.393
		C24.552,37.947,24.154,38,23.71,38c-0.447,0-0.89-0.053-1.325-0.148l-0.193-1.836c0.362,0.076,0.692,0.115,0.985,0.115
		c0.541,0,0.942-0.16,1.201-0.476c0.261-0.324,0.46-0.735,0.598-1.228L21.617,25.566z M38.824,34.404H36.49v-4.499
		c0-0.947-0.049-1.559-0.152-1.841c-0.102-0.279-0.26-0.497-0.49-0.652c-0.226-0.154-0.502-0.232-0.818-0.232
		c-0.411,0-0.775,0.113-1.104,0.335c-0.327,0.22-0.548,0.512-0.669,0.87c-0.117,0.37-0.181,1.04-0.181,2.03v3.988h-2.329v-8.838
		h2.157v1.294c0.777-0.979,1.752-1.462,2.928-1.462c0.522,0,0.996,0.095,1.427,0.273c0.429,0.19,0.759,0.42,0.976,0.712
		c0.217,0.289,0.371,0.615,0.459,0.977c0.086,0.358,0.131,0.889,0.131,1.567V34.404z M38.838,29.893
		c0-0.784,0.194-1.528,0.578-2.259c0.384-0.724,0.928-1.28,1.634-1.664c0.704-0.384,1.493-0.571,2.36-0.571
		c1.346,0,2.444,0.433,3.301,1.301C47.569,27.568,48,28.664,48,29.988c0,1.337-0.435,2.439-1.301,3.32
		c-0.865,0.876-1.959,1.322-3.273,1.322c-0.812,0-1.586-0.188-2.328-0.553c-0.737-0.366-1.298-0.902-1.682-1.612
		C39.032,31.764,38.838,30.904,38.838,29.893z M41.229,30.01c0,0.883,0.207,1.556,0.629,2.014c0.42,0.471,0.936,0.707,1.551,0.707
		c0.616,0,1.131-0.236,1.551-0.707c0.414-0.458,0.621-1.14,0.621-2.024c0-0.875-0.207-1.541-0.621-2.003
		c-0.42-0.462-0.935-0.702-1.551-0.702c-0.615,0-1.131,0.24-1.551,0.702C41.436,28.458,41.229,29.132,41.229,30.01z"/>
</g>
</svg>
