<?xml version="1.0" encoding="utf-8"?>
<!-- Generator: Adobe Illustrator 16.0.0, SVG Export Plug-In . SVG Version: 6.00 Build 0)  -->
<!DOCTYPE svg PUBLIC "-//W3C//DTD SVG 1.1//EN" "http://www.w3.org/Graphics/SVG/1.1/DTD/svg11.dtd">
<svg version="1.1" id="Calque_1" xmlns="http://www.w3.org/2000/svg" xmlns:xlink="http://www.w3.org/1999/xlink" x="0px" y="0px"
	 width="50px" height="50px" viewBox="0 0 50 50" enable-background="new 0 0 50 50" xml:space="preserve">
<g>
	<path opacity="0" fill="#2EB7E5" d="M4,0h42c2.209,0,4,1.791,4,4v42c0,2.209-1.791,4-4,4H4c-2.209,0-4-1.791-4-4V4
		C0,1.791,1.791,0,4,0z"/>
	<g transform="translate(10 12)">
		<path fill="#FEFEFE" d="M11.803,17.33l10.917,8.395c1.821,0.797,2.483-0.863,2.483-0.863L29.939,0.92
			c0-1.594-2.187-0.631-2.187-0.631L1.165,10.748c0,0-1.258,0.432-1.159,1.229c0.099,0.797,1.125,1.162,1.125,1.162l6.689,2.257
			L23.88,5.169c0,0,0.927-0.564,0.894,0c0,0,0.166,0.1-0.33,0.564c-0.498,0.465-12.616,11.389-12.616,11.389L11.803,17.33z"/>
		<path opacity="0.5" fill="#FEFEFE" enable-background="new    " d="M10.954,24.592c0,0-0.319-0.029-0.716-1.292
			c-0.397-1.262-2.418-7.903-2.418-7.903L23.88,5.169c0,0,0.927-0.564,0.894,0c0,0,0.166,0.1-0.33,0.564
			c-0.498,0.465-12.616,11.389-12.616,11.389"/>
		<path opacity="0.2" fill="#FEFEFE" enable-background="new    " d="M15.982,20.544l-4.321,3.952c0,0-0.338,0.257-0.708,0.096
			l0.828-7.34"/>
	</g>
</g>
</svg>
