<?xml version="1.0" encoding="utf-8"?>
<!-- Generator: Adobe Illustrator 16.0.0, SVG Export Plug-In . SVG Version: 6.00 Build 0)  -->
<!DOCTYPE svg PUBLIC "-//W3C//DTD SVG 1.1//EN" "http://www.w3.org/Graphics/SVG/1.1/DTD/svg11.dtd">
<svg version="1.1" id="Calque_1" xmlns="http://www.w3.org/2000/svg" xmlns:xlink="http://www.w3.org/1999/xlink" x="0px" y="0px"
	 width="60px" height="60px" viewBox="0 0 60 60" enable-background="new 0 0 60 60" xml:space="preserve">
<g>
	<path opacity="0" fill="#39AA56" d="M5.164,0h52c2.209,0,4,1.791,4,4v52c0,2.209-1.791,4-4,4h-52c-2.209,0-4-1.791-4-4V4
		C1.164,1.791,2.955,0,5.164,0z"/>
	<g transform="translate(15 15)">
		<path fill="#FFFFFF" d="M19.744,18.048c0.037,1.017,0.572,1.009,1.212,0.984c0.86-0.017,1.331-0.282,1.763-0.073
			c-0.006-0.023-0.141-0.432-0.736-0.359c0.068-0.151,0.099-0.354,0.078-0.637c-0.078-1.015-0.662-1.82-1.303-1.798
			C20.119,16.188,19.709,17.029,19.744,18.048L19.744,18.048z M20.697,16.811c0.087-0.002,0.171,0.031,0.232,0.092
			c0.063,0.062,0.098,0.146,0.1,0.232c0.004,0.182-0.141,0.332-0.319,0.336c-0.181,0.004-0.33-0.143-0.333-0.326
			c-0.002-0.086,0.031-0.172,0.092-0.233S20.611,16.811,20.697,16.811z M10.979,19.215c0.066,0.002,0.136,0,0.207-0.002
			c0.062,0,0.124-0.001,0.188-0.004c0.641-0.006,1.172,0.057,1.164-0.961c-0.011-1.016-0.457-1.839-1.097-1.832
			c-0.639,0.006-1.258,0.84-1.221,1.855c0.011,0.265,0.05,0.455,0.111,0.593c-0.557,0.143-0.711,0.491-0.721,0.513
			C9.96,19.186,10.356,19.213,10.979,19.215L10.979,19.215z M11.529,17.055c0.181-0.006,0.331,0.139,0.337,0.322
			c0.004,0.182-0.138,0.334-0.319,0.339c-0.086,0.003-0.171-0.03-0.234-0.091s-0.1-0.143-0.102-0.23
			c-0.003-0.088,0.029-0.174,0.089-0.235C11.36,17.094,11.442,17.057,11.529,17.055L11.529,17.055z M13.033,6.225h1.796v-0.75h0.404
			v3.463h-0.61v1.938h3.145V8.939h-0.61V5.476h0.405v0.75h1.797V3.658h-6.326V6.225L13.033,6.225z"/>
		<path fill="#FFFFFF" d="M29.883,11.174c-0.011-0.22-0.031-0.438-0.061-0.656c-0.016-0.11-0.031-0.219-0.055-0.327
			c-0.021-0.111-0.041-0.214-0.076-0.335l-0.023-0.085l-0.059-0.048c-0.344-0.271-0.711-0.477-1.086-0.658
			c-0.31-0.147-0.623-0.276-0.94-0.395c-0.886-2.487-2.407-4.691-4.409-6.227c-2.068-1.588-4.501-2.428-7.033-2.428
			c-2.535,0-4.967,0.84-7.036,2.428C7.529,3.651,6.252,5.276,5.348,7.125H5.344C5.097,7.627,4.879,8.143,4.691,8.67
			C4.373,8.788,4.059,8.917,3.75,9.064C3.375,9.246,3.007,9.452,2.665,9.723l-0.06,0.048L2.582,9.856
			c-0.031,0.111-0.058,0.222-0.079,0.335c-0.021,0.107-0.038,0.217-0.053,0.327c-0.021,0.156-0.036,0.315-0.049,0.473h0.005
			c-0.005,0.061-0.01,0.123-0.013,0.184c-0.022,0.439-0.01,0.879,0.038,1.316c0.046,0.438,0.126,0.872,0.241,1.298
			c0.06,0.214,0.13,0.425,0.21,0.632c0.04,0.104,0.083,0.208,0.132,0.312c0.024,0.052,0.05,0.103,0.077,0.156l0.043,0.077
			c0.017,0.029,0.028,0.05,0.053,0.087l0.043,0.069l0.07,0.035c0.073,0.038,0.134,0.066,0.2,0.098l0.193,0.088
			c0.035,0.015,0.07,0.03,0.107,0.045c-0.879,0.821-1.833,1.889-2.66,3.209L0.098,20.26l1.465-1.301
			c0.025-0.021,1.253-1.098,3.301-2.316l0.029,0.238l0.074,0.602l0.375,3.084c0.008,0.06,0.039,0.11,0.087,0.146l0.769,0.546
			c0.014,0.044,0.026,0.087,0.039,0.133c0.018,0.062,0.035,0.123,0.054,0.184l0.175,0.535c0.385,1.211,0.93,2.304,1.593,3.263
			c-0.032,0.01-0.064,0.019-0.096,0.028c-0.4-0.188-1.796-0.844-2.266-1.058l-0.981-0.444l0.581,0.916
			c0.042,0.065,1.043,1.646,1.86,2.711c0.766,0.994,1.813,2.01,3.789,2.01c0.249-0.002,0.497-0.016,0.743-0.043
			c0.59-0.069,1.032-0.123,1.369-0.167c2.074,0.772,4.36,0.817,6.532-0.013c0.568-0.22,1.115-0.492,1.633-0.816
			c0.01-0.001,0.021-0.004,0.028-0.006c0.808-0.197,1.724-0.42,2.177-0.547c0.071-0.021,0.162-0.043,0.258-0.064
			c0.629-0.146,1.684-0.395,2.244-1.531c0.564-1.146,1.488-2.904,1.497-2.922l0.433-0.816l-0.84,0.369
			c-0.045,0.021-1.11,0.489-1.664,0.783c-0.02,0.012-0.043,0.021-0.063,0.031c0.449-0.928,0.674-1.668,0.755-1.952l0.305-1.267
			l0.873-1.979c0,0,0.246-2.163,0.252-2.161l0.086-0.828c0.076-0.031,0.543-0.064,0.635-0.103c0.129-0.051,0.26-0.103,0.391-0.16
			l0.191-0.088c0.068-0.032,0.128-0.06,0.201-0.098l0.068-0.036l0.044-0.069c0.023-0.037,0.037-0.059,0.052-0.087l0.043-0.077
			c0.028-0.053,0.055-0.104,0.078-0.156c0.047-0.103,0.092-0.207,0.133-0.312c0.08-0.208,0.147-0.419,0.209-0.633
			c0.115-0.429,0.197-0.861,0.24-1.297C29.895,12.054,29.904,11.614,29.883,11.174L29.883,11.174z M9.935,16.514
			c0.019-0.014,0.804-0.535,2.086-1.17c1.397-0.107,2.798-0.161,4.2-0.161c0.367,0,0.729,0.005,1.084,0.011
			c-0.248,0.203-0.511,0.394-0.783,0.56l-0.904,0.555c-0.572,0.07-1.067,0.215-1.095,0.223c-0.017,0.005-0.032,0.011-0.047,0.021
			c-0.045,0.025-0.079,0.068-0.094,0.119l-0.926,3.086l-4.943,1.111l-1.558-1.104L6.5,16.051c0.884-0.165,2.068-0.355,3.488-0.516
			c-0.156,0.186-0.302,0.38-0.439,0.58l-0.846,1.229L9.935,16.514L9.935,16.514z M16.605,29.43
			c-0.814,0.055-1.644-0.041-2.455-0.268c0.068-0.014,0.117-0.021,0.177-0.027c0.066-0.01,1.521-0.203,2.175-1.188l0.063,0.002
			l0.162-0.002c0.106,0,0.205-0.01,0.311-0.014c0.248-0.021,0.488-0.058,0.729-0.105c0.024,0.025,0.049,0.05,0.074,0.078
			c0.492,0.492,1.104,0.775,1.773,0.824C18.486,29.195,17.425,29.375,16.605,29.43L16.605,29.43z M16.68,27.623
			c0.123-0.275,0.217-0.492,0.285-0.654c0.176,0.197,0.354,0.391,0.533,0.581c-0.16,0.024-0.318,0.045-0.475,0.058
			c-0.103,0.006-0.209,0.017-0.308,0.017L16.68,27.623L16.68,27.623z M14.255,21.253l0.442-0.101
			c0.072-0.018,0.13-0.071,0.152-0.144l0.922-3.073c0.16-0.021,0.302-0.031,0.422-0.031c0.117,0,0.261,0.011,0.418,0.031
			l0.951,3.164c0.023,0.082,0.092,0.141,0.174,0.148l0.353,0.04l0.091,0.01l6.069,0.699c0.051,0.006,0.101-0.008,0.144-0.037
			L25,21.529l0.564-0.398l0.207-0.148c-0.033,0.146-0.07,0.293-0.109,0.438c-0.059,0.186-0.119,0.37-0.182,0.555
			c-0.25,0.717-0.529,1.368-0.834,1.957c-0.088,0.006-0.178,0.008-0.267,0.008c-0.295,0-0.595-0.023-0.927-0.056
			c-0.577-0.055-1.49-0.159-1.778-0.192c-0.25-0.201-1.102-0.885-1.809-1.449c-0.027-0.021-0.052-0.044-0.076-0.064
			c-0.124-0.105-0.267-0.227-0.554-0.227c-0.262,0-0.643,0.096-1.563,0.377c0.479-0.362,0.483-0.83,0.483-0.83
			s-0.683,0.645-1.783,0.785c-1.098,0.144-1.961-0.54-1.961-0.54c0.036,0.118,0.087,0.388,0.336,0.616
			c-0.293-0.035-0.609-0.06-0.941-0.06c-0.119,0-0.241,0.002-0.358,0.009c-0.676,0.036-1.627,1.069-2.295,2.112
			c-0.329,0.104-1.354,0.437-2.542,0.788c-0.701-0.98-1.176-1.979-1.445-2.618c-0.157-0.373-0.244-0.627-0.264-0.688l0,0
			c-0.021-0.063-0.045-0.127-0.065-0.19l0.285,0.201v0.002l0.704,0.499l0.235,0.165c0.036,0.024,0.078,0.039,0.119,0.039
			c0.015,0,0.03-0.002,0.046-0.005L14.255,21.253L14.255,21.253z M18,16.67c-0.021-0.068-0.074-0.121-0.143-0.141
			c-0.03-0.01-0.642-0.187-1.289-0.241l0.119-0.009c0.103-0.008,1.805-0.219,3.838-0.929c2.252,0.175,4.092,0.455,5.349,0.686
			l-0.444,3.159l-1.57,1.111l-4.938-0.567L18,16.67z M28.838,12.415c-0.055,0.407-0.236,1.199-0.236,1.199l-0.143,0.023
			c-0.074-0.021-0.77-0.203-1.965-0.426c0.039-0.009,0.076-0.017,0.111-0.025c0.248-0.062,0.492-0.141,0.729-0.236
			c0.117-0.051,0.234-0.105,0.346-0.169c0.11-0.065,0.219-0.137,0.303-0.233c-1.197,0.396-3.672,0.217-5.871-0.014
			c-2.01-0.21-4.026-0.346-6.053-0.351c-2.028,0.005-4.042,0.141-6.055,0.351c-2.199,0.23-4.672,0.41-5.87,0.014
			c0.084,0.096,0.192,0.168,0.303,0.233c0.11,0.063,0.227,0.117,0.344,0.169c0.237,0.096,0.481,0.175,0.729,0.236
			c0.087,0.021,0.176,0.04,0.265,0.056c-1.091,0.209-1.723,0.376-1.793,0.396c0,0-0.251,0.042-0.307-0.154
			c-0.109-0.39-0.182-0.663-0.237-1.069c-0.052-0.405-0.078-0.813-0.075-1.222c0.001-0.067,0-0.201,0-0.201
			c0.003-0.137,0.01-0.274,0.022-0.412c0.007-0.101,0.375-0.425,0.692-0.61C4.42,9.769,4.78,9.587,5.146,9.419
			C5.508,9.245,6.682,8.993,7.39,8.863c0.708-0.131,3.239-0.471,3.429-0.542c0.189-0.073,1.283-0.926,1.474-0.997
			c-0.402,0.067-5.957,0.925-6.207,1.005c1.803-4.771,5.343-7.095,10.053-7.095c4.711,0,8.25,2.194,10.055,6.967
			c-2.381-0.641-5.682-0.939-6.082-1.007c0.19,0.071,1.272,0.841,1.474,0.867c1.647,0.216,4.246,0.799,4.435,0.875
			c0.373,0.153,0.748,0.311,1.11,0.484c0.366,0.168,0.726,0.35,1.065,0.551c0.316,0.185,0.685,0.509,0.693,0.61
			c0.018,0.204,0.024,0.407,0.026,0.612C28.918,11.6,28.891,12.01,28.838,12.415L28.838,12.415z"/>
	</g>
</g>
</svg>
