<?xml version="1.0" encoding="utf-8"?>
<!-- Generator: Adobe Illustrator 16.0.0, SVG Export Plug-In . SVG Version: 6.00 Build 0)  -->
<!DOCTYPE svg PUBLIC "-//W3C//DTD SVG 1.1//EN" "http://www.w3.org/Graphics/SVG/1.1/DTD/svg11.dtd">
<svg version="1.1" id="Calque_1" xmlns="http://www.w3.org/2000/svg" xmlns:xlink="http://www.w3.org/1999/xlink" x="0px" y="0px"
	 width="50px" height="50px" viewBox="0 0 50 50" enable-background="new 0 0 50 50" xml:space="preserve">
<defs>
	<filter id="Adobe_OpacityMaskFilter" filterUnits="userSpaceOnUse" x="-2" y="-2" width="54" height="54">
		<feColorMatrix  type="matrix" values="1 0 0 0 0  0 1 0 0 0  0 0 1 0 0  0 0 0 1 0"/>
	</filter>
</defs>
<mask maskUnits="userSpaceOnUse" x="-2" y="-2" width="54" height="54" id="d">
	<g filter="url(#Adobe_OpacityMaskFilter)">
		<path id="a" fill="#FFFFFF" d="M4,0h42c2.209,0,4,1.791,4,4v42c0,2.209-1.791,4-4,4H4c-2.209,0-4-1.791-4-4V4C0,1.791,1.791,0,4,0
			z"/>
	</g>
</mask>
<g mask="url(#d)">
	<g opacity="0">
		
			<linearGradient id="c_2_" gradientUnits="userSpaceOnUse" x1="-274.5571" y1="413.5908" x2="-274.5571" y2="412.5908" gradientTransform="matrix(50 0 0 -50 13752.8438 20679.5313)">
			<stop  offset="0" style="stop-color:#0091E6"/>
			<stop  offset="1" style="stop-color:#0079BF"/>
		</linearGradient>
		<path id="c" fill="url(#c_2_)" d="M4,0h42c2.209,0,4,1.791,4,4v42c0,2.209-1.791,4-4,4H4c-2.209,0-4-1.791-4-4V4
			C0,1.791,1.791,0,4,0z"/>
	</g>
	<g opacity="0">
		<path id="c_1_" fill="#0085D3" d="M4,0h42c2.209,0,4,1.791,4,4v42c0,2.209-1.791,4-4,4H4c-2.209,0-4-1.791-4-4V4
			C0,1.791,1.791,0,4,0z"/>
	</g>
	<g opacity="0">
		<path id="a_1_" fill="none" stroke="#FFFFFF" stroke-width="4" stroke-opacity="0.2" d="M4,0h42c2.209,0,4,1.791,4,4v42
			c0,2.209-1.791,4-4,4H4c-2.209,0-4-1.791-4-4V4C0,1.791,1.791,0,4,0z"/>
	</g>
	<path fill="#FFFFFF" d="M28,14.344C28,13.049,29.044,12,30.342,12h7.316C38.951,12,40,13.05,40,14.344v11.313
		C40,26.951,38.956,28,37.658,28h-7.316C29.049,28,28,26.95,28,25.656V14.344z M10,14.353C10,13.054,11.044,12,12.342,12h7.315
		C20.951,12,22,13.051,22,14.353v21.293c0,1.3-1.044,2.354-2.342,2.354h-7.315C11.049,38,10,36.949,10,35.646V14.353z"/>
</g>
</svg>
