<?xml version="1.0" encoding="utf-8"?>
<!-- Generator: Adobe Illustrator 16.0.0, SVG Export Plug-In . SVG Version: 6.00 Build 0)  -->
<!DOCTYPE svg PUBLIC "-//W3C//DTD SVG 1.1//EN" "http://www.w3.org/Graphics/SVG/1.1/DTD/svg11.dtd">
<svg version="1.1" id="Calque_1" xmlns="http://www.w3.org/2000/svg" xmlns:xlink="http://www.w3.org/1999/xlink" x="0px" y="0px"
	 width="60px" height="60px" viewBox="0 0 60 60" enable-background="new 0 0 60 60" xml:space="preserve">
<g>
	<path opacity="0" fill="#00ABF1" d="M4,0h52c2.209,0,4,1.791,4,4v52c0,2.209-1.791,4-4,4H4c-2.209,0-4-1.791-4-4V4
		C0,1.791,1.791,0,4,0z"/>
	<path fill="#FFFFFF" d="M20.671,19.732c-1.082,2.261-0.551,4.096,1.062,5.78c-0.526-0.14-1.052-0.28-1.66-0.442
		c0.12,2.137,1.278,3.417,3.108,4.292H21.61c0.336,0.922,0.793,1.654,1.533,2.098c0.707,0.425,1.51,0.69,2.288,1.034
		c-1.703,1.297-3.711,1.752-6.035,1.722c0.277,0.177,0.392,0.259,0.514,0.325c2.484,1.359,5.144,1.823,7.926,1.393
		c6.044-0.936,10.354-5.971,10.398-12.105c0.004-0.454,0.149-0.728,0.488-1.016c0.535-0.456,1.002-0.992,1.496-1.494
		c-0.041-0.051-0.082-0.102-0.125-0.152c-0.597,0.136-1.193,0.272-1.791,0.408c0.629-0.676,1.172-1.319,1.465-2.19
		c-0.723,0.265-1.365,0.49-2,0.739c-0.439,0.173-0.764,0.089-1.154-0.216c-1.37-1.072-2.901-1.299-4.504-0.567
		c-1.598,0.729-2.445,2.005-2.553,3.759c-0.022,0.354-0.003,0.71-0.003,1.128C25.983,24.001,23.095,22.471,20.671,19.732 M30.001,45
		c-1.467-1.473-2.854-2.893-4.281-4.271c-0.243-0.233-0.656-0.402-0.995-0.41c-1.901-0.038-3.803-0.016-5.705-0.021
		c-2.576-0.006-4.02-1.444-4.02-4c0-5.784,0-11.571,0-17.358c0-2.465,1.479-3.939,3.952-3.939c7.371-0.001,14.743-0.001,22.114,0
		c2.472,0,3.932,1.468,3.933,3.952C45,24.76,45,30.568,44.999,36.376c-0.001,2.448-1.438,3.901-3.897,3.921
		c-1.858,0.014-3.719,0.03-5.576-0.012c-0.614-0.014-1.034,0.183-1.45,0.613C32.757,42.264,31.402,43.594,30.001,45"/>
</g>
</svg>
