<?xml version="1.0" encoding="utf-8"?>
<!-- Generator: Adobe Illustrator 16.0.0, SVG Export Plug-In . SVG Version: 6.00 Build 0)  -->
<!DOCTYPE svg PUBLIC "-//W3C//DTD SVG 1.1//EN" "http://www.w3.org/Graphics/SVG/1.1/DTD/svg11.dtd">
<svg version="1.1" id="Calque_1" xmlns="http://www.w3.org/2000/svg" xmlns:xlink="http://www.w3.org/1999/xlink" x="0px" y="0px"
	 width="50px" height="50px" viewBox="0 0 50 50" enable-background="new 0 0 50 50" xml:space="preserve">
<defs>
	<filter id="Adobe_OpacityMaskFilter" filterUnits="userSpaceOnUse" x="-2" y="-2" width="54" height="54">
		<feColorMatrix  type="matrix" values="1 0 0 0 0  0 1 0 0 0  0 0 1 0 0  0 0 0 1 0"/>
	</filter>
</defs>
<mask maskUnits="userSpaceOnUse" x="-2" y="-2" width="54" height="54" id="b">
	<g filter="url(#Adobe_OpacityMaskFilter)">
		<path id="a" fill="#FFFFFF" d="M4,0h42c2.209,0,4,1.791,4,4v42c0,2.209-1.791,4-4,4H4c-2.209,0-4-1.791-4-4V4C0,1.791,1.791,0,4,0
			z"/>
	</g>
</mask>
<g mask="url(#b)">
	<path opacity="0" fill="#1DA1F2" d="M4,0h42c2.209,0,4,1.791,4,4v42c0,2.209-1.791,4-4,4H4c-2.209,0-4-1.791-4-4V4
		C0,1.791,1.791,0,4,0z"/>
	<g opacity="0">
		<path id="a_1_" fill="none" stroke="#FFFFFF" stroke-width="4" stroke-opacity="0.2" d="M4,0h42c2.209,0,4,1.791,4,4v42
			c0,2.209-1.791,4-4,4H4c-2.209,0-4-1.791-4-4V4C0,1.791,1.791,0,4,0z"/>
	</g>
	<path fill="#FFFFFF" d="M19.435,37c11.321,0,17.513-9.232,17.513-17.238c0-0.263-0.006-0.523-0.018-0.783
		c1.201-0.855,2.246-1.923,3.07-3.138c-1.104,0.482-2.289,0.808-3.535,0.954c1.271-0.75,2.247-1.937,2.707-3.352
		c-1.189,0.694-2.506,1.199-3.908,1.471C34.141,13.736,32.541,13,30.771,13c-3.399,0-6.155,2.713-6.155,6.058
		c0,0.476,0.054,0.938,0.16,1.381c-5.116-0.253-9.652-2.664-12.687-6.33c-0.529,0.895-0.833,1.936-0.833,3.045
		c0,2.102,1.086,3.958,2.739,5.043c-1.01-0.031-1.958-0.304-2.788-0.758c-0.001,0.025-0.001,0.05-0.001,0.078
		c0,2.934,2.122,5.384,4.938,5.939c-0.518,0.139-1.062,0.213-1.623,0.213c-0.396,0-0.782-0.039-1.157-0.109
		c0.784,2.407,3.056,4.159,5.75,4.209c-2.106,1.625-4.76,2.593-7.645,2.593c-0.496,0-0.986-0.028-1.468-0.084
		C12.724,35.997,15.958,37,19.435,37"/>
</g>
</svg>
