<?xml version="1.0" encoding="utf-8"?>
<!-- Generator: Adobe Illustrator 16.0.0, SVG Export Plug-In . SVG Version: 6.00 Build 0)  -->
<!DOCTYPE svg PUBLIC "-//W3C//DTD SVG 1.1//EN" "http://www.w3.org/Graphics/SVG/1.1/DTD/svg11.dtd">
<svg version="1.1" id="Calque_1" xmlns="http://www.w3.org/2000/svg" xmlns:xlink="http://www.w3.org/1999/xlink" x="0px" y="0px"
	 width="60px" height="60px" viewBox="0 0 60 60" enable-background="new 0 0 60 60" xml:space="preserve">
<g opacity="0">
	<path fill="#0092D0" d="M4.8,0h50.4C57.852,0,60,2.149,60,4.8v50.4c0,2.651-2.148,4.8-4.8,4.8H4.8C2.149,60,0,57.852,0,55.2V4.8
		C0,2.149,2.149,0,4.8,0z"/>
	<path fill="#FFFFFF" d="M16.057,36.158l-3.893-11.344C12.081,24.59,12,24.225,12,23.94c0-0.817,0.63-1.581,1.617-1.581H31.74
		c0.906,0,1.563,0.734,1.563,1.581c0,0.255-0.084,0.596-0.135,0.764L29.22,36.158c-0.358,1.042-1.044,1.521-1.836,1.521h-0.113
		c-0.82,0-1.507-0.479-1.811-1.461l-1.746-5.483c0,0-0.207-0.78-1.074-0.78c-0.871,0-1.091,0.78-1.091,0.78l-1.76,5.483
		c-0.305,0.982-0.987,1.461-1.785,1.461h-0.109C17.071,37.68,16.386,37.199,16.057,36.158L16.057,36.158z M46.385,33.582
		c-0.431-0.068-0.699,0.017-1.01,0.193c-0.699,0.449-1.834,0.989-3.203,0.989c-2.195,0-4.137-1.377-4.438-4.021
		c0,0,1.953,0.914,5.059,0.807c1.778-0.063,3.252-0.468,4.189-1.093c0.954-0.636,1.123-1.581,0.965-2.661
		C47.448,24.378,45.178,22,41.473,22c-4.455,0-7.541,3.296-7.541,8c0,4.344,3.058,8,7.979,8c2.328,0,4.076-0.898,5.036-1.528
		c0.322-0.241,0.599-0.612,0.671-1.087C47.753,34.496,47.219,33.717,46.385,33.582L46.385,33.582z"/>
</g>
</svg>
