<?xml version="1.0" encoding="utf-8"?>
<!-- Generator: Adobe Illustrator 16.0.0, SVG Export Plug-In . SVG Version: 6.00 Build 0)  -->
<!DOCTYPE svg PUBLIC "-//W3C//DTD SVG 1.1//EN" "http://www.w3.org/Graphics/SVG/1.1/DTD/svg11.dtd">
<svg version="1.1" id="Calque_1" xmlns="http://www.w3.org/2000/svg" xmlns:xlink="http://www.w3.org/1999/xlink" x="0px" y="0px"
	 width="50px" height="50px" viewBox="0 0 50 50" enable-background="new 0 0 50 50" xml:space="preserve">
<g>
	<path opacity="0" fill="#25D366" d="M4,0h42c2.209,0,4,1.791,4,4v42c0,2.209-1.791,4-4,4H4c-2.209,0-4-1.791-4-4V4
		C0,1.791,1.791,0,4,0z"/>
	<path fill="#FFFFFF" d="M31.865,27.973c-0.373-0.186-2.207-1.084-2.549-1.209c-0.342-0.123-0.592-0.186-0.84,0.188
		c-0.248,0.372-0.965,1.208-1.183,1.456c-0.217,0.248-0.437,0.278-0.81,0.093s-1.574-0.578-3-1.843
		c-1.109-0.984-1.858-2.201-2.076-2.573c-0.217-0.372-0.023-0.573,0.164-0.758c0.168-0.167,0.374-0.434,0.56-0.65
		c0.187-0.217,0.249-0.372,0.374-0.62c0.124-0.248,0.062-0.465-0.031-0.65c-0.093-0.187-0.839-2.014-1.15-2.757
		c-0.303-0.724-0.61-0.626-0.839-0.638c-0.217-0.011-0.466-0.013-0.715-0.013s-0.653,0.093-0.995,0.465
		c-0.342,0.372-1.306,1.27-1.306,3.098s1.337,3.593,1.523,3.841c0.187,0.247,2.631,3.999,6.374,5.606
		c0.89,0.383,1.585,0.611,2.126,0.783c0.895,0.282,1.707,0.242,2.352,0.146c0.717-0.106,2.207-0.898,2.518-1.767
		c0.312-0.868,0.312-1.61,0.218-1.766C32.486,28.251,32.238,28.158,31.865,27.973 M25.058,37.225h-0.005
		c-2.227-0.002-4.411-0.598-6.317-1.723l-0.453-0.268l-4.697,1.227l1.253-4.559l-0.295-0.467c-1.242-1.968-1.898-4.24-1.897-6.575
		c0.002-6.811,5.57-12.352,12.416-12.352c3.315,0.001,6.432,1.288,8.775,3.623c2.344,2.335,3.633,5.438,3.631,8.739
		C37.467,31.682,31.898,37.225,25.058,37.225 M35.621,14.358c-2.82-2.809-6.568-4.357-10.563-4.358
		c-8.23,0-14.929,6.667-14.933,14.86c-0.001,2.619,0.687,5.176,1.993,7.43L10,39.991l7.916-2.067
		c2.181,1.186,4.637,1.809,7.136,1.811h0.006l0,0c8.229,0,14.928-6.668,14.933-14.861C39.992,20.901,38.439,17.167,35.621,14.358"/>
</g>
</svg>
