<?xml version="1.0" encoding="utf-8"?>
<!-- Generator: Adobe Illustrator 16.0.0, SVG Export Plug-In . SVG Version: 6.00 Build 0)  -->
<!DOCTYPE svg PUBLIC "-//W3C//DTD SVG 1.1//EN" "http://www.w3.org/Graphics/SVG/1.1/DTD/svg11.dtd">
<svg version="1.1" id="Calque_1" xmlns="http://www.w3.org/2000/svg" xmlns:xlink="http://www.w3.org/1999/xlink" x="0px" y="0px"
	 width="50px" height="50px" viewBox="0 0 50 50" enable-background="new 0 0 50 50" xml:space="preserve">
<g>
	<path opacity="0" fill="#0087BE" d="M4,0h42c2.209,0,4,1.791,4,4v42c0,2.209-1.791,4-4,4H4c-2.209,0-4-1.791-4-4V4
		C0,1.791,1.791,0,4,0z"/>
	<g transform="translate(10 10)">
		<path fill="#FFFFFF" d="M2.124,14.941c0,5.075,2.948,9.459,7.224,11.536L3.234,9.725C2.5,11.366,2.123,13.144,2.124,14.941
			L2.124,14.941z M23.596,14.294c0-1.584-0.57-2.681-1.058-3.535c-0.649-1.056-1.259-1.95-1.259-3.006
			c0-1.179,0.894-2.275,2.152-2.275c0.057,0,0.11,0.007,0.166,0.01c-2.281-2.089-5.318-3.365-8.657-3.365
			c-4.478,0-8.418,2.297-10.709,5.777c0.3,0.009,0.584,0.015,0.825,0.015c1.341,0,3.416-0.163,3.416-0.163
			C9.164,7.713,9.246,8.728,8.556,8.81c0,0-0.695,0.082-1.467,0.123l4.667,13.883l2.806-8.413l-1.998-5.472
			C11.874,8.891,11.22,8.81,11.22,8.81c-0.691-0.041-0.61-1.097,0.081-1.056c0,0,2.117,0.163,3.376,0.163
			c1.341,0,3.417-0.163,3.417-0.163c0.691-0.041,0.772,0.974,0.082,1.056c0,0-0.695,0.082-1.467,0.122l4.632,13.779l1.278-4.271
			C23.174,16.666,23.596,15.392,23.596,14.294L23.596,14.294z"/>
		<path fill="#FFFFFF" d="M15.167,16.063l-3.846,11.177c1.176,0.346,2.396,0.521,3.621,0.521c1.494,0,2.924-0.258,4.257-0.727
			c-0.037-0.057-0.066-0.115-0.092-0.176L15.167,16.063z M26.189,8.792c0.055,0.409,0.086,0.847,0.086,1.318
			c0,1.301-0.242,2.763-0.976,4.591l-3.915,11.32c3.811-2.224,6.374-6.353,6.374-11.081C27.764,12.792,27.223,10.676,26.189,8.792
			L26.189,8.792z"/>
		<path fill="#FFFFFF" d="M14.942,0C6.703,0,0,6.703,0,14.941c0,8.241,6.703,14.942,14.942,14.942
			c8.24,0,14.943-6.701,14.943-14.942C29.885,6.703,23.182,0,14.942,0z M14.942,29.199c-7.861,0-14.257-6.396-14.257-14.258
			c0-7.861,6.396-14.256,14.257-14.256S29.198,7.08,29.198,14.941C29.198,22.803,22.803,29.199,14.942,29.199z"/>
	</g>
</g>
</svg>
