<?xml version="1.0" encoding="utf-8"?>
<!-- Generator: Adobe Illustrator 16.0.0, SVG Export Plug-In . SVG Version: 6.00 Build 0)  -->
<!DOCTYPE svg PUBLIC "-//W3C//DTD SVG 1.1//EN" "http://www.w3.org/Graphics/SVG/1.1/DTD/svg11.dtd">
<svg version="1.1" id="Calque_1" xmlns="http://www.w3.org/2000/svg" xmlns:xlink="http://www.w3.org/1999/xlink" x="0px" y="0px"
	 width="60px" height="60px" viewBox="0 0 60 60" enable-background="new 0 0 60 60" xml:space="preserve">
<g opacity="0">
	<path fill="#00A651" d="M4.8,0h50.4C57.852,0,60,2.149,60,4.8v50.4c0,2.651-2.148,4.8-4.8,4.8H4.8C2.149,60,0,57.852,0,55.2V4.8
		C0,2.149,2.149,0,4.8,0z"/>
	<g transform="translate(11 16)">
		<path fill="#FFFFFF" d="M15.252,17.722L33.076,0l4.871,4.551L19.955,22.625L15.252,17.722z M15.319,27.283l-0.648,0.65l0-0.003
			L15.319,27.283z"/>
		<polygon opacity="0.8" fill="#FFFFFF" enable-background="new    " points="0.755,14.125 11.642,13.959 19.968,22.639 
			14.668,27.934 		"/>
	</g>
</g>
</svg>
