<?xml version="1.0" encoding="utf-8"?>
<!-- Generator: Adobe Illustrator 16.0.0, SVG Export Plug-In . SVG Version: 6.00 Build 0)  -->
<!DOCTYPE svg PUBLIC "-//W3C//DTD SVG 1.1//EN" "http://www.w3.org/Graphics/SVG/1.1/DTD/svg11.dtd">
<svg version="1.1" id="Calque_1" xmlns="http://www.w3.org/2000/svg" xmlns:xlink="http://www.w3.org/1999/xlink" x="0px" y="0px"
	 width="50px" height="50px" viewBox="0 0 50 50" enable-background="new 0 0 50 50" xml:space="preserve">
<defs>
	<filter id="Adobe_OpacityMaskFilter" filterUnits="userSpaceOnUse" x="15" y="10" width="20" height="30">
		<feColorMatrix  type="matrix" values="1 0 0 0 0  0 1 0 0 0  0 0 1 0 0  0 0 0 1 0"/>
	</filter>
</defs>
<mask maskUnits="userSpaceOnUse" x="15" y="10" width="20" height="30" id="b">
	<g filter="url(#Adobe_OpacityMaskFilter)">
		<path id="a" fill="#FFFFFF" d="M4,0h42c2.209,0,4,1.791,4,4v42c0,2.209-1.791,4-4,4H4c-2.209,0-4-1.791-4-4V4C0,1.791,1.791,0,4,0
			z"/>
	</g>
</mask>
<g mask="url(#b)">
	<path fill="#FFFFFF" d="M15.298,10h19.403C34.872,10,35,10.133,35,10.297V40l-10-5.018L15,40V10.297C15,10.134,15.133,10,15.298,10
		z M24.986,27.71L29.309,31L27.7,25.689l4.3-3.235l-5.318-0.062L24.986,17l-1.658,5.454H18l4.299,3.235L20.744,31L24.986,27.71z"/>
</g>
</svg>
