<?xml version="1.0" encoding="utf-8"?>
<!-- Generator: Adobe Illustrator 16.0.0, SVG Export Plug-In . SVG Version: 6.00 Build 0)  -->
<!DOCTYPE svg PUBLIC "-//W3C//DTD SVG 1.1//EN" "http://www.w3.org/Graphics/SVG/1.1/DTD/svg11.dtd">
<svg version="1.1" id="Calque_1" xmlns="http://www.w3.org/2000/svg" xmlns:xlink="http://www.w3.org/1999/xlink" x="0px" y="0px"
	 width="50px" height="50px" viewBox="0 0 50 50" enable-background="new 0 0 50 50" xml:space="preserve">
<path opacity="0" fill="#4C0C94" fill-opacity="0" d="M4.8,0h40.4C47.852,0,50,2.149,50,4.8v40.4c0,2.651-2.148,4.8-4.8,4.8H4.8
	C2.149,50,0,47.852,0,45.2V4.8C0,2.149,2.149,0,4.8,0z"/>
<g transform="translate(12.5, 12.5)">
	<path fill="#FFFFFF" d="M2.829,10.406c0.063,0.094,0.416,0.687,0.784,1.317l0.671,1.146l-0.042,0.939L4.2,14.75h0.326h0.325
		l-0.044-0.939l-0.044-0.939l0.449-0.775c0.247-0.426,0.599-1.019,0.783-1.317l0.333-0.542H6.022H5.716l-0.578,0.96
		c-0.318,0.528-0.593,0.961-0.61,0.961c-0.017,0-0.292-0.432-0.611-0.96l-0.58-0.961H3.026H2.715L2.829,10.406 M21.791,10.372
		c-0.037,0.044-0.1,0.458-0.139,0.918s-0.111,1.186-0.16,1.613c-0.049,0.427-0.09,0.796-0.09,0.822s0.055,0.047,0.121,0.047
		c0.092,0,0.131-0.058,0.16-0.232c0.021-0.128,0.182-0.858,0.354-1.623c0.227-0.999,0.297-1.417,0.252-1.489
		C22.211,10.303,21.878,10.266,21.791,10.372 M18.18,10.485c-1.168,0.246-1.854,1.291-1.615,2.453
		c0.093,0.451,0.188,0.644,0.479,0.966c0.284,0.313,0.594,0.473,1.156,0.59c1.141,0.24,2.258-0.229,2.65-1.112
		c0.207-0.464,0.205-1.302-0.002-1.768c-0.185-0.416-0.644-0.834-1.103-1.006C19.348,10.459,18.587,10.399,18.18,10.485
		 M13.598,10.784c-0.18,0.064-0.428,0.198-0.55,0.296c-0.44,0.356-0.681,1.091-0.574,1.758c0.152,0.954,0.844,1.491,1.918,1.491
		c0.808,0,1.387-0.299,1.709-0.881c0.168-0.304,0.184-0.38,0.184-0.949c0-0.521-0.021-0.661-0.139-0.877
		c-0.187-0.349-0.487-0.638-0.822-0.789C14.918,10.652,14.04,10.626,13.598,10.784 M18.176,10.787
		c-0.429,0.152-0.813,0.554-0.938,0.979c-0.131,0.458-0.1,1.227,0.068,1.618c0.258,0.601,0.75,0.907,1.459,0.911
		c0.947,0.005,1.524-0.564,1.623-1.61c0.043-0.454-0.103-1.08-0.326-1.403C19.709,10.772,18.854,10.547,18.176,10.787 M6.698,11.399
		c-0.263,0.656-0.757,1.812-1.076,2.512L5.46,14.268h0.303h0.302l0.198-0.49c0.184-0.457,0.212-0.491,0.412-0.529
		c0.269-0.05,1.01-0.031,1.174,0.029c0.08,0.029,0.185,0.212,0.301,0.519l0.179,0.474h0.302c0.167,0,0.302-0.011,0.302-0.021
		c0-0.014-0.135-0.313-0.299-0.668c-0.165-0.354-0.504-1.14-0.754-1.745l-0.455-1.101h-0.23h-0.23L6.698,11.399 M9.181,12.5v1.768
		H9.46h0.279v-0.807v-0.806h1h1.001l-0.045,0.806l-0.044,0.807h0.3h0.3l0.001-1.768l0.001-1.768H11.95h-0.303l0.044,0.807
		l0.045,0.806h-1h-1v-0.806v-0.807H9.46H9.181V12.5 M13.803,11.021c-0.504,0.265-0.721,0.708-0.723,1.478
		c-0.003,1.045,0.447,1.583,1.324,1.582c0.641-0.002,1.066-0.332,1.234-0.954c0.038-0.14,0.059-0.497,0.043-0.792
		c-0.021-0.461-0.052-0.58-0.209-0.837c-0.242-0.397-0.595-0.58-1.109-0.577C14.146,10.922,13.91,10.964,13.803,11.021
		 M7.146,11.539c-0.033,0.085-0.172,0.441-0.309,0.791l-0.248,0.636H7.2h0.611l-0.16-0.419C7.173,11.289,7.213,11.368,7.146,11.539
		 M21.152,14.332c-0.137,0.256,0.084,0.493,0.373,0.4c0.154-0.049,0.229-0.31,0.123-0.435C21.535,14.16,21.232,14.182,21.152,14.332
		"/>
</g>
</svg>
