<?xml version="1.0" encoding="utf-8"?>
<!-- Generator: Adobe Illustrator 16.0.0, SVG Export Plug-In . SVG Version: 6.00 Build 0)  -->
<!DOCTYPE svg PUBLIC "-//W3C//DTD SVG 1.1//EN" "http://www.w3.org/Graphics/SVG/1.1/DTD/svg11.dtd">
<svg version="1.1" id="Calque_1" xmlns="http://www.w3.org/2000/svg" xmlns:xlink="http://www.w3.org/1999/xlink" x="0px" y="0px"
	 width="60px" height="60px" viewBox="0 0 60 60" enable-background="new 0 0 60 60" xml:space="preserve">
<path id="Youtube" fill="#FFFFFF" d="M45.834,23.493c0,0-0.316-2.243-1.285-3.229c-1.229-1.297-2.606-1.303-3.238-1.378
	c-4.521-0.33-11.304-0.33-11.304-0.33h-0.014c0,0-6.783,0-11.305,0.33c-0.632,0.075-2.009,0.081-3.239,1.378
	c-0.968,0.988-1.283,3.229-1.283,3.229s-0.323,2.634-0.323,5.267v2.469c0,2.634,0.323,5.267,0.323,5.267s0.315,2.243,1.283,3.23
	c1.23,1.297,2.845,1.256,3.563,1.391c2.585,0.25,10.986,0.328,10.986,0.328s6.79-0.011,11.312-0.34
	c0.632-0.076,2.01-0.082,3.238-1.379c0.969-0.987,1.285-3.23,1.285-3.23s0.322-2.633,0.322-5.267V28.76
	C46.156,26.127,45.834,23.493,45.834,23.493z M26.664,34.222l-0.001-9.144l8.73,4.588L26.664,34.222z"/>
</svg>
